<svg preserveAspectRatio="none" width="100%" height="100%" overflow="visible" style="display: block;" viewBox="0 0 19 18" fill="none" xmlns="http://www.w3.org/2000/svg">
<path id="Vector" fill-rule="evenodd" clip-rule="evenodd" d="M2.75 2.75C2.75 2.05964 3.30964 1.5 4 1.5H4.5C5.10474 1.5 5.60918 1.92944 5.725 2.5H4.5V4H8.5V2.5H7.23879C7.11248 1.09838 5.93451 0 4.5 0H4C2.48122 0 1.25 1.23122 1.25 2.75V8.5H0V10H1.25V12.75C1.25 14.189 2.06055 15.4387 3.25 16.0675V17.75H4.75V16.4918C4.83263 16.4972 4.91599 16.5 5 16.5H14C14.084 16.5 14.1674 16.4972 14.25 16.4918V17.75H15.75V16.0675C16.9395 15.4387 17.75 14.189 17.75 12.75V10H19V8.5H2.75V2.75ZM2.75 12.75V10H16.25V12.75C16.25 13.9926 15.2426 15 14 15H5C3.75736 15 2.75 13.9926 2.75 12.75Z" fill="var(--fill-0, #414651)"/>
</svg>
