<svg preserveAspectRatio="none" width="100%" height="100%" overflow="visible" style="display: block;" viewBox="0 0 20 18" fill="none" xmlns="http://www.w3.org/2000/svg">
<path id="Vector" fill-rule="evenodd" clip-rule="evenodd" d="M18 17.75V17H1.5V17.75H0V11.6283L1.5 7.12829V1.75C1.5 0.783502 2.2835 0 3.25 0H16.25C17.2165 0 18 0.783502 18 1.75V7.12829L19.5 11.6283V17.75H18ZM3.25 1.5C3.11193 1.5 3 1.61193 3 1.75V7H4V4.75C4 3.7835 4.7835 3 5.75 3H13.75C14.7165 3 15.5 3.7835 15.5 4.75V7H16.5V1.75C16.5 1.61193 16.3881 1.5 16.25 1.5H3.25ZM14 7V4.75C14 4.61193 13.8881 4.5 13.75 4.5H10.5V7H14ZM9 7V4.5H5.75C5.61193 4.5 5.5 4.61193 5.5 4.75V7H9ZM1.79057 11L2.6239 8.5H16.8761L17.7094 11H1.79057ZM1.5 15.5V12.5H18V15.5H1.5Z" fill="var(--fill-0, #414651)"/>
</svg>
