<svg width="40" height="40" viewBox="0 0 40 40" fill="none" xmlns="http://www.w3.org/2000/svg">
<g clip-path="url(#clip0_7459_1134)">
<path d="M39.0999 18.1621C38.8279 15.6181 38.1199 13.6341 37.7699 13.3901L37.5239 13.0141L37.3399 12.8301L37.0539 12.0901L37.4819 12.0281L35.7819 9.0261L35.6599 8.8441L35.4159 8.4681L35.2939 8.2241L34.9859 8.0401L34.4959 7.3001L34.2519 7.1781L33.7619 6.4361L33.3339 6.0081C31.1939 3.6501 27.4199 1.6481 24.4219 1.1321C22.8699 0.866096 22.6619 0.894096 21.3599 0.798096L19.8099 0.834096C17.1379 0.902096 17.6019 1.2741 17.1099 1.1701L16.9879 1.4161L16.7419 1.4781L16.6199 1.2941L16.2559 1.4161L15.8279 1.3541L15.6439 1.4781L15.4599 1.4161L15.3379 1.6601L14.7199 1.7841L14.1679 2.0281C12.6559 2.3961 10.1819 3.5441 8.79991 4.5961L7.81191 5.3461L5.47191 7.7061L4.00591 9.7821L3.86191 9.9661L3.34191 10.8421L2.29391 12.8821L1.34591 15.4541L0.97991 17.2621L0.91991 17.9421L0.85791 18.5561L0.91991 19.8981L0.85791 20.2741C0.90391 22.8121 2.25991 27.5721 4.65191 31.0021L5.09591 31.6221L5.27991 31.7441L5.52391 31.6221L5.76791 32.1121L6.13391 32.2961L6.37791 32.5401L6.56191 32.4181L6.68391 32.6621L6.86791 33.3421L7.35791 34.0821L7.72391 34.2661L7.96791 34.3901L8.21191 34.5121L8.33391 34.7561L8.82391 35.1221C10.4919 36.4421 12.2139 37.6061 14.0599 38.0461L14.9239 38.4741C16.1399 38.8881 16.9399 39.0081 17.3339 38.9481C18.0199 38.9981 18.6019 39.1641 19.8399 39.1381C22.3539 39.0821 24.8299 38.5821 26.6559 37.8661L27.3359 37.5601L28.0759 37.3161L29.2619 36.6361L29.5679 36.6981L30.3699 36.0781L30.8599 35.8341C32.3539 34.7821 33.7179 33.5561 35.5119 31.3181C36.8879 29.6301 37.9359 27.2341 38.7899 24.0041L39.0959 21.1861L39.0999 18.1621ZM1.73991 17.3021L1.55591 18.5841L1.49391 19.0741L1.43191 18.8901L1.73991 17.3021ZM2.22991 14.8181L1.92391 15.6821V15.2541L2.41391 14.0701L2.22991 14.8181ZM3.03191 12.5821L3.21591 12.0301L3.33791 12.0921L3.03191 12.5821ZM3.77191 10.5421L3.89391 10.2381L4.01591 10.4221L3.77191 10.7261V10.5421ZM6.74991 33.0221L6.56591 32.9001L6.68791 32.7781L6.93191 32.9621L6.74991 33.0221ZM7.67191 33.8201L7.54991 33.6361L7.73391 33.6981L7.67191 33.8201ZM7.91591 34.1261L7.60991 33.8201L7.85391 33.9441L7.91591 34.1261ZM28.9159 36.8141L28.6099 36.9981L28.7319 36.7521L28.9159 36.8141ZM30.1619 35.8901L29.9779 36.0121L29.9159 35.8901H30.1619ZM34.7459 7.9701L34.9899 8.1521L34.8679 8.2761L34.6219 8.0921L34.7459 7.9701ZM35.0519 8.6521L35.3579 8.9561L35.2959 9.2621L34.9899 8.8961L35.0519 8.6521ZM33.2279 6.7361L33.4119 6.8581L33.4099 7.0421L33.2279 6.7361ZM30.9279 4.6981L31.1119 4.8821L30.9899 4.8201L30.9279 4.6981ZM29.1659 3.6521L29.3479 3.7741L29.2859 3.8361L29.1039 3.7141L29.1659 3.6521ZM27.6359 2.7881L27.8199 2.9101L27.7579 2.9721L27.5739 2.8501L27.6359 2.7881ZM26.5119 2.3601L26.9399 2.5441L26.8779 2.6061L26.3879 2.4221L26.5119 2.3601ZM25.4059 2.0541L25.6499 2.1761L25.5279 2.1141L25.4059 2.0541ZM17.4879 1.3621L17.6099 1.4241L17.3659 1.4861L17.4879 1.3621ZM15.4059 1.4241L15.5899 1.5461L15.3459 1.7301L15.4059 1.4241ZM12.3459 2.9501L12.2239 2.8881L12.4679 2.7661L12.5299 2.8281L12.3459 2.9501ZM7.55191 5.8321L7.36791 5.9541L7.42991 5.8921L7.55191 5.8321ZM2.53791 27.5321L2.41591 27.2881H2.53791V27.5321ZM2.78391 26.9781L2.66191 26.5501L2.90591 26.9161L2.78391 26.9781ZM4.54591 30.9801L4.30191 30.5521L4.42391 30.4301L4.23991 30.0641L4.48391 30.0021L4.72791 30.3081L4.54591 30.3701L4.78991 30.8601L4.54591 30.9801ZM5.28591 31.7221L5.10191 31.4161L5.28591 31.4781V31.7221ZM5.46791 30.6141L5.22391 30.3081L5.34591 30.2461L5.58991 30.6121L5.46791 30.6141ZM6.57391 32.0821L6.14591 31.7761L6.08391 31.4721L6.32791 31.5941L6.63391 31.9601L6.57391 32.0821ZM7.37591 32.4481L7.13191 32.2641L7.19391 32.1421L7.49991 32.3861L7.37591 32.4481ZM19.2059 38.7721H19.0219L18.9599 38.5881L19.3259 38.5261L19.2059 38.7721ZM26.6079 37.6621L26.3639 37.7241L26.3019 37.5401L26.7299 37.4181L26.6079 37.6621ZM33.3859 31.4721C30.7279 34.7821 26.5679 36.8861 21.9499 37.5141L20.8439 37.6361L20.4159 37.4521L20.5379 37.3301C21.3399 37.3921 22.0599 37.2801 23.0259 37.0721C29.5559 35.7301 34.3599 31.1121 36.7099 24.8421C38.1759 20.3481 37.9319 16.2341 36.1699 12.4681C35.1219 10.1701 34.0159 8.7641 32.7499 7.7761L32.6879 7.5321L32.4439 7.4701C31.7599 6.6321 31.1359 6.0681 29.6179 5.0261C26.8959 3.1721 23.4099 2.1241 19.7639 2.0581L18.4799 2.0921L16.3979 2.3701L15.5359 2.5541L14.7959 2.7981L13.8099 2.9821L12.8839 3.1661C15.0659 2.3021 17.4879 1.8441 19.9579 1.8561C24.5699 1.8781 28.8659 3.6021 31.9539 6.4341L33.9559 8.5741L35.2419 10.1621L36.2299 11.9781L37.1539 13.8061C39.1259 17.9821 39.0299 25.6321 33.3859 31.4721ZM37.4079 27.3461L37.2239 27.5901L37.4079 27.0401V27.3461ZM38.7539 23.4621L38.2639 24.4481L38.5699 23.2641L38.8159 21.4961L38.7539 23.4621ZM37.5879 25.7581L37.7719 25.2061L37.8939 25.2681L37.5879 25.7581ZM36.8479 11.6041L36.5419 11.4201L36.3579 11.0541L36.4199 10.6781L36.7259 10.9841L36.7879 11.4121L37.0939 11.7181L36.8479 11.6041Z" fill="black"/>
<path d="M37.02 19.424C37.02 27.774 30.332 37.002 19.984 37.002C12.03 37.002 3.02002 30.638 3.02002 20.012C3.02002 11.502 9.42602 3.13599 19.572 3.13599C27.77 3.13599 37.02 8.80199 37.02 19.424Z" fill="#74DFA8"/>
<path d="M37.22 20.1199C37.22 27.6979 30.69 36.0939 20.342 36.0939C12.388 36.0939 3.81201 30.5479 3.81201 20.6119C3.81201 12.8019 10.154 3.9519 20.3 3.9519C27.75 3.9519 37.22 9.2619 37.22 20.1199Z" fill="#74DFA8"/>
<path d="M19.8842 31.28C25.9782 31.28 31.2422 26.084 31.2422 20.004C31.2422 14.114 26.3942 8.63403 20.0462 8.63403C14.0142 8.63403 8.55615 13.526 8.55615 19.998C8.55615 26.128 13.3762 31.28 19.8842 31.28Z" fill="#FEFFFE" stroke="black" stroke-width="0.4" stroke-miterlimit="10"/>
<path d="M9.354 23.34L10.466 22.16L10.726 21.912L11.246 21.822L13.228 19.522L13.402 19.496L14.196 20.546L15.362 21.42L16.028 20.886L17.86 17.706L18.59 17.03L19.992 14.406L20.166 14.456L21.46 16.56L22.436 17.238L23.776 19.78L24.198 19.698L26.538 17.054L26.782 17.298L28.686 19.656L29.488 19.902L30.168 20.89L30.97 22L30.542 23.844L29.356 26.512L28.17 25.524L26.088 22.102L25.472 21.176L24.546 20.748L23.99 20.258L24.022 20.534L23.682 20.082L22.132 17.03L21.328 16.418L20.222 14.51L19.886 14.528L18.546 16.948L17.806 17.56L16.318 20.554L16.012 21.106L15.394 21.596L14.408 20.856L13.544 19.61L13.36 19.732L11.578 22.152L11.026 22.214L9.538 23.64L9.354 23.34Z" fill="#98E8BC" stroke="black" stroke-width="0.4" stroke-miterlimit="10" stroke-linecap="round" stroke-linejoin="round"/>
<path d="M26.56 17.3621C26.438 17.7901 26.56 18.7161 26.988 19.5181C27.15 19.8381 26.804 20.1541 26.744 20.3361C26.572 20.8961 27.774 21.9721 28.264 22.7741C28.532 23.2561 28.67 24.2321 29.222 25.5381" stroke="black" stroke-width="0.15" stroke-miterlimit="10" stroke-linecap="round" stroke-linejoin="round"/>
<path d="M21.8799 19.1421C21.9719 19.4481 21.8919 20.0621 22.1979 20.3061C22.8159 20.7561 23.1819 21.3821 23.3659 21.6881" stroke="black" stroke-width="0.15" stroke-miterlimit="10" stroke-linecap="round" stroke-linejoin="round"/>
<path d="M20.78 18.5281L20.658 19.9361C20.632 20.1861 21 20.2961 21.204 20.9361L21.822 22.6441" stroke="#74DFA8" stroke-width="0.15" stroke-miterlimit="10" stroke-linecap="round" stroke-linejoin="round"/>
<path d="M19.978 14.562L20.04 17.164L20.964 18.752" stroke="#74DFA8" stroke-width="0.15" stroke-miterlimit="10" stroke-linecap="round" stroke-linejoin="round"/>
<path d="M18.4458 19.196L19.1258 20.722L19.6778 22.552L21.0238 24.626" stroke="black" stroke-width="0.15" stroke-miterlimit="10" stroke-linecap="round" stroke-linejoin="round"/>
<path d="M19.2881 22.4001C19.1981 22.9521 18.4821 23.7401 18.3901 23.9541C18.2581 24.2781 18.7381 24.3781 18.7701 24.7541C18.7921 25.0001 18.6481 25.4781 18.7101 25.9681" stroke="black" stroke-width="0.15" stroke-miterlimit="10" stroke-linecap="round" stroke-linejoin="round"/>
<path d="M13.3599 19.9041C13.3599 20.5781 12.4339 22.1661 12.0679 22.5941" stroke="black" stroke-width="0.15" stroke-miterlimit="10" stroke-linecap="round" stroke-linejoin="round"/>
<path d="M12.9941 22.0999C12.8121 22.7119 12.4441 23.6379 11.7641 24.2579C11.5361 24.4679 11.4241 25.2979 11.0581 25.8499" stroke="black" stroke-width="0.15" stroke-miterlimit="10" stroke-linecap="round" stroke-linejoin="round"/>
<path d="M11.2959 26.6998L13.5559 24.5858L14.4199 22.7578L18.3039 19.2138L18.5479 19.3978L19.9539 18.2878" stroke="#74DFA8" stroke-width="0.15" stroke-miterlimit="10" stroke-linecap="round" stroke-linejoin="round"/>
<path d="M23.6201 23.3599L25.8421 24.9479L26.6441 25.3139L27.2001 25.8039L28.9621 26.4179C27.1301 29.1459 24.4321 31.1199 20.0161 31.1199C17.1801 31.1199 14.8421 30.1319 13.1421 28.8859L14.4281 28.2719L17.2021 26.5639L18.8421 26.3799L20.7421 24.9159L23.4541 23.3279L23.6201 23.3599Z" fill="#98E8BC"/>
<path d="M23.6202 23.3601L22.6122 25.0081C22.4602 25.3461 22.7522 25.5221 22.6122 25.7661L21.4862 27.1741L20.0202 27.6021L18.0562 29.2481" stroke="black" stroke-width="0.15" stroke-miterlimit="10" stroke-linecap="round" stroke-linejoin="round"/>
<path d="M23.6201 23.3601L25.7601 25.0681L26.4401 25.6821L26.9921 25.7441" stroke="black" stroke-width="0.15" stroke-miterlimit="10" stroke-linecap="round" stroke-linejoin="round"/>
<path d="M17.4219 21.6201C17.2179 22.1721 16.9739 22.9721 16.3559 23.3381C15.7979 23.6501 15.6419 25.0261 14.9019 25.5161" stroke="black" stroke-width="0.15" stroke-miterlimit="10" stroke-linecap="round" stroke-linejoin="round"/>
<path d="M11.1499 26.58L13.7479 24.4L14.7339 22.452L18.2219 19.092L18.9619 20.92" stroke="#74DFA8" stroke-width="0.15" stroke-miterlimit="10" stroke-linecap="round" stroke-linejoin="round"/>
<path d="M11.0879 26.4599L13.8019 23.8479L14.7279 22.2599L18.0299 19.0879L18.3359 19.2099L19.9239 16.4199" stroke="#74DFA8" stroke-width="0.15" stroke-miterlimit="10" stroke-linecap="round" stroke-linejoin="round"/>
<path d="M23.6199 23.3601L25.3819 24.3481L26.9719 25.3981L29.2719 26.5081C27.5099 29.3601 24.3399 31.2681 20.0439 31.2021C16.0359 31.2021 13.1219 29.2701 11.8159 27.8621" stroke="black" stroke-width="0.4" stroke-miterlimit="10"/>
<path d="M19.6883 14.744C19.1523 13.812 18.2963 13.452 17.3623 13.468C15.7423 13.496 14.6743 14.908 14.6743 16.242C14.6743 17.488 15.7223 18.476 16.9083 18.66L18.0343 17.312L18.5863 16.946L19.6883 14.744Z" fill="#74DFA8" stroke="black" stroke-width="0.3" stroke-miterlimit="10"/>
<path d="M17.258 11.302L17.344 11.542L17.362 12.222L17.316 12.782L17.182 12.898L17.122 12.722L17.104 12.042L17.164 11.362L17.258 11.302Z" fill="black"/>
<path d="M14.976 11.9541L15.16 12.1121L15.65 12.9721L15.712 13.1521L15.528 13.1821L15.284 12.9721L14.916 12.1381L14.976 11.9541Z" fill="black"/>
<path d="M13.2339 13.782L13.5239 13.812L14.2639 14.178L14.4479 14.3L14.3259 14.422L14.0199 14.36L13.2799 13.932L13.2339 13.782Z" fill="black"/>
<path d="M12.5542 16.142L12.9822 16.02L13.7222 16.05L14.1502 16.112L14.0882 16.296L13.5342 16.358L12.7322 16.296L12.5542 16.142Z" fill="black"/>
<path d="M13.3521 18.3019L13.6581 18.0579L14.3381 17.7519L14.5821 17.6899L14.5801 17.8739L14.2741 18.1179L13.6561 18.4239L13.3521 18.3019Z" fill="black"/>
<path d="M15.2559 19.7719L15.4999 19.2199L15.6219 18.9759L15.7439 18.9719L15.7419 19.1559L15.5599 19.6459L15.2559 19.7719Z" fill="black"/>
<path d="M20.6201 13.884L20.9861 13.518L21.4761 13.334L21.6601 13.396L21.5981 13.58L21.1081 13.946L20.7421 14.068L20.6201 13.884Z" fill="black"/>
<path d="M4.43604 17.4079L4.70204 16.0459L5.22803 16.1499L5.04603 17.0819L5.89604 17.2759L6.07803 16.4819L6.60404 16.6079L6.40203 17.4019L7.25203 17.6159L7.53604 16.7319L7.92204 16.8579L7.46404 18.1839L4.43604 17.4079Z" fill="black"/>
<path d="M6.48817 14.6559L5.52417 13.5339L5.77817 13.0339L7.06217 14.5819L8.59417 14.5199L8.32817 15.1019L7.20217 15.1319L8.12217 16.0639L7.86817 16.5619L6.62417 15.1539L4.97217 15.1239L5.23817 14.5419L6.48817 14.6559Z" fill="black"/>
<path d="M6.22217 12.266L6.85617 11.422C7.15417 10.998 7.73217 11.096 8.07217 11.358C8.46417 11.658 8.58217 12.166 8.28417 12.59L7.98417 13.002L9.11817 13.826L8.78817 14.304L6.22217 12.266ZM7.56217 12.712L7.80617 12.358C7.95817 12.136 7.88217 11.9 7.65817 11.736C7.47417 11.598 7.18217 11.574 7.04217 11.772L6.77817 12.154L7.56217 12.712Z" fill="black"/>
<path d="M7.68994 9.99797L8.11794 9.52197L10.1459 11.442L10.8859 10.642L11.2539 11.008L10.1859 12.142L7.68994 9.99797Z" fill="black"/>
<path d="M9.96203 9.01406C9.43803 8.26206 9.61003 7.73206 10.146 7.38406C10.682 7.03606 11.234 7.15806 11.758 7.91006L12.31 8.74006C12.836 9.49206 12.664 10.0221 12.128 10.3701C11.592 10.7181 11.04 10.5961 10.514 9.84406L9.96203 9.01406ZM11.012 8.08806C10.742 7.66006 10.464 7.64206 10.26 7.77406C10.056 7.90406 9.95803 8.17806 10.244 8.61606L11.026 9.75206C11.332 10.2121 11.602 10.2121 11.806 10.0801C12.01 9.94806 12.122 9.67406 11.806 9.19406L11.012 8.08806Z" fill="black"/>
<path d="M11.8481 6.50593L12.7721 6.07793C13.3081 5.83393 13.7521 6.15393 13.9661 6.58193C14.1221 6.92193 14.1441 7.32193 13.8841 7.59793L15.0961 8.78193L14.5241 9.06193L13.4781 7.96793L13.2021 8.10793L13.8821 9.45593L13.3461 9.69993L11.8481 6.50593ZM12.9841 7.67193L13.2841 7.51593C13.5441 7.38393 13.5841 7.15193 13.4521 6.84593C13.2961 6.50593 13.0721 6.44393 12.8481 6.55593L12.5221 6.71993L12.9841 7.67193Z" fill="black"/>
<path d="M14.4902 5.3319L16.1222 4.7439L16.2782 5.2239L15.2202 5.5899L15.4842 6.4759L16.3342 6.1699L16.4902 6.6479L15.6682 6.9419L15.9322 7.8879L16.9602 7.5219L17.1162 7.9719L15.5282 8.5439L14.4902 5.3319Z" fill="black"/>
<path d="M18.936 4.67798L18.218 4.70798L18.188 4.24798L20.092 4.12598L20.122 4.61598L19.462 4.66198L19.616 7.46798L18.998 7.52998L18.936 4.67798Z" fill="black"/>
<path d="M21.0399 4.21997L21.5759 4.30997L21.3719 5.71797L22.1739 5.80997L22.4179 4.33997L22.9539 4.43197L22.5519 7.74397L21.9799 7.65197L22.1359 6.27397L21.3059 6.15197L21.0619 7.68197L20.5259 7.59197L21.0399 4.21997Z" fill="black"/>
<path d="M23.82 4.70801L25.492 5.19801L25.336 5.68801L24.308 5.35001L24.024 6.23401L24.874 6.50601L24.69 6.97401L23.88 6.69001L23.552 7.67801L24.58 8.01601L24.424 8.46401L22.958 7.94401L23.82 4.70801Z" fill="black"/>
<path d="M27.5199 6.07812L27.9839 6.41613L27.0279 8.71412L28.6759 6.94413L29.0239 7.18812L28.0659 9.39813L29.6759 7.46012L30.0819 7.73213L27.7999 10.2821L27.3359 9.94413L28.1699 7.93613L26.6819 9.52412L26.2539 9.24013L27.5199 6.07812Z" fill="black"/>
<path d="M29.6197 9.49204C30.2777 8.84404 30.8597 8.86404 31.2877 9.36404C31.7157 9.86204 31.6737 10.424 31.0157 11.072L30.2857 11.782C29.6277 12.43 29.0457 12.41 28.6177 11.91C28.1897 11.412 28.2317 10.85 28.8897 10.202L29.6197 9.49204ZM30.7257 10.394C31.1117 10.008 31.0797 9.70204 30.8977 9.50004C30.7137 9.29604 30.4077 9.24404 29.9917 9.65204L28.9837 10.662C28.5677 11.09 28.5997 11.382 28.7817 11.584C28.9657 11.788 29.2717 11.85 29.7177 11.382L30.7257 10.394Z" fill="black"/>
<path d="M32.7403 10.7061L33.3583 11.5381C33.7263 12.0481 33.4823 12.5681 33.0923 12.8521C32.7843 13.0761 32.3963 13.1781 32.0583 12.9541L31.1003 14.3501L30.7343 13.7821L31.6603 12.5461L31.4563 12.2621L30.2703 13.1261L29.9043 12.6361L32.7403 10.7061ZM31.8663 12.0821L32.0903 12.3781C32.2823 12.6361 32.5383 12.6241 32.7823 12.4201C33.0703 12.1901 33.0903 11.9321 32.9283 11.7281L32.6843 11.4021L31.8663 12.0821Z" fill="black"/>
<path d="M34.3601 13.344L34.6041 13.916L32.0081 15.152L32.4361 16.11L31.9461 16.324L31.3281 14.916L34.3601 13.344Z" fill="black"/>
<path d="M35.3202 15.6121L35.5442 16.6021C35.7002 17.3121 35.3122 17.5761 34.6322 17.7301L33.5262 17.9841C32.9542 18.1261 32.5462 17.8321 32.4242 17.2801L32.1602 16.4161L35.3202 15.6121ZM32.7722 16.7961L32.8842 17.2241C32.9742 17.5581 33.2802 17.5481 33.5862 17.4781L34.7222 17.1941C35.1302 17.0921 35.1902 16.8481 35.1302 16.5421L35.0382 16.2041L32.7722 16.7961Z" fill="black"/>
<path d="M7.6577 23.3401L7.9837 24.7781L7.4757 24.9421L7.2317 24.0161L6.4017 24.3001L6.6457 25.1321L6.1557 25.2641L5.8917 24.4001L5.0617 24.6861L5.4097 25.7341L4.9617 25.8561L4.4917 24.3301L7.6577 23.3401Z" fill="black"/>
<path d="M7.54781 26.6999L6.4878 28.3699L6.1218 27.8299L6.9918 26.6319L5.4638 26.7839L5.2998 26.2119L7.2338 26.1499L8.1598 25.0139L8.49781 25.5859L7.7578 26.5119L8.9438 26.4499L9.2078 27.0219L7.54781 26.6999Z" fill="black"/>
<path d="M9.3817 27.26L10.0417 27.98C10.4237 28.378 10.1777 28.96 9.8117 29.298C9.4037 29.684 8.8517 29.726 8.5237 29.36L8.1577 28.932L7.1297 29.734L6.7417 29.264L9.3817 27.26ZM8.4877 28.648L8.7717 28.954C8.9657 29.166 9.2497 29.114 9.4737 28.882C9.6777 28.678 9.7697 28.34 9.5657 28.136L9.2597 27.83L8.4877 28.648Z" fill="black"/>
<path d="M10.6077 28.96L11.0977 29.358L9.24367 31.442L9.97367 32.06L9.66767 32.458L8.51367 31.47L10.6077 28.96Z" fill="black"/>
<path d="M11.1922 31.22C11.7162 30.402 12.1642 30.27 12.7362 30.616C13.3082 30.964 13.3402 31.412 12.8502 32.204L12.2982 33.1C11.7742 33.92 11.2642 33.93 10.7942 33.636C10.2842 33.33 10.1422 32.86 10.6422 32.04L11.1922 31.22ZM12.3282 31.648C12.6342 31.128 12.4822 30.884 12.2582 30.752C12.0342 30.62 11.7482 30.64 11.4422 31.18L10.7522 32.316C10.4462 32.868 10.5982 33.08 10.8222 33.212C11.0462 33.344 11.3322 33.314 11.6602 32.752L12.3282 31.648Z" fill="black"/>
<path d="M14.0582 31.46L14.9222 31.848C15.4582 32.08 15.4882 32.578 15.2842 33.028C15.1282 33.374 14.8442 33.658 14.4762 33.638L14.3542 35.156L13.7822 34.902L13.9662 33.516L13.6582 33.364L13.0402 34.74L12.5322 34.516L14.0582 31.46ZM13.8742 32.998L14.1822 33.14C14.4462 33.262 14.6902 33.14 14.8222 32.802C14.9742 32.436 14.8622 32.212 14.6182 32.1L14.3122 31.948L13.8742 32.998Z" fill="black"/>
<path d="M16.0218 32.24L17.3818 32.638L17.2298 33.106L16.3658 32.832L16.1018 33.718L16.8838 33.948L16.7618 34.398L15.9818 34.142L15.6958 35.152L16.6818 35.472L16.5398 35.894L15.1338 35.404L16.0218 32.24Z" fill="black"/>
<path d="M19.2619 33.22L18.6699 33.19L18.6799 32.804L20.3799 32.896L20.3499 33.324L19.7779 33.292L19.5739 35.988L19.0379 35.998L19.2619 33.22Z" fill="black"/>
<path d="M20.6597 32.7599L21.1957 32.6979L21.3797 34.0139L22.1497 33.8919L21.9457 32.5979L22.5177 32.5059L22.9817 35.6479L22.4097 35.7399L22.1857 34.3519L21.4157 34.4739L21.5897 35.8939L21.0177 35.9559L20.6597 32.7599Z" fill="black"/>
<path d="M22.9199 32.5L24.2979 32.032L24.4819 32.5L23.5559 32.838L23.8619 33.692L24.6639 33.418L24.8199 33.866L24.0179 34.172L24.3659 35.16L25.3219 34.792L25.4539 35.22L23.9879 35.74L22.9199 32.5Z" fill="black"/>
<path d="M25.5801 31.62L26.0501 31.316L27.5801 33.084L26.7781 30.928L27.1261 30.684L28.7441 32.55L27.7781 30.202L28.1461 29.938L29.3721 33.002L28.9021 33.33L27.3421 31.592L28.1241 33.736L27.6741 34.042L25.5801 31.62Z" fill="black"/>
<path d="M29.0201 30.82C28.3621 30.14 28.3521 29.61 28.8021 29.142C29.2501 28.672 29.7601 28.734 30.4181 29.414L31.0981 30.104C31.7561 30.784 31.6661 31.284 31.2161 31.692C30.7661 32.16 30.2581 32.15 29.5981 31.5L29.0201 30.82ZM30.1741 29.906C29.7461 29.446 29.4601 29.446 29.2561 29.67C29.0521 29.864 28.9921 30.17 29.4401 30.638L30.3661 31.606C30.7521 31.992 30.9961 31.87 31.2001 31.666C31.4041 31.462 31.4661 31.156 31.0381 30.708L30.1741 29.906Z" fill="black"/>
<path d="M29.8799 28.2401L30.4979 27.4361C30.8639 26.9461 31.3799 27.0381 31.7679 27.3441C32.0519 27.5681 32.2659 27.9241 32.1439 28.3001L33.5799 28.7601L33.1719 29.3001L31.8659 28.7701L31.6419 29.0541L32.7979 29.9481L32.4319 30.4381L29.8799 28.2401ZM31.3479 28.7601L31.5519 28.4541C31.7339 28.2101 31.6439 27.9341 31.3579 27.7201C31.0519 27.4761 30.7879 27.5381 30.6359 27.7621L30.3999 28.0761L31.3479 28.7601Z" fill="black"/>
<path d="M31.1401 26.48L31.4261 25.908L34.0021 27.212L34.4721 26.328L34.9001 26.572L34.1601 27.868L31.1401 26.48Z" fill="black"/>
<path d="M31.8799 24.7799L32.1859 23.9159C32.4499 23.1759 32.9859 23.2059 33.6339 23.4199L34.4839 23.7039C35.1939 23.9359 35.3779 24.4059 35.1739 25.0199L34.9099 25.7499L31.8799 24.7799ZM34.7779 25.2099L34.8999 24.8419C35.0219 24.4959 34.7379 24.2719 34.3999 24.1499L33.3519 23.7839C32.9439 23.6319 32.7199 23.8139 32.5979 24.0879L32.4459 24.4859L34.7779 25.2099Z" fill="black"/>
<path d="M5.5859 19.934C5.1819 20.19 4.9959 20.578 5.2319 20.944C5.4639 21.31 5.8819 21.228 5.8819 21.228C6.3299 21.138 6.2999 20.628 6.2699 20.384C6.2079 20.018 5.9239 19.774 5.5859 19.934Z" fill="black"/>
<path d="M34.18 19.9239C33.774 20.1279 33.774 20.4939 33.916 20.7799C34.058 21.0639 34.424 21.1559 34.678 21.0639C35.106 20.8819 34.944 20.4319 34.944 20.3099C34.822 19.9439 34.546 19.7819 34.18 19.9239Z" fill="black"/>
</g>
<defs>
<clipPath id="clip0_7459_1134">
<rect width="40" height="40" fill="white"/>
</clipPath>
</defs>
</svg>
