<svg width="56" height="56" viewBox="0 0 56 56" fill="none" xmlns="http://www.w3.org/2000/svg">
<path d="M42.1679 16.2651C36.8087 15.9711 32.1691 19.5047 31.1219 24.6455L30.7915 24.6511L30.8643 25.6843C30.3799 30.0775 32.4015 34.6527 36.4223 37.2735C41.4063 40.5551 48.2859 39.5247 51.8503 34.5659C55.5743 29.3859 54.2919 22.0667 48.8431 18.6759C46.8103 17.4215 44.4695 16.5339 42.1679 16.2651Z" fill="#77D094" stroke="black" stroke-width="0.56" stroke-linecap="round" stroke-linejoin="round"/>
<path d="M52.6123 24.1443L53.1443 24.4747" stroke="black" stroke-width="0.336" stroke-linecap="round" stroke-linejoin="round"/>
<path d="M52.8921 27.9187L53.8105 28.3247" stroke="black" stroke-width="0.336" stroke-linecap="round" stroke-linejoin="round"/>
<path d="M52.0239 31.332L53.0319 31.724" stroke="black" stroke-width="0.336" stroke-linecap="round" stroke-linejoin="round"/>
<path d="M50.5962 34.188L51.4194 34.5128" stroke="black" stroke-width="0.336" stroke-linecap="round" stroke-linejoin="round"/>
<path d="M48.3838 36.792L48.7366 37.0888" stroke="black" stroke-width="0.336" stroke-linecap="round" stroke-linejoin="round"/>
<path d="M43.4561 18.6201C47.3145 19.8213 50.1033 22.8733 50.1033 27.1853" stroke="black" stroke-width="0.336" stroke-linecap="round" stroke-linejoin="round"/>
<path d="M42.2238 16.3185C41.4454 12.2865 39.1746 8.40289 35.3302 6.23569C29.327 2.76089 21.4646 3.69049 16.8726 9.09729C14.1286 12.3313 12.8798 16.5369 13.3726 20.5605L13.2858 20.5829L13.2802 20.6389C8.75537 21.5629 4.74857 24.4945 2.94537 28.8709C0.324572 35.6749 3.73497 43.0585 10.2926 46.0573C16.5086 48.9049 23.6458 46.1329 27.3502 41.1853C28.8986 39.1469 29.5202 36.6269 29.4222 32.7321C30.1054 32.6089 30.7774 32.4353 31.4298 32.2057C32.6254 34.4989 34.3698 36.9349 38.0322 38.3069C42.1594 39.6621 47.2414 38.2033 50.0666 34.2413C53.5778 29.0249 52.9058 23.0805 49.0838 19.3061" fill="#B1EAD1"/>
<path d="M42.2238 16.3185C41.4454 12.2865 39.1746 8.40289 35.3302 6.23569C29.327 2.76089 21.4646 3.69049 16.8726 9.09729C14.1286 12.3313 12.8798 16.5369 13.3726 20.5605L13.2858 20.5829L13.2802 20.6389C8.75537 21.5629 4.74857 24.4945 2.94537 28.8709C0.324572 35.6749 3.73497 43.0585 10.2926 46.0573C16.5086 48.9049 23.6458 46.1329 27.3502 41.1853C28.8986 39.1469 29.5202 36.6269 29.4222 32.7321C30.1054 32.6089 30.7774 32.4353 31.4298 32.2057C32.6254 34.4989 34.3698 36.9349 38.0322 38.3069C42.1594 39.6621 47.2414 38.2033 50.0666 34.2413C53.5778 29.0249 52.9058 23.0805 49.0838 19.3061" stroke="black" stroke-width="0.56" stroke-linecap="round" stroke-linejoin="round"/>
<path d="M40.7401 24.9339L44.1477 23.2371C44.6041 23.0747 45.7605 23.4023 45.8221 23.6739C45.9285 24.1415 44.1897 30.8895 44.3577 30.9707C44.6881 31.1331 45.6653 31.2143 45.7129 31.5027L45.4497 32.8299L45.2873 32.8803L40.7401 31.9003C40.3677 31.7939 40.3789 31.6287 40.4377 31.2927L40.6505 30.4163C40.7681 30.1755 42.2017 30.6935 42.3137 30.4527L43.4813 25.5667L42.5937 26.2667L42.1037 26.1015L41.2973 24.9563L40.7401 24.9339Z" fill="#FEFFFE" stroke="black" stroke-width="0.336" stroke-linecap="round" stroke-linejoin="round"/>
<path d="M3.92552 28.5881L3.38232 28.4229" stroke="black" stroke-width="0.336" stroke-linecap="round" stroke-linejoin="round"/>
<path d="M3.29834 33.264L2.26514 33.2612" stroke="black" stroke-width="0.336" stroke-linecap="round" stroke-linejoin="round"/>
<path d="M3.76891 37.4919L2.73291 37.7411" stroke="black" stroke-width="0.336" stroke-linecap="round" stroke-linejoin="round"/>
<path d="M5.60579 41.356L4.73779 41.6164" stroke="black" stroke-width="0.336" stroke-linecap="round" stroke-linejoin="round"/>
<path d="M8.65487 44.4641L8.19287 44.7245" stroke="black" stroke-width="0.336" stroke-linecap="round" stroke-linejoin="round"/>
<path d="M12.8548 23.3379C8.68564 24.9255 6.25244 28.5095 6.25244 33.2499C6.25244 38.8387 10.5896 43.8983 16.4976 43.8983C20.1404 43.8983 22.8816 41.9215 25.1972 39.1663" stroke="black" stroke-width="0.336" stroke-linecap="round" stroke-linejoin="round"/>
<path d="M5.4126 25.8747L6.1014 25.4995" stroke="black" stroke-width="0.336" stroke-linecap="round" stroke-linejoin="round"/>
<path d="M33.7402 32.2001C35.1234 34.4317 37.005 36.3021 40.7878 36.3805C44.845 36.3805 48.1126 33.6253 49.843 29.4561" stroke="black" stroke-width="0.336" stroke-linecap="round" stroke-linejoin="round"/>
<path d="M32.7882 4.86648C37.3186 7.21568 41.2526 11.5557 41.7034 17.2509C42.3642 24.6009 37.6406 31.1277 31.4694 32.2617C31.4218 32.2785 31.3714 32.2925 31.321 32.3065C31.3378 32.3429 31.3574 32.3821 31.377 32.4213L30.8618 32.2057C29.4786 32.6089 28.3558 32.7321 26.7262 32.6509C19.9222 32.4213 14.0618 27.1657 13.2974 20.4429L13.2162 20.4597C13.2162 20.4093 13.2078 20.3589 13.205 20.3085L13.2414 20.2973C12.7206 15.7053 14.3362 10.9285 17.9734 7.66088C21.4034 4.70688 25.2002 3.72968 29.1678 4.13568C30.4418 4.23088 31.6486 4.40728 32.7882 4.86648Z" fill="#99DFBD" stroke="black" stroke-width="0.672" stroke-linecap="round" stroke-linejoin="round"/>
<path d="M34.9999 6.47363C38.6371 9.35483 40.7315 13.3196 40.4907 18.9084C40.2471 25.1216 35.4003 31.7632 27.8823 32.2868" stroke="black" stroke-width="0.336" stroke-linecap="round" stroke-linejoin="round"/>
<path d="M38.8638 11.1189L40.0706 11.2813" stroke="black" stroke-width="0.336" stroke-linecap="round" stroke-linejoin="round"/>
<path d="M40.7959 15.4587L41.7983 15.7387" stroke="black" stroke-width="0.336" stroke-linecap="round" stroke-linejoin="round"/>
<path d="M40.7959 20.1292L42.0027 20.37" stroke="black" stroke-width="0.336" stroke-linecap="round" stroke-linejoin="round"/>
<path d="M39.6201 24.6931L40.6225 24.8947" stroke="black" stroke-width="0.336" stroke-linecap="round" stroke-linejoin="round"/>
<path d="M36.708 28.588L37.8308 28.5068" stroke="black" stroke-width="0.336" stroke-linecap="round" stroke-linejoin="round"/>
<path d="M32.8159 31.8921L33.7315 33.3649" stroke="black" stroke-width="0.336" stroke-linecap="round" stroke-linejoin="round"/>
<path d="M14.0698 21.9155C15.047 24.8387 16.2538 27.3867 18.2026 29.1059L17.6902 30.7355C17.399 31.2983 16.8362 31.5615 16.4694 31.2983L15.145 30.4023L16.7186 28.1147C15.2458 26.4879 14.4702 24.5867 14.0698 21.9155Z" fill="#B1EAD1" stroke="black" stroke-width="0.56" stroke-linecap="round" stroke-linejoin="round"/>
<path d="M17.8695 29.988L18.9363 30.772L21.3387 31.668L21.7643 35.3612L23.3827 34.972L23.7635 36.54L23.5227 36.8564L18.1803 38.1836L17.6987 36.7612L17.8303 36.4252L19.6223 35.8904L18.2307 29.988H17.8695Z" fill="#FEFFFE" stroke="black" stroke-width="0.336" stroke-linecap="round" stroke-linejoin="round"/>
<path d="M9.04144 12.9109C8.73904 14.4985 8.53744 15.3217 6.41504 15.8201C7.98304 16.2093 8.33304 17.0745 8.44224 18.4773C8.65504 16.8617 9.21784 16.2289 10.6346 15.7809C9.21784 15.3637 9.06104 14.5405 8.51784 12.9921" fill="#B1EAD1"/>
<path d="M9.25685 13.4231C9.01885 14.7559 8.64085 15.4027 7.24365 15.8199C8.45045 16.1587 8.70245 16.7047 8.73325 17.9395C9.04125 16.5227 9.46685 16.1531 10.5533 15.6827C9.35485 15.3075 9.18685 14.7559 9.01885 13.4231" stroke="black" stroke-width="0.336" stroke-linecap="round" stroke-linejoin="round"/>
<path d="M32.5864 35.8401C32.284 37.4277 32.0824 38.2509 29.96 38.7493C31.528 39.1385 31.878 40.0037 31.9872 41.4065C32.2 39.7909 32.7628 39.1581 34.1796 38.7101C32.7628 38.2929 32.606 37.4697 32.0628 35.9213" fill="#B1EAD1"/>
<path d="M32.7827 36.3721C32.5447 37.7049 32.1667 38.3517 30.7695 38.7689C31.9763 39.1077 32.2283 39.6537 32.2591 40.8885C32.5671 39.4717 32.9927 39.1021 34.0791 38.6317C32.8807 38.2565 32.7127 37.7049 32.5447 36.3721" stroke="black" stroke-width="0.336" stroke-linecap="round" stroke-linejoin="round"/>
<path d="M46.872 10.3628C46.6424 11.6956 46.4744 12.4488 44.7944 12.9444C46.1636 13.2664 46.5444 14.0504 46.7852 15.2852C46.9448 13.7368 47.3424 13.2272 48.5492 12.9024C47.264 12.5748 47.1156 11.8216 46.7852 10.4048" fill="#B1EAD1"/>
<path d="M46.9838 10.7017C46.7906 11.9365 46.5498 12.6393 45.2646 13.0061C46.5498 13.3309 46.6702 13.8433 46.8718 14.9521C47.1126 13.5829 47.429 13.2469 48.353 12.9109C47.191 12.4937 47.1126 11.9785 46.9838 10.7017Z" stroke="black" stroke-width="0.336" stroke-linecap="round" stroke-linejoin="round"/>
<path d="M11.2866 1.87891C10.889 4.20571 10.5138 5.67851 8.14502 6.22171C10.2814 6.71731 11.015 8.03051 11.2866 10.4161C11.5778 7.87091 12.401 6.79851 14.3694 6.22171C12.1518 5.67851 11.911 4.26171 11.2866 1.87891Z" fill="#B1EAD1" stroke="black" stroke-width="0.336" stroke-linecap="round" stroke-linejoin="round"/>
<path d="M42.6442 1.82007C42.2466 4.14687 41.8714 5.45727 39.8022 5.80447C41.6334 6.22167 42.409 7.41447 42.7114 9.74407C43.0418 7.35847 43.781 6.38687 45.6654 5.76527C43.529 5.37607 43.3274 4.14127 42.6442 1.82007Z" fill="#B1EAD1" stroke="black" stroke-width="0.336" stroke-linecap="round" stroke-linejoin="round"/>
<path d="M26.6419 6.97485C20.9495 6.97485 15.9067 12.0737 15.9067 18.5585C15.9067 24.4469 20.2019 29.8789 26.3115 29.7977C32.1719 29.7165 37.4247 24.8949 37.5031 18.5977" fill="#6DD4A6"/>
<path d="M26.6419 6.97485C20.9495 6.97485 15.9067 12.0737 15.9067 18.5585C15.9067 22.3777 17.6987 25.8945 20.6779 27.8069C18.4575 25.8749 17.1947 22.8229 17.1947 19.3985C17.1947 13.4233 21.8147 8.10885 27.5071 8.10885C29.1787 8.10885 30.8111 8.57645 32.1495 9.27365C30.4807 7.76725 28.7363 6.97485 26.6419 6.97485Z" fill="#49A279"/>
<path d="M26.6419 6.97485C20.9495 6.97485 15.9067 12.0737 15.9067 18.5585C15.9067 24.4469 20.2019 29.7977 26.3115 29.7165C32.1719 29.6353 37.2147 24.8137 37.2931 18.5165" stroke="black" stroke-width="0.336" stroke-linecap="round" stroke-linejoin="round"/>
<path d="M37.2121 15.6213C35.6357 10.7157 31.8781 6.97485 26.8438 6.97485" stroke="black" stroke-width="0.336" stroke-linecap="round" stroke-linejoin="round"/>
<path d="M29.5121 12.2697L31.5505 12.1885C31.8697 12.2165 32.0461 12.4405 32.0321 12.8297V21.7309C32.0097 21.9577 32.1133 21.9437 32.2813 21.9437L33.3481 21.9017C33.6337 21.9017 33.7093 22.1509 33.7093 22.3217V23.5789C33.7093 23.8057 33.5497 23.9149 33.3089 23.9149H27.7033C27.4625 23.9149 27.2497 23.8337 27.2497 23.5789V22.3217C27.2497 22.0305 27.3897 21.9017 27.6613 21.9017H29.0725C29.2937 21.9017 29.3413 21.8205 29.3329 21.5797L29.2937 15.4449L28.3165 16.4613C27.7341 16.8309 27.3337 16.3465 26.6645 15.3077C26.4965 15.0389 26.6057 14.8905 26.8073 14.7001L29.3945 12.3509C29.4757 12.2697 29.5121 12.2697 29.5121 12.2697Z" fill="#FEFFFE" stroke="black" stroke-width="0.336" stroke-linecap="round" stroke-linejoin="round"/>
<path d="M21.6189 21.8708L22.7893 21.8988C23.1505 21.8288 23.3017 21.6524 23.2821 21.3388V19.7568C23.2653 19.572 23.3493 19.4908 23.5817 19.4908H24.9593C25.4969 19.4908 25.7377 19.3788 25.7377 18.8468V18.1468C25.7377 17.8108 25.5865 17.5504 25.1665 17.5728H23.6097C23.3689 17.5728 23.3017 17.5168 23.3017 17.2508V15.4868C23.3017 15.2208 23.1477 15.0388 22.8509 15.0388H21.8009C21.4509 15.0388 21.2745 15.1704 21.2745 15.4868V17.2508C21.2745 17.4748 21.2185 17.5728 20.9497 17.5728H19.3817C18.9645 17.5728 18.8833 17.7772 18.8833 18.0936V18.9784C18.8833 19.334 19.1045 19.4908 19.5749 19.4908H20.9497C21.1905 19.4908 21.2185 19.5468 21.2185 19.7708V21.4256C21.2185 21.7168 21.3389 21.8288 21.6189 21.8708Z" fill="#FEFFFE" stroke="black" stroke-width="0.336" stroke-linecap="round" stroke-linejoin="round"/>
<path d="M26.9781 33.572C26.9165 34.468 26.7989 35.532 26.5581 36.3832" stroke="black" stroke-width="0.336" stroke-linecap="round" stroke-linejoin="round"/>
<path d="M11.0154 31.2761L11.8246 31.0241C12.2418 30.9625 12.421 31.1557 12.4826 31.5001L12.827 33.0681C12.855 33.2081 12.9334 33.2669 13.1014 33.2081L14.549 32.7797C15.011 32.6257 15.1062 32.9197 15.2266 33.2669L15.4226 34.1937C15.5038 34.5577 15.2462 34.8461 14.899 34.9273L13.4906 35.3361C13.2974 35.3977 13.275 35.4817 13.3366 35.7057L13.6838 37.1337C13.765 37.4221 13.5634 37.6321 13.2554 37.7133L12.3818 37.9261C12.0542 38.0157 11.791 37.8561 11.7182 37.4921L11.371 36.0361C11.329 35.8401 11.273 35.8065 11.0154 35.8905L9.63785 36.2881C9.28785 36.3917 8.97985 36.1257 8.89865 35.7337L8.75865 35.0197C8.69705 34.6641 8.93785 34.3673 9.28785 34.3057L10.5534 33.9949C10.7942 33.9333 10.8558 33.8297 10.7942 33.6057L10.363 31.8389C10.2818 31.5001 10.573 31.3601 11.0154 31.2761Z" fill="#B1EAD1" stroke="black" stroke-width="0.336" stroke-linecap="round" stroke-linejoin="round"/>
<path d="M15.75 12.6307C16.7972 10.3347 18.6788 8.09472 20.4148 7.50952" stroke="#E1F9F1" stroke-width="0.56" stroke-linecap="round" stroke-linejoin="round"/>
<path d="M15.2065 14.336C15.3073 14.0056 15.4025 13.7984 15.5033 13.7368" stroke="#E1F9F1" stroke-width="0.336" stroke-linecap="round" stroke-linejoin="round"/>
<path d="M22.9574 6.22168C22.6074 6.38128 22.2798 6.54088 22.0166 6.63608" stroke="#E1F9F1" stroke-width="0.336" stroke-linecap="round" stroke-linejoin="round"/>
<path d="M5.32285 33.0401C5.16325 30.8841 5.97805 28.0421 6.89365 26.6365" stroke="#FEFFFE" stroke-width="0.336" stroke-linecap="round" stroke-linejoin="round"/>
</svg>
