<svg preserveAspectRatio="none" width="100%" height="100%" overflow="visible" style="display: block;" viewBox="0 0 24 22.7368" fill="none" xmlns="http://www.w3.org/2000/svg">
<g id="bath-icon.svg" clip-path="url(#clip0_0_9)">
<path id="Vector" fill-rule="evenodd" clip-rule="evenodd" d="M3.47368 3.47368C3.47368 2.60165 4.1806 1.89474 5.05263 1.89474H5.68421C6.44809 1.89474 7.08528 2.43719 7.23158 3.15789H5.68421V5.05263H10.7368V3.15789H9.14373C8.98418 1.38743 7.49622 0 5.68421 0H5.05263C3.13417 0 1.57895 1.55523 1.57895 3.47368V10.7368H0V12.6316H1.57895V16.1053C1.57895 17.9229 2.6028 19.5015 4.10526 20.2958V22.4211H6V20.8317C6.10437 20.8386 6.20967 20.8421 6.31579 20.8421H17.6842C17.7903 20.8421 17.8957 20.8386 18 20.8317V22.4211H19.8947V20.2958C21.3973 19.5015 22.4211 17.9229 22.4211 16.1053V12.6316H24V10.7368H3.47368V3.47368ZM3.47368 16.1053V12.6316H20.5263V16.1053C20.5263 17.6749 19.2538 18.9474 17.6842 18.9474H6.31579C4.74614 18.9474 3.47368 17.6749 3.47368 16.1053Z" fill="var(--fill-0, #414651)"/>
</g>
<defs>
<clipPath id="clip0_0_9">
<rect width="24" height="22.7368" fill="white"/>
</clipPath>
</defs>
</svg>
