<svg preserveAspectRatio="none" width="100%" height="100%" overflow="visible" style="display: block;" viewBox="0 0 24 20.4" fill="none" xmlns="http://www.w3.org/2000/svg">
<g id="sofa-icon.svg">
<path id="Vector" fill-rule="evenodd" clip-rule="evenodd" d="M2.4 2.1C2.4 0.940202 3.3402 0 4.5 0H18.9C20.0598 0 21 0.940201 21 2.1V3H21.3C22.4598 3 23.4 3.9402 23.4 5.1V17.7C23.4 18.8598 22.4598 19.8 21.3 19.8H2.1C0.940202 19.8 0 18.8598 0 17.7V5.1C0 3.9402 0.940202 3 2.1 3H2.4V2.1ZM4.5 1.8C4.33432 1.8 4.2 1.93432 4.2 2.1V7.8H7.2V5.1C7.2 3.9402 8.1402 3 9.3 3H14.1C15.2598 3 16.2 3.9402 16.2 5.1V7.8H19.2V2.1C19.2 1.93432 19.0657 1.8 18.9 1.8H4.5ZM14.4 7.8H9V5.1C9 4.93432 9.13432 4.8 9.3 4.8H14.1C14.2657 4.8 14.4 4.93432 14.4 5.1V7.8ZM2.4 4.8H2.1C1.93432 4.8 1.8 4.93432 1.8 5.1V9.3275L2.4 8.4275V4.8ZM3.78167 9.6L2.18166 12H21.5874L19.6674 9.6H3.78167ZM21 8.38429L21.6 9.13429V5.1C21.6 4.93432 21.4657 4.8 21.3 4.8H21V8.38429ZM1.8 17.7V13.8H21.6V17.7C21.6 17.8657 21.4657 18 21.3 18H2.1C1.93432 18 1.8 17.8657 1.8 17.7Z" fill="var(--fill-0, #414651)"/>
</g>
</svg>
