<svg width="25" height="24" viewBox="0 0 25 24" fill="none" xmlns="http://www.w3.org/2000/svg">
<path d="M8.15 20.9098C8.12 20.9098 8.08 20.9298 8.05 20.9298C6.11 19.9698 4.53 18.3798 3.56 16.4398C3.56 16.4098 3.58 16.3698 3.58 16.3398C4.8 16.6998 6.06 16.9698 7.31 17.1798C7.53 18.4398 7.79 19.6898 8.15 20.9098Z" fill="#0086C9"/>
<path d="M21.44 16.4498C20.45 18.4398 18.8 20.0498 16.79 21.0198C17.17 19.7498 17.49 18.4698 17.7 17.1798C18.96 16.9698 20.2 16.6998 21.42 16.3398C21.41 16.3798 21.44 16.4198 21.44 16.4498Z" fill="#0086C9"/>
<path d="M21.52 7.71047C20.26 7.33047 18.99 7.02047 17.7 6.80047C17.49 5.51047 17.18 4.23047 16.79 2.98047C18.86 3.97047 20.53 5.64047 21.52 7.71047Z" fill="#0086C9"/>
<path d="M8.15001 3.08957C7.79001 4.30957 7.53001 5.54957 7.32001 6.80957C6.03001 7.00957 4.75001 7.32957 3.48001 7.70957C4.45001 5.69957 6.06001 4.04957 8.05001 3.05957C8.08001 3.05957 8.12001 3.08957 8.15001 3.08957Z" fill="#0086C9"/>
<path d="M15.99 6.59C13.67 6.33 11.33 6.33 9.01001 6.59C9.26001 5.22 9.58001 3.85 10.03 2.53C10.05 2.45 10.04 2.39 10.05 2.31C10.84 2.12 11.65 2 12.5 2C13.34 2 14.16 2.12 14.94 2.31C14.95 2.39 14.95 2.45 14.97 2.53C15.42 3.86 15.74 5.22 15.99 6.59Z" fill="#0086C9"/>
<path d="M7.09 15.4898C5.71 15.2398 4.35 14.9198 3.03 14.4698C2.95 14.4498 2.89 14.4598 2.81 14.4498C2.62 13.6598 2.5 12.8498 2.5 11.9998C2.5 11.1598 2.62 10.3398 2.81 9.55977C2.89 9.54977 2.95 9.54977 3.03 9.52977C4.36 9.08977 5.71 8.75977 7.09 8.50977C6.84 10.8298 6.84 13.1698 7.09 15.4898Z" fill="#0086C9"/>
<path d="M22.5 11.9998C22.5 12.8498 22.38 13.6598 22.19 14.4498C22.11 14.4598 22.05 14.4498 21.97 14.4698C20.64 14.9098 19.28 15.2398 17.91 15.4898C18.17 13.1698 18.17 10.8298 17.91 8.50977C19.28 8.75977 20.65 9.07977 21.97 9.52977C22.05 9.54977 22.11 9.55977 22.19 9.55977C22.38 10.3498 22.5 11.1598 22.5 11.9998Z" fill="#0086C9"/>
<path d="M15.99 17.4102C15.74 18.7902 15.42 20.1502 14.97 21.4702C14.95 21.5502 14.95 21.6102 14.94 21.6902C14.16 21.8802 13.34 22.0002 12.5 22.0002C11.65 22.0002 10.84 21.8802 10.05 21.6902C10.04 21.6102 10.05 21.5502 10.03 21.4702C9.59001 20.1402 9.26001 18.7902 9.01001 17.4102C10.17 17.5402 11.33 17.6302 12.5 17.6302C13.67 17.6302 14.84 17.5402 15.99 17.4102Z" fill="#0086C9"/>
<path d="M16.2633 15.7633C13.7622 16.0789 11.2378 16.0789 8.73667 15.7633C8.42111 13.2622 8.42111 10.7378 8.73667 8.23667C11.2378 7.92111 13.7622 7.92111 16.2633 8.23667C16.5789 10.7378 16.5789 13.2622 16.2633 15.7633Z" fill="#0086C9"/>
</svg>
