<svg width="139" height="139" viewBox="0 0 139 139" fill="none" xmlns="http://www.w3.org/2000/svg">
<g clip-path="url(#clip0_7459_1274)">
<path d="M23.3794 77.3575L22.3771 75.575L22.577 73.87L23.0509 71.8703L24.6161 67.1111L27.7492 58.728L32.9445 47.341L39.576 32.5913L41.191 31.3679L49.3165 29.5751L59.3257 27.8159L79.832 25.8606L86.8849 24.9736L88.3978 26.0027L92.3963 30.6985L101.383 42.684L105.388 47.3808L113.314 58.5412L116.187 63.3009L115.007 67.986L112.851 73.5902L107.765 85.7455L101.78 100.807L98.6599 106.894L97.0072 107.698L89.2239 108.958L81.4508 110.478L74.5838 110.683L63.9324 112.177L54.5573 112.903L51.1058 113.162L49.4022 111.824L45.7879 107.291L40.7903 100.456L36.1267 94.8902L32.6651 89.9679L27.067 82.6929L23.3794 77.3575Z" fill="#010202"/>
<path d="M87.1397 26.6953L85.6378 26.0992L83.7069 26.3314L79.9224 26.5695L55.544 29.1152L49.6065 29.9651L42.8421 31.7087L40.465 32.2789L39.0522 34.7537L37.0279 39.6618L33.4954 48.4282L29.7288 58.559L26.4162 67.7306L23.9913 74.6201L23.0467 75.7769L24.3841 78.2315L28.5329 83.4784L31.1173 86.6602L34.6009 91.8331L38.2709 95.9885L41.0992 99.8369L45.212 104.807L48.6146 109.413L51.0651 111.951L54.0473 112.581L56.9369 111.449L61.7964 111.62L67.5357 110.747L74.0158 109.834L78.4774 109.251L79.7102 109.721L82.8261 109.716L86.7634 108.909L90.9088 108.49L96.4561 107.265L97.6961 106.145L99.0959 102.816L101.067 98.7002L104.694 89.4836L107.008 83.2683L110.27 76.3846L112.878 69.6547L114.541 64.2689L114.876 62.1936L112.353 58.2883L105.67 49.2371L100.832 43.8915L93.3539 33.3233L89.2336 28.2288L87.1397 26.6953Z" fill="#67CF9D"/>
<path d="M87.4719 29.1032L85.8293 27.8865L84.0666 27.6433L79.43 27.8806L69.9074 28.6249L56.8522 30.4979L44.8985 32.1019L41.8357 32.6448L40.1583 34.0894L38.4678 37.3215L35.3544 45.2547L30.2023 57.7898L26.4429 68.6111L24.6007 74.5061L24.412 75.8485L25.8426 78.3195L29.7889 83.0611L33.7384 88.7014L36.6781 93.0495L42.1744 99.7553L46.0748 104.445L50.1737 110.438L52.414 112.115L54.8486 111.974L58.5589 111.121L64.2816 110.521L73.2137 109.571L81.764 108.339L88.3496 107.533L95.521 106.556L97.0389 105.319L98.6446 100.728L101.181 94.264L104.374 87.0597L106.455 81.3567L109.451 73.4251L113.033 64.3791L113.007 62.4908L110.109 57.8373L103.185 49.0499L98.6037 44.0438L94.0685 37.1382L87.4719 29.1032Z" fill="#010202"/>
<path d="M86.7692 29.816L85.651 29.2586L83.9808 28.908L77.2708 29.2058L59.5454 31.124L43.9279 33.1421L42.3776 33.6142L41.0446 34.972L39.054 39.4568L34.0754 51.4006L28.8034 65.5741L25.8473 74.4943L25.856 75.8922L30.5223 81.8222L36.4504 90.345L43.0812 98.5156L47.3071 103.511L51.5899 109.633L53.7671 110.767L57.42 110.356L63.6362 109.357L74.2185 108.108L85.4178 106.205L93.7907 104.747L95.2698 103.714L97.4729 98.0736L101.25 89.2772L105.871 77.5422L111.726 65.0651L112.039 62.7393L109.257 58.4835L102.134 49.3185L97.363 43.9399L92.113 36.3204L86.7692 29.816Z" fill="#B0ECC2"/>
<path d="M86.6659 30.3358L85.3681 29.5415L82.9283 29.4383L77.0202 29.7937L63.5644 31.5972L44.4176 34.412L42.8785 35.1367L41.4571 37.2638L33.2749 57.153L28.9262 68.8372L26.8424 74.5362L26.7074 75.5147L30.5391 80.3431L37.9882 90.7588L44.7192 98.9467L47.1667 101.48L52.2654 108.326L53.5574 108.751L58.609 108.479L68.2503 107.08L81.7539 105.339L93.8122 103.849L94.8989 103.199L97.5747 95.9272L102.483 84.7516L107.706 72.0814L111.162 64.0257L111.255 62.5569L107.51 57.1535L99.9375 47.5023L91.9025 38.0524L86.8621 31.1691L86.6659 30.3358Z" fill="#FEFFFE" stroke="#010202" stroke-width="0.743062" stroke-miterlimit="10"/>
<path d="M76.6775 78.9251L77.5745 79.8055L79.0065 79.4727L83.4092 76.1374L87.1742 73.0678L91.592 69.9821L99.9603 63.2512L100.695 61.6446L100.129 59.8976L100.296 60.8718L98.5211 62.303L95.5715 64.5375L93.5115 67.3721L87.8751 71.2939L85.4538 73.3891L81.7282 77.0194L78.6207 79.1932L76.6775 78.9251Z" fill="#010202"/>
<path d="M47.7096 101.18L51.7956 97.9108L57.647 93.1736L63.8919 88.6603L67.1093 87.0993L70.3242 84.4028L74.3618 80.9464L74.9999 79.9347L75.8394 80.0011L76.9454 80.8785L78.0339 80.8059L80.6898 78.8809L83.8778 75.9438L88.7679 72.5874L93.6504 69.1061L99.5129 64.1866L100.988 61.0804L102.101 59.6285L105.725 56.8825L106.019 57.2695L106.405 58.2386L110.701 64.747L110.406 66.6299L107.274 74.7761L103.552 84.5312L98.9417 94.9594L95.903 102.786L94.4341 103.489L87.3236 104.152L73.5316 106.496L59.8683 108.395L53.2309 108.551L51.492 107.084L47.7096 101.18Z" fill="#B0ECC2"/>
<path d="M23.2448 75.8008L23.7494 75.2445L23.275 74.044L23.8294 72.9218" stroke="#FEFFFE" stroke-width="0.371531" stroke-miterlimit="10"/>
<path d="M24.298 71.6286L24.4733 70.7935" stroke="#FEFFFE" stroke-width="0.371531" stroke-miterlimit="10"/>
<path d="M27.1565 63.7453L27.8924 62.0505L28.2444 61.0878L28.7995 60.1142" stroke="#FEFFFE" stroke-width="0.371531" stroke-miterlimit="10"/>
<path d="M30.2228 57.2095L30.4904 56.3977" stroke="#FEFFFE" stroke-width="0.371531" stroke-miterlimit="10"/>
<path d="M45.7471 30.7129L47.9342 30.6221" stroke="#FEFFFE" stroke-width="0.371531" stroke-miterlimit="10"/>
<path d="M49.0469 30.5564L50.4875 30.1611" stroke="#FEFFFE" stroke-width="0.371531" stroke-miterlimit="10"/>
<path d="M75.1787 27.8069L77.2502 27.5552" stroke="#FEFFFE" stroke-width="0.371531" stroke-miterlimit="10"/>
<path d="M99.2881 43.7988L100.464 43.6039" stroke="#67CF9D" stroke-width="0.371531" stroke-miterlimit="10"/>
<path d="M101.604 45.6245L102.597 45.5742" stroke="#67CF9D" stroke-width="0.371531" stroke-miterlimit="10"/>
<path d="M105.743 49.4487L106.21 50.2946" stroke="#67CF9D" stroke-width="0.371531" stroke-miterlimit="10"/>
<path d="M111.6 57.7529L112.558 58.214L112.833 59.037" stroke="#67CF9D" stroke-width="0.371531" stroke-miterlimit="10"/>
<path d="M114.454 62.1777L115.166 62.534L114.83 63.6829" stroke="#67CF9D" stroke-width="0.371531" stroke-miterlimit="10"/>
<path d="M114.09 66.8661L113.875 67.961" stroke="#67CF9D" stroke-width="0.371531" stroke-miterlimit="10"/>
<path d="M113.235 68.4454L113.1 69.4239" stroke="#67CF9D" stroke-width="0.371531" stroke-miterlimit="10"/>
<path d="M109.537 78.0834L109.274 78.8921" stroke="#67CF9D" stroke-width="0.371531" stroke-miterlimit="10"/>
<path d="M106.486 84.3103L106.15 85.0313" stroke="#67CF9D" stroke-width="0.371531" stroke-miterlimit="10"/>
<path d="M104.771 88.034L104.377 88.6799" stroke="#67CF9D" stroke-width="0.371531" stroke-miterlimit="10"/>
<path d="M101.7 98.7486L101.332 99.4192" stroke="#67CF9D" stroke-width="0.371531" stroke-miterlimit="10"/>
<path d="M98.5892 104.897L98.0904 105.821" stroke="#67CF9D" stroke-width="0.371531" stroke-miterlimit="10"/>
<path d="M96.6914 107.453L97.5144 107.177" stroke="#67CF9D" stroke-width="0.371531" stroke-miterlimit="10"/>
<path d="M85.8076 107.992L86.6226 107.903" stroke="#67CF9D" stroke-width="0.371531" stroke-miterlimit="10"/>
<path d="M84.4639 107.58L85.3736 107.419" stroke="#67CF9D" stroke-width="0.371531" stroke-miterlimit="10"/>
<path d="M82.6279 108.101L83.3837 108.057" stroke="#67CF9D" stroke-width="0.371531" stroke-miterlimit="10"/>
<path d="M78.9287 108.977L80.1243 109.128L80.9701 108.661" stroke="#67CF9D" stroke-width="0.371531" stroke-miterlimit="10"/>
<path d="M59.458 112.292L60.1867 112.187" stroke="#67CF9D" stroke-width="0.371531" stroke-miterlimit="10"/>
<path d="M54.4492 111.922L55.055 111.811" stroke="#67CF9D" stroke-width="0.371531" stroke-miterlimit="10"/>
<path d="M30.8916 87.2725L31.2966 87.2329" stroke="#67CF9D" stroke-width="0.371531" stroke-miterlimit="10"/>
<path d="M25.5957 79.594L26.2055 79.4801L26.6272 80.0369" stroke="#67CF9D" stroke-width="0.371531" stroke-miterlimit="10"/>
<path d="M26.459 80.8481L26.9582 80.818" stroke="#67CF9D" stroke-width="0.371531" stroke-miterlimit="10"/>
<path d="M86.0338 32.4552L86.311 31.9842" stroke="#67CF9D" stroke-width="0.371531" stroke-miterlimit="10"/>
<path d="M79.2646 36.9736L79.8902 36.8478" stroke="#DEFAE4" stroke-width="0.371531" stroke-miterlimit="10"/>
<path d="M81.4521 38.5486L81.7372 38.6869" stroke="#DEFAE4" stroke-width="0.371531" stroke-miterlimit="10"/>
<path d="M86.2117 39.8275L86.2134 40.1742" stroke="#DEFAE4" stroke-width="0.371531" stroke-miterlimit="10"/>
<path d="M42.1189 36.4144L42.9915 35.3184L43.7995 35.2283L43.7857 36.6867L42.6078 37.5355L42.1237 37.8153L42.1189 36.4144Z" fill="#B0ECC2"/>
<path d="M42.5934 78.6751C36.1233 70.1342 35.9474 56.6448 47.0273 48.2513C54.7154 42.4273 65.9181 42.6785 73.4044 50.1079L73.424 50.4783L72.391 51.1739L71.4319 50.5395C65.913 45.9451 59.7334 44.4491 53.1959 46.2134C50.9793 46.7739 49.5591 47.3029 47.2966 49.0169C38.5345 55.6545 36.0124 68.708 42.5912 77.7944C48.2853 85.6554 60.0693 90.177 71.1788 82.9792L75.078 79.8078L75.5606 80.2315C74.8385 81.0831 73.9446 81.8721 72.1125 83.26C63.2556 89.9695 49.6409 87.9782 42.5934 78.6751Z" fill="#010202"/>
<path d="M41.7599 76.1239C39.3321 73.5507 39.0421 71.1415 38.9376 69.6173C37.9756 67.568 38.5064 63.7976 39.2481 61.2409L40.2415 61.1905L40.788 60.6895L40.535 59.7812L41.2071 59.4461L41.2536 59.8521L40.8215 60.4466L41.1415 60.6393L41.9169 59.5299L41.6895 58.8196L41.1849 59.3758L40.497 59.1077L40.8526 58.248L41.704 58.3301L41.8937 57.596L41.6893 56.9243L42.3776 56.4464L42.7464 56.6953L43.5338 55.8315L43.9892 55.965L44.6959 54.9947L44.053 54.6054L44.8024 53.4535L45.649 52.1099L47.1313 50.2847L49.658 48.0662L51.1255 47.4765L51.0765 48.421L51.7719 49.6343L51.5386 51.1721L51.8916 52.278L50.7041 54.4268L50.69 56.4262L49.9485 56.5467L49.0738 55.9663L48.3368 54.132L46.7966 53.4033L46.2121 53.4111L46.7747 52.3571L48.0099 51.0672L46.7551 51.5765L45.6139 53.0563L45.202 54.5305L45.8464 54.8316L44.9757 55.2737L44.1228 55.3045L43.1692 56.2444L42.6804 56.1734L42.1912 57.2339L41.8449 56.7194L42.483 55.9128L43.1489 55.9304L43.749 55.0408L43.6463 54.5033L44.4929 53.1597L43.6826 53.5996L43.0686 54.8975L42.6169 54.7114L41.8821 56.0138L41.6175 56.8295L41.187 56.7206L40.7473 57.9859L40.9842 58.4217L40.2599 58.6224L40.0826 59.2415L40.0494 58.7383L40.0716 58.1933L39.6404 58.7809L39.5481 59.9633L39.2402 60.0163C40.1238 56.0718 42.6432 52.3424 46.7063 49.2643C51.0854 45.947 56.4434 45.1197 61.2599 45.8089L61.3443 46.2731L60.7038 46.5843L58.7154 46.1827L57.6026 46.7647L57.08 49.5532L57.6529 50.8345L59.3776 51.1997L59.3614 51.9577L58.679 52.2137L56.9947 51.7868L56.8403 52.4445L57.9142 53.4518L57.0154 53.4304L56.7265 54.5256L57.6266 54.6392L57.6425 53.8316L59.0151 54.1094L59.2386 54.6423L58.1257 54.9944L58.1486 55.8533L58.7991 56.3674L59.3866 55.7483L60.1984 55.8355L59.9797 56.7035L59.1292 57.4348L59.5227 58.2988L60.4361 58.7007L61.3763 57.8579L61.7913 56.1826L62.2888 54.165L63.7692 53.7893L64.6871 54.0821L64.7133 54.5843L62.7849 54.3112L63.7061 54.8873L63.6525 55.276L62.426 56.1181L61.826 57.623L60.5655 58.4038L60.6823 61.4786L61.8164 63.6647L64.0362 65.0034L64.58 65.5982L64.1648 64.3528L64.5719 63.2987L68.3405 60.3568L72.1368 57.2137L70.8864 54.9231L71.2329 53.8465L73.3891 51.8526L76.0229 49.8574L77.5952 49.6606L78.5416 50.1059L79.8532 51.7224L83.2176 48.9935L87.4596 46.4388L89.1351 46.4683L90.874 47.9352L92.5581 50.1583L97.0738 56.6934L99.6895 59.8018L100.532 61.9229L99.8798 63.113L94.812 67.2193L89.3764 71.0698L84.0242 75.3915L78.4827 79.6764L77.0251 80.2462L74.9563 78.9919L70.3136 72.4039L65.8111 66.7475L64.4417 64.6527L62.8062 64.2821L61.6615 63.6079L60.7648 61.7268L60.5746 59.0557L61.2253 57.7735L62.81 56.0261L63.9034 55.3283L64.9023 56.1874L65.933 55.8416L66.1583 54.4901L67.1173 54.0496L68.7333 53.4592L68.9536 52.7082L68.1924 51.8182L66.8214 52.6828L66.3583 53.4251L65.4105 53.0928L65.1976 51.4581L66.0607 50.4562L67.5076 50.3482L67.7012 50.0213L66.556 49.8386" fill="#67CF9D"/>
<path d="M41.7599 76.1239C39.3321 73.5507 39.0421 71.1415 38.9376 69.6173C37.9756 67.568 38.5064 63.7976 39.2481 61.2409L40.2415 61.1905L40.788 60.6895L40.535 59.7812L41.2071 59.4461L41.2536 59.8521L40.8215 60.4466L41.1415 60.6393L41.9169 59.5299L41.6895 58.8196L41.1849 59.3758L40.497 59.1077L40.8526 58.248L41.704 58.3301L41.8937 57.596L41.6893 56.9243L42.3776 56.4464L42.7464 56.6953L43.5338 55.8315L43.9892 55.965L44.6959 54.9947L44.053 54.6054L44.8024 53.4535L45.649 52.1099L47.1313 50.2847L49.658 48.0662L51.1255 47.4765L51.0765 48.421L51.7719 49.6343L51.5386 51.1721L51.8916 52.278L50.7041 54.4268L50.69 56.4262L49.9485 56.5467L49.0738 55.9663L48.3368 54.132L46.7966 53.4033L46.2121 53.4111L46.7747 52.3571L48.0099 51.0672L46.7551 51.5765L45.6139 53.0563L45.202 54.5305L45.8464 54.8316L44.9757 55.2737L44.1228 55.3045L43.1692 56.2444L42.6804 56.1734L42.1912 57.2339L41.8449 56.7194L42.483 55.9128L43.1489 55.9304L43.749 55.0408L43.6463 54.5033L44.4929 53.1597L43.6826 53.5996L43.0686 54.8975L42.6169 54.7114L41.8821 56.0138L41.6175 56.8295L41.187 56.7206L40.7473 57.9859L40.9842 58.4217L40.2599 58.6224L40.0826 59.2415L40.0494 58.7383L40.0716 58.1933L39.6404 58.7809L39.5481 59.9633L39.2402 60.0163C40.1238 56.0718 42.6432 52.3424 46.7063 49.2643C51.0854 45.947 56.4434 45.1197 61.2599 45.8089L61.3443 46.2731L60.7038 46.5843L58.7154 46.1827L57.6026 46.7647L57.08 49.5532L57.6529 50.8345L59.3776 51.1997L59.3614 51.9577L58.679 52.2137L56.9947 51.7868L56.8403 52.4445L57.9142 53.4518L57.0154 53.4304L56.7265 54.5256L57.6266 54.6392L57.6425 53.8316L59.0151 54.1094L59.2386 54.6423L58.1257 54.9944L58.1486 55.8533L58.7991 56.3674L59.3866 55.7483L60.1984 55.8355L59.9797 56.7035L59.1292 57.4348L59.5227 58.2988L60.4361 58.7007L61.3763 57.8579L61.7913 56.1826L62.2888 54.165L63.7692 53.7893L64.6871 54.0821L64.7133 54.5843L62.7849 54.3112L63.7061 54.8873L63.6525 55.276L62.426 56.1181L61.826 57.623L60.5655 58.4038L60.6823 61.4786L61.8164 63.6647L64.0362 65.0034L64.58 65.5982L64.1648 64.3528L64.5719 63.2987L68.3405 60.3568L72.1368 57.2137L70.8864 54.9231L71.2329 53.8465L73.3891 51.8526L76.0229 49.8574L77.5952 49.6606L78.5416 50.1059L79.8532 51.7224L83.2176 48.9935L87.4596 46.4388L89.1351 46.4683L90.874 47.9352L92.5581 50.1583L97.0738 56.6934L99.6895 59.8018L100.532 61.9229L99.8798 63.113L94.812 67.2193L89.3764 71.0698L84.0242 75.3915L78.4827 79.6764L77.0251 80.2462L74.9563 78.9919L70.3136 72.4039L65.8111 66.7475L64.4417 64.6527L62.8062 64.2821L61.6616 63.6079L60.7648 61.7268L60.5746 59.0557L61.2253 57.7735L62.81 56.0261L63.9034 55.3283L64.9023 56.1874L65.933 55.8416L66.1583 54.4901L67.1173 54.0496L68.7333 53.4592L68.9536 52.7082L68.1924 51.8182L66.8214 52.6828L66.3583 53.4251L65.4105 53.0928L65.1976 51.4581L66.0607 50.4562L67.5076 50.3482L67.7012 50.0213L66.556 49.8386" stroke="#010202" stroke-width="0.495375" stroke-miterlimit="10"/>
<path d="M52.5724 52.8811L53.0337 52.7927L53.7329 52.1325L53.679 51.4214L53.2088 51.498L52.4968 52.404L52.5724 52.8811Z" fill="#67CF9D" stroke="#010202" stroke-width="0.495375" stroke-miterlimit="10"/>
<path d="M59.3427 47.8392L59.3566 48.6614L60.0648 49.2436L60.8938 49.1811L61.4771 48.1053L61.4677 49.2497L61.0595 50.6714L60.501 51.3617L59.9736 51.494L59.8093 50.506L58.7783 49.547" fill="#67CF9D"/>
<path d="M59.3427 47.8392L59.3566 48.6614L60.0648 49.2436L60.8938 49.1811L61.4771 48.1053L61.4677 49.2497L61.0595 50.6714L60.501 51.3617L59.9736 51.494L59.8093 50.506L58.7783 49.547" stroke="#010202" stroke-width="0.495375" stroke-miterlimit="10"/>
<path d="M42.3173 58.7858L42.8061 58.8567L43.4119 58.1306L43.1817 57.6462L42.5628 57.7235L42.063 58.4501L42.3173 58.7858Z" fill="#67CF9D" stroke="#010202" stroke-width="0.495375" stroke-miterlimit="10"/>
<path d="M43.7565 57.9129L43.9251 57.1265L44.7883 56.5595L46.5163 56.5681L46.9718 57.3417L46.6258 58.132L45.7521 57.9549L45.0256 57.4798L44.4973 58.054L43.7565 57.9129Z" fill="#67CF9D" stroke="#010202" stroke-width="0.495375" stroke-miterlimit="10"/>
<path d="M42.9246 62.7628L42.8497 61.6139L43.5725 60.2709L44.4731 60.0734L45.1586 60.2563L45.3221 59.4303L46.0364 59.0196L47.1846 59.0012L48.5216 60.1262L49.3438 60.2927L50.1417 61.4035L49.7516 61.873L48.7941 61.7656L48.8474 62.558L48.3774 63.0943L48.7588 63.5075L49.5563 63.0836L48.5207 64.2597L48.0576 67.4631L48.2154 69.5746L48.9923 70.4279L48.8118 71.2233L47.4906 70.9067L45.6617 72.5532L45.9111 74.3592L46.733 75.0914L47.5665 74.9447L47.9494 73.6043L48.682 73.2669L49.3923 74.0898L50.5234 74.2211L51.0778 73.0988L51.9881 72.6516L52.4975 71.6505" fill="#67CF9D"/>
<path d="M42.9252 62.7627L42.8503 61.6137L43.5731 60.2708L44.4737 60.0732L45.1592 60.2562L45.3227 59.4301L46.037 59.0195L47.1852 59.001L48.5222 60.1261L49.3444 60.2925L50.1423 61.4033L49.7522 61.8728L48.7947 61.7655L48.848 62.5578L48.378 63.0941L48.7594 63.5074L49.5569 63.0835L48.5213 64.2595L48.0582 67.4629L48.216 69.5744L48.9929 70.4277L48.8124 71.2232L47.4912 70.9065L45.6622 72.5531L45.9117 74.359L46.7336 75.0912L47.5671 74.9445L48.2462 73.9951L49.0624 73.7682L49.5844 74.3423L51.1595 74.7152L50.9132 75.4238L49.6029 75.7204L48.1392 75.4372L45.3794 76.1668L43.7758 75.6414L41.6928 73.9008L42.4807 75.8022" fill="#67CF9D"/>
<path d="M42.9252 62.7627L42.8503 61.6137L43.5731 60.2708L44.4737 60.0732L45.1592 60.2562L45.3227 59.4301L46.037 59.0195L47.1852 59.001L48.5222 60.1261L49.3444 60.2925L50.1423 61.4033L49.7522 61.8728L48.7947 61.7655L48.848 62.5578L48.378 63.0941L48.7594 63.5074L49.5569 63.0835L48.5213 64.2595L48.0582 67.4629L48.216 69.5744L48.9929 70.4277L48.8124 71.2232L47.4912 70.9065L45.6622 72.5531L45.9117 74.359L46.7336 75.0912L47.5671 74.9445L48.2462 73.9951L49.0624 73.7682L49.5844 74.3423L51.1595 74.7152L50.9132 75.4238L49.6029 75.7204L48.1392 75.4372L45.3794 76.1668L43.7758 75.6414L41.6928 73.9008L42.4807 75.8022" stroke="#010202" stroke-width="0.495375" stroke-miterlimit="10"/>
<path d="M52.7721 76.278L53.4235 78.2207L56.3946 79.6242L58.33 79.7179L59.8903 80.7111L62.1702 83.0234L65.2962 84.4836L67.1343 83.9239L65.6246 83.1534L64.7273 81.9688L64.9567 81.0493L64.2186 80.2474L64.7319 79.4235L64.1908 77.7577L64.7033 75.9649L63.2956 73.5325L63.2289 72.222L62.1935 71.8069L60.5011 72.3867L59.3009 72.7056L57.8869 72.0614L56.3015 72.4297L55.0777 72.176L53.7958 73.2403L53.1577 74.252L52.4058 74.4736L52.7721 76.278Z" fill="#67CF9D" stroke="#010202" stroke-width="0.495375" stroke-miterlimit="10"/>
<path d="M64.8278 64.3171L65.4474 63.9783L66.2694 63.0945L67.1652 62.0865L67.6681 63.6446L67.33 65.2493L66.3413 66.0853L64.8278 64.3171Z" fill="#67CF9D" stroke="#010202" stroke-width="0.495375" stroke-miterlimit="10"/>
<path d="M86.2305 47.9734L87.1146 47.4341L88.2677 46.9956L89.5326 47.1312L90.6653 48.2245L89.485 48.9881L87.8704 48.8502L86.2305 47.9734Z" fill="#67CF9D" stroke="#010202" stroke-width="0.495375" stroke-miterlimit="10"/>
<path d="M74.9199 77.5229L76.5278 77.0941L78.4258 77.4338L79.6445 78.4682L77.7717 79.6631L76.4753 79.3464L74.9199 77.5229Z" fill="#67CF9D" stroke="#010202" stroke-width="0.495375" stroke-miterlimit="10"/>
<path d="M98.7173 59.3703L97.8842 60.4364L97.3439 62.0202L97.8578 63.8061L99.7879 62.17L99.9078 60.9419L98.7173 59.3703Z" fill="#67CF9D" stroke="#010202" stroke-width="0.495375" stroke-miterlimit="10"/>
<path d="M68.9082 60.9583L74.029 67.2586L81.5723 77.0685" stroke="#010202" stroke-width="0.495375" stroke-miterlimit="10"/>
<path d="M70.9787 59.2602L75.8935 65.9777L83.427 75.3973" stroke="#010202" stroke-width="0.495375" stroke-miterlimit="10"/>
<path d="M81.9473 50.77L87.395 57.264L94.4365 66.9693" stroke="#010202" stroke-width="0.495375" stroke-miterlimit="10"/>
<path d="M84.1802 49.0413L89.3438 55.5703L96.3451 65.3868" stroke="#010202" stroke-width="0.495375" stroke-miterlimit="10"/>
<path d="M73.3427 56.4747L72.5006 55.2482L72.7682 54.4364L76.9183 51.1123L77.8147 51.0485L78.9655 52.3954" stroke="#010202" stroke-width="0.495375" stroke-miterlimit="10"/>
<path d="M75.6004 57.0761L80.4801 53.2055" stroke="#010202" stroke-width="0.123844" stroke-miterlimit="10"/>
<path d="M68.7051 67.6628L71.4271 71.2561" stroke="#010202" stroke-width="0.247687" stroke-miterlimit="10"/>
<path d="M72.0381 72.0618L72.7141 72.9542" stroke="#010202" stroke-width="0.247687" stroke-miterlimit="10"/>
<path d="M84.5555 73.0814L90.792 68.27" stroke="#010202" stroke-width="0.247687" stroke-miterlimit="10"/>
<path d="M90.4902 50.2336L91.1453 51.0984" stroke="#010202" stroke-width="0.247687" stroke-miterlimit="10"/>
<path d="M94.2765 54.9037L97.4912 59.3605" stroke="#010202" stroke-width="0.371531" stroke-miterlimit="10"/>
<path d="M90.3538 92.0561L93.4609 89.3978L92.7109 88.5801L90.6075 90.4221L88.9879 88.6287L90.4942 87.27L89.8317 86.5103L88.2968 87.8969L86.986 86.4537L88.8994 84.6562L88.2113 83.9283L85.4419 86.5731L90.3538 92.0561Z" fill="black"/>
<path d="M95.6914 87.4534L96.6808 86.3558L94.0668 84.2095L92.18 79.6105L91.252 80.4938L92.9201 84.1397L89.3529 82.8025L88.4823 83.6796L93.2725 85.3022L95.6914 87.4534Z" fill="black"/>
<path d="M98.7479 80.1663C100.304 81.0633 101.658 80.0373 102.173 79.1253C102.804 77.9889 102.808 76.4938 101.029 75.4492L98.0528 73.8505C96.1542 72.7718 94.9561 73.9467 94.5191 74.7562C93.9268 75.8202 93.8935 77.1381 95.584 78.2128L98.7479 80.1663ZM98.9502 78.9566L95.6513 76.981C94.7847 76.4194 94.898 75.6748 95.3009 75.1894C95.7846 74.6055 96.6174 74.7204 97.3717 75.1993L100.416 76.97C101.619 77.73 101.273 78.6511 100.931 78.954C100.452 79.3724 99.7661 79.4758 98.9502 78.9566Z" fill="black"/>
<path d="M104.329 74.5714L104.802 73.3495L99.3214 71.1684L105.534 71.0424L105.992 70.0306L98.6809 67.1728L98.2103 68.4056L103.354 70.4129L97.4739 70.4115L97.1788 71.474L104.329 74.5714Z" fill="black"/>
<path d="M58.7389 102.458L58.9636 103.444C59.4044 105.067 60.9173 105.276 61.9676 104.891C63.2089 104.454 63.7481 103.262 63.5346 101.938L62.1486 95.9659L61.0972 96.5387L62.0531 102.066C62.3048 103.318 61.6758 103.751 61.1629 103.828C60.5322 103.915 60.0247 103.647 59.6985 102.576L58.7389 102.458Z" fill="black"/>
<path d="M65.0961 102.489C65.6384 104.428 67.3448 104.49 68.3299 104.141C69.5565 103.734 70.5189 102.576 69.9556 100.61L69.071 97.3343C68.4873 95.2594 66.7766 95.3311 65.8744 95.6168C64.7071 95.9791 63.7575 96.916 64.1563 98.8698L65.0961 102.489ZM66.2604 101.918L65.3684 98.3369C65.0638 97.2128 65.6498 96.7067 66.2687 96.6294C67.0993 96.5036 67.6355 97.1539 67.8719 98.1059L68.6928 101.511C69.0394 102.92 68.0991 103.328 67.6067 103.31C66.9407 103.267 66.4778 102.829 66.2604 101.918Z" fill="black"/>
<path d="M71.9012 100.504C72.624 102.262 74.3589 102.067 75.1959 101.613C76.3798 100.977 76.9831 99.7308 76.3488 98.2537L73.9768 93.2766L72.7684 93.757L75.0484 98.9654C75.5953 100.204 74.836 100.736 74.3629 100.833C73.6214 100.954 73.1759 100.62 72.7442 99.6482L70.7603 94.6257L69.5726 95.0841L71.9012 100.504Z" fill="black"/>
<path d="M78.9973 100.1L80.2404 99.4196L78.8924 96.6311L79.8686 96.0657L82.3419 98.4118L83.459 97.696L80.578 95.0497C80.9749 94.3513 80.9625 93.4161 80.3418 92.4818C79.5655 91.3422 78.4396 91.0702 77.2621 91.7882L75.4204 92.8354L78.9973 100.1ZM78.3742 95.5943L77.1714 93.1123L78.0488 92.6216C78.7486 92.2655 79.3018 92.7662 79.5712 93.3514C79.9817 94.2461 79.7239 94.8329 79.2082 95.1365L78.3742 95.5943Z" fill="black"/>
<path d="M84.9216 96.8551L85.9549 96.0288L82.9245 91.5691L87.7934 94.723L88.8268 93.8967L84.0571 87.4857L83.0559 88.182L86.1938 92.554L81.2106 89.5364L80.308 90.1332L84.9216 96.8551Z" fill="black"/>
<path d="M72.3344 57.195L70.9125 54.4812L71.5735 53.2782L75.6289 50.0258L77.3938 49.4843L78.4753 49.8209L79.9485 51.6507" stroke="#010202" stroke-width="0.99075" stroke-miterlimit="10"/>
</g>
<defs>
<clipPath id="clip0_7459_1274">
<rect width="99.075" height="99.075" fill="white" transform="translate(0 59.8257) rotate(-37.1456)"/>
</clipPath>
</defs>
</svg>
