<svg width="56" height="56" viewBox="0 0 56 56" fill="none" xmlns="http://www.w3.org/2000/svg">
<path d="M22.5985 1.68282C20.9745 1.57082 19.9161 3.17522 18.8661 3.82202C17.8189 4.46882 17.4241 4.30362 15.1505 3.94802C13.0673 3.62322 12.0761 4.53042 11.3229 6.64442C10.8385 8.09482 10.4745 8.64642 9.18089 9.14482C7.36649 9.85602 5.61649 10.1416 5.35049 12.3004C5.19369 13.6332 5.99449 15.1284 5.61649 16.2736C5.12649 17.836 3.10209 19.3172 3.27289 20.9272C3.43809 22.4812 4.92489 23.5844 5.56329 24.9256C6.14569 26.1828 4.81849 28.4788 5.65009 29.9768C6.48449 31.4748 8.10849 31.6596 9.41049 32.2364C10.9337 32.9224 10.8497 34.3056 11.5889 35.6244C11.9305 36.2936 11.6337 36.3328 11.1969 37.618C10.3793 40.1072 6.68609 49.0392 6.59929 50.1032C6.52929 51.0384 6.84009 50.9852 7.74729 50.5428L13.8009 47.8184C14.6157 48.9216 15.9233 53.144 16.8165 54.3732C17.3905 55.0452 17.6789 54.2668 17.9421 53.55C18.9781 50.6604 19.2021 49.3668 20.4173 46.6228C21.3609 44.5452 21.9685 41.9804 22.3521 40.9248C23.2705 43.3552 24.3569 45.9312 25.4601 48.6892C25.9921 50.0304 26.6361 52.8472 27.4257 54.376C27.7981 54.8128 27.9941 54.3676 28.2657 53.816C29.4529 51.4304 30.1837 49.8428 30.8753 48.3084C32.5749 48.8236 35.9209 50.5848 37.3713 50.9012C38.1945 51.0776 38.1581 50.3776 37.8809 49.7336L32.7065 36.6632L33.7733 33.3228C34.7057 34.1124 35.3049 34.7116 36.6377 35.2548C36.4137 36.4028 36.3969 38.0632 36.3213 38.948C36.2513 39.8048 36.8897 40.2192 37.6709 41.1796L44.9649 48.8516C45.2505 49.1512 45.3485 48.9328 45.6705 48.6528C47.8293 46.7964 50.9681 44.1252 52.4913 42.5376C52.8861 42.1176 52.6929 41.7704 52.4185 41.4596C50.3857 39.1188 47.0733 35.2744 44.4525 32.788C44.0129 32.3316 43.7049 32.3652 43.0889 32.3736L39.8045 32.3652C39.3145 31.402 38.9533 30.8476 38.4381 30.4108C39.0233 29.9264 39.1017 28.7252 38.8413 27.1852C38.5949 25.6872 38.5809 25.2504 39.6925 23.7776C40.8069 22.3048 41.4733 21.5824 41.0785 20.1068C40.7425 18.7824 39.1465 17.766 38.8413 16.3044C38.5949 15.0836 39.3985 13.6724 38.9785 11.9532C38.5949 10.1948 36.7413 9.80562 35.4701 9.28762C33.9021 8.66042 33.8013 7.68042 33.2301 6.06202C32.4769 3.86682 31.2085 3.42442 29.4613 3.67922C27.4621 3.97882 27.1317 4.19442 25.9165 3.19482C24.9365 2.37722 24.1665 1.78362 22.5985 1.68282Z" fill="black"/>
<path d="M22.6103 2.43029C20.9835 2.29589 19.8915 4.56669 18.1611 4.94189C16.5539 5.30029 15.6831 4.59469 14.2103 4.56669C12.7375 4.53869 12.3931 5.80989 11.7715 7.32469C10.8671 9.59269 9.91786 9.95109 7.75066 10.5867C6.09586 11.0963 5.89426 12.1043 6.37026 13.7563C6.99466 16.0075 6.64746 16.7243 5.07666 18.7123C3.58706 20.6135 4.11346 21.3751 5.60306 23.1503C6.91066 24.7127 6.79306 25.2139 6.37026 27.4735C5.82706 30.3631 7.29986 30.6207 9.72186 31.4747C11.5699 32.1635 11.5391 33.5607 12.2391 35.1763C12.9055 36.7387 14.0479 36.6827 15.9659 36.3271C17.7775 35.9883 18.4271 36.3859 19.2027 37.0187C20.5075 38.0183 21.1991 38.7743 22.4451 38.6987C23.5819 38.6287 24.6347 37.3267 25.4383 36.8507C26.9447 36.0023 27.5215 36.4251 29.4395 36.6267C31.4387 36.8367 32.1219 36.2067 32.7743 33.9555C33.2895 32.0543 34.6811 31.5867 36.1147 31.0015C37.3831 30.4863 37.6771 30.3015 37.0247 29.6127C36.0923 28.6187 34.6391 27.5435 34.1771 27.7143C31.8839 31.1583 28.4539 34.4315 22.5767 34.4315C15.4927 34.4315 8.42546 29.3831 8.42546 20.7983C8.42546 13.7423 13.9219 6.78989 22.1483 6.78989C29.6999 6.78989 36.0531 12.3843 36.0531 20.6919C36.0531 23.5507 35.2355 25.7571 34.4599 27.1151C35.5491 27.4427 36.7279 28.3919 37.7919 29.7107C38.4275 29.1311 38.1279 28.0615 37.8227 26.3647C37.5147 24.5559 38.7019 23.7383 39.6707 22.3075C41.0203 20.5603 40.0039 19.5327 38.9007 18.1215C37.7247 16.6235 37.6519 16.0215 38.1671 13.4763C38.5031 11.5751 37.7135 10.9031 36.4451 10.3907C35.0535 9.83349 33.6227 9.64869 32.8583 7.74749C32.2059 6.01429 31.9959 4.29509 29.8595 4.45189C28.0171 4.59469 27.2527 5.09309 25.8723 4.30629C24.6207 3.60629 24.0355 2.54509 22.6103 2.43029Z" fill="#69D89D"/>
<path d="M21.0808 7.40869C16.8164 7.40869 9.5 11.6311 9.5 20.7367C9.5 27.7731 15.0496 33.4963 22.3212 33.4963C28.6044 33.4963 35.1312 28.4787 35.1312 20.6359C35.1312 17.1667 33.3308 13.1851 32.0624 11.8495C31.7012 11.5667 31.3904 11.5947 30.9816 11.1551C28.3188 8.42789 24.746 7.40869 21.0808 7.40869Z" fill="#FEFFFE"/>
<path d="M15.3273 11.3177C12.8269 12.7905 10.6177 16.2261 10.5449 20.4877C10.5449 21.0449 10.6821 21.0869 10.7801 20.5297C11.1161 17.2957 12.5469 14.3221 15.3245 11.7069C15.7221 11.3037 15.7361 11.0741 15.3273 11.3177Z" fill="black"/>
<path d="M18.519 9.61518C17.9618 9.71598 17.2254 10.0548 16.7662 10.416C16.4302 10.6568 16.5226 10.6988 16.8586 10.5728C17.6902 10.2032 18.1018 10.0604 18.5246 9.84478C18.813 9.69078 18.841 9.55078 18.519 9.61518Z" fill="black"/>
<path d="M33.0962 24.5251C32.819 25.0375 32.6258 25.5667 32.3962 26.0203C32.2898 26.2471 32.511 26.1771 32.6482 25.9643C32.9534 25.4379 33.1578 24.9395 33.3062 24.5391C33.3622 24.3263 33.239 24.2843 33.0962 24.5251Z" fill="black"/>
<path d="M32.928 27.3139C32.1244 27.2299 31.864 27.7003 31.8052 28.3023C31.7492 28.9463 31.85 29.3719 31.9368 29.2571L33.0512 27.4707C33.166 27.3139 33.138 27.3279 32.928 27.3139Z" fill="#FEFFFE"/>
<path d="M37.576 32.5359C37.1952 32.5219 37.0244 32.8075 37.0244 33.2611C36.9796 35.1903 37.0524 36.4335 37.2624 39.1747C37.2624 39.4043 45.1024 48.0171 45.2872 48.1907C45.43 48.3195 51.7832 42.1763 51.856 42.0055C51.9708 41.8347 43.9992 33.1211 43.8396 32.9923C43.6968 32.8635 38.0912 32.5667 37.576 32.5359Z" fill="#B3EAC7" stroke="black" stroke-width="0.63868" stroke-miterlimit="10"/>
<path d="M33.9357 32.592C34.6273 33.4348 35.6129 34.1348 36.5649 34.3756L36.5957 35.0476C35.2041 34.5044 34.3669 33.8156 33.6025 33.2332L33.9357 32.592Z" fill="black"/>
<path d="M39.9275 34.356C38.8859 34.356 38.5947 35.588 38.9279 36.1312C39.4431 36.988 40.5911 37.1868 41.1203 36.316C41.7727 35.4116 41.3471 34.356 39.9275 34.356Z" fill="black"/>
<path d="M39.8443 34.9999C39.2703 34.9719 39.0995 35.6019 39.3319 35.9295C39.7127 36.4279 40.3091 36.1591 40.4939 35.7867C40.7039 35.3471 40.4575 35.0335 39.8443 34.9999Z" fill="#B3EAC7" stroke="black" stroke-width="0.35952" stroke-miterlimit="10"/>
<path d="M39.5361 34.328C38.8837 31.4972 37.2597 30.1 36.4561 29.5876L37.1673 29.3748C38.9789 30.8448 39.9505 32.8608 40.1801 34.0732L39.5361 34.328Z" fill="black"/>
<path d="M7.50977 49.728L13.695 47.1268C14.1346 46.928 14.1626 47.0288 14.4986 47.5692L16.8786 53.0516L21.8374 39.6956L21.591 39.368C20.7006 39.0264 20.2134 38.4244 19.1102 37.5032C18.399 36.9908 18.0182 37.0188 17.489 37.1056C16.439 37.2764 16.0022 37.604 14.2858 37.5172C13.3394 37.4612 13.0062 37.2204 12.6702 37.0636L7.50977 49.728Z" fill="#69D89D" stroke="black" stroke-width="0.35952" stroke-miterlimit="10"/>
<path d="M22.3662 39.5641L27.6106 53.4493L30.167 47.5917C30.4722 46.9029 30.7186 47.0737 31.1554 47.2893L37.0242 49.7225L32.2222 36.9573L31.8862 37.3157C31.1946 37.5705 30.755 37.6993 30.0186 37.5425C28.8146 37.2877 27.6106 36.8705 26.807 37.1001C25.813 37.3997 24.7126 38.8865 23.6906 39.1861L22.3662 39.5641Z" fill="#69D89D" stroke="black" stroke-width="0.35952" stroke-miterlimit="10"/>
<path d="M12.2246 39.144L13.0814 37.2512" stroke="black" stroke-width="0.2016" stroke-miterlimit="10" stroke-linecap="round"/>
<path d="M13.2188 39.508L14.2268 37.52" stroke="black" stroke-width="0.2016" stroke-miterlimit="10" stroke-linecap="round"/>
<path d="M14.4902 39.6759L15.431 37.5171" stroke="black" stroke-width="0.2016" stroke-miterlimit="10" stroke-linecap="round"/>
<path d="M15.7979 39.508L16.8591 37.2456" stroke="black" stroke-width="0.2016" stroke-miterlimit="10" stroke-linecap="round"/>
<path d="M16.8311 40.264L18.0603 37.4136" stroke="black" stroke-width="0.2016" stroke-miterlimit="10" stroke-linecap="round"/>
<path d="M17.7939 40.544L19.0147 37.8728" stroke="black" stroke-width="0.2016" stroke-miterlimit="10" stroke-linecap="round"/>
<path d="M18.6729 41.3281L19.7761 38.5869" stroke="black" stroke-width="0.2016" stroke-miterlimit="10" stroke-linecap="round"/>
<path d="M19.4062 41.608L20.6663 39.0208" stroke="black" stroke-width="0.2016" stroke-miterlimit="10" stroke-linecap="round"/>
<path d="M19.9219 42.5879L21.5627 39.3091" stroke="black" stroke-width="0.2016" stroke-miterlimit="10" stroke-linecap="round"/>
<path d="M24.1221 38.8081L25.8581 42.0897" stroke="black" stroke-width="0.2016" stroke-miterlimit="10" stroke-linecap="round"/>
<path d="M24.9258 38.332L26.5218 41.23" stroke="black" stroke-width="0.2016" stroke-miterlimit="10" stroke-linecap="round"/>
<path d="M25.791 37.6321L27.5074 40.6197" stroke="black" stroke-width="0.2016" stroke-miterlimit="10" stroke-linecap="round"/>
<path d="M27.0596 37.1841L28.5072 39.9897" stroke="black" stroke-width="0.2016" stroke-miterlimit="10" stroke-linecap="round"/>
<path d="M28.168 37.324L29.4364 39.83" stroke="black" stroke-width="0.2016" stroke-miterlimit="10" stroke-linecap="round"/>
<path d="M29.4561 37.4919L30.8729 39.8691" stroke="black" stroke-width="0.2016" stroke-miterlimit="10" stroke-linecap="round"/>
<path d="M30.5762 37.4919L31.7214 39.2923" stroke="black" stroke-width="0.2016" stroke-miterlimit="10" stroke-linecap="round"/>
<path d="M31.7236 37.1279L32.32 38.3123" stroke="black" stroke-width="0.2016" stroke-miterlimit="10" stroke-linecap="round"/>
<path d="M23.4697 39.592L25.0377 42.9856" stroke="black" stroke-width="0.2016" stroke-miterlimit="10" stroke-linecap="round"/>
</svg>
