<svg preserveAspectRatio="none" width="100%" height="100%" overflow="visible" style="display: block;" viewBox="0 0 20 17" fill="none" xmlns="http://www.w3.org/2000/svg">
<path id="Vector" fill-rule="evenodd" clip-rule="evenodd" d="M2 1.75C2 0.783502 2.7835 0 3.75 0H15.75C16.7165 0 17.5 0.783501 17.5 1.75V2.5H17.75C18.7165 2.5 19.5 3.2835 19.5 4.25V14.75C19.5 15.7165 18.7165 16.5 17.75 16.5H1.75C0.783502 16.5 0 15.7165 0 14.75V4.25C0 3.2835 0.783502 2.5 1.75 2.5H2V1.75ZM3.75 1.5C3.61193 1.5 3.5 1.61193 3.5 1.75V6.5H6V4.25C6 3.2835 6.7835 2.5 7.75 2.5H11.75C12.7165 2.5 13.5 3.2835 13.5 4.25V6.5H16V1.75C16 1.61193 15.8881 1.5 15.75 1.5H3.75ZM12 6.5H7.5V4.25C7.5 4.11193 7.61193 4 7.75 4H11.75C11.8881 4 12 4.11193 12 4.25V6.5ZM2 4H1.75C1.61193 4 1.5 4.11193 1.5 4.25V7.77292L2 7.02292V4ZM3.15139 8L1.81805 10H17.9895L16.3895 8H3.15139ZM17.5 6.98691L18 7.61191V4.25C18 4.11193 17.8881 4 17.75 4H17.5V6.98691ZM1.5 14.75V11.5H18V14.75C18 14.8881 17.8881 15 17.75 15H1.75C1.61193 15 1.5 14.8881 1.5 14.75Z" fill="var(--fill-0, #414651)"/>
</svg>
