<svg preserveAspectRatio="none" width="100%" height="100%" overflow="visible" style="display: block;" viewBox="0 0 102 84" fill="none" xmlns="http://www.w3.org/2000/svg">
<g id="a_flat_vector_illustration_of_a_vintage_suitcase_a_019d5e39-740b-76ff-9f8d-8c53d4c4f867 1" clip-path="url(#clip0_0_100)">
<path id="Vector" d="M101.758 0.125192H0.241897V83.8829H101.758V0.125192Z" fill="var(--fill-0, #FFF8EB)"/>
<path id="Vector_2" d="M2.5883 73.8231C2.5883 76.6702 18.5777 79.1942 51.25 79.1942C81.0194 79.1942 99.3069 76.335 99.3069 73.8231C99.3069 71.9694 90.6712 71.5979 85.2527 71.4121H18.7309C10.9499 71.7635 2.60443 72.1673 2.60443 73.8231H2.5883Z" fill="var(--fill-0, #D8CAB3)"/>
<path id="Vector_3" d="M94.5012 20.1883C94.5012 16.279 91.4291 13.3471 88.1554 13.3471H13.4898C10.0226 13.3471 6.80134 16.804 6.80134 20.3296V25.8098C6.80134 26.1854 7.10371 26.4883 7.47866 26.4883V31.8312C7.36174 31.9887 7.29723 32.1785 7.29723 32.3885C7.29723 32.6631 7.41818 32.9135 7.61573 33.0871V48.2758C7.29723 48.4212 7.07549 48.7402 7.07549 49.1158V66.2388C7.07549 68.6175 8.11162 70.144 8.87763 71.0123L12.0062 80.6844C12.115 81.0156 12.4658 81.2013 12.8004 81.1004L34.168 74.4248C34.8614 74.1785 35.2364 73.4435 35.0348 72.7327L34.8211 72.3611H78.8464V73.2819C78.8464 74.2027 79.5318 74.6186 80.1567 74.6186H84.3536C85.1559 74.6186 85.3857 74.1179 85.3857 73.1042H88.0506C91.8484 73.1042 95.0737 70.0633 95.0213 66.259V62.0913C95.0213 61.7158 94.8318 61.3887 94.4165 61.2675V34.3915C94.5979 34.2219 94.7189 33.9796 94.7189 33.709C94.7189 33.3496 94.5093 33.0387 94.1988 32.8852V26.2419H94.3278C94.7068 26.2419 95.0092 25.939 95.0092 25.5594L94.9971 25.5433V20.681C94.9971 20.5113 94.8681 20.366 94.5052 20.1883H94.5012Z" fill="var(--fill-0, #437660)"/>
<path id="Vector_4" d="M92.1225 20.0388C92.1225 20.0388 92.3765 29.4444 90.3647 35.6192C86.2444 48.6271 74.073 61.74 55.0034 64.5548L54.8341 72.2319L82.2249 72.1633C83.0715 67.0344 86.2767 62.6083 94.6423 61.3765L94.606 34.016L94.094 33.0387L94.6383 31.9402V26.1167L94.8842 25.5958L95.0051 20.4831L92.1225 20.0388Z" fill="var(--fill-0, #366854)"/>
<path id="Vector_5" d="M94.7431 20.681C94.7431 16.7717 91.671 13.3471 88.3973 13.3471H83.1159C82.8297 13.3471 82.7006 13.6137 82.7168 13.9004C82.9788 19.8006 87.6757 26.0279 94.5213 26.246C94.8076 26.254 95.0213 25.939 95.0213 25.6523L95.0132 25.5433V20.681H94.7431Z" fill="var(--fill-0, #214D43)"/>
<path id="Vector_6" d="M7.03518 20.3296V25.8098C7.03518 26.1854 7.36577 26.3833 7.74071 26.3025C13.3285 25.0667 17.9206 21.6906 19.0373 14.1669C19.0897 13.8237 19.0333 13.3471 18.6583 13.3471H13.4737C10.0065 13.3471 7.03518 16.804 7.03518 20.3296Z" fill="var(--fill-0, #214D43)"/>
<path id="Vector_7" d="M8.22854 17.3573C9.26063 15.2694 11.1676 13.8317 13.6712 13.8317H18.8559C19.1421 13.8317 19.1945 14.1387 19.1421 14.4254C19.0454 14.9463 18.9244 15.4915 18.7753 16.0367L13.6712 16.0125C11.353 16.0125 9.37755 17.6319 8.55107 20.0994C8.09146 21.5412 7.95036 23.31 7.90601 24.36L7.77296 24.3883C7.39802 24.4731 7.03518 24.356 7.03518 23.9804V20.3296C7.03518 19.2756 7.53913 18.5285 8.22854 17.3573Z" fill="var(--fill-0, #366854)"/>
<path id="Vector_8" d="M94.4206 61.3846C87.4902 62.1681 83.0675 67.0425 82.4708 72.866C82.4345 73.2375 82.5394 73.3708 82.9183 73.3708H87.7845C91.6871 73.3708 95.0253 70.1763 95.0253 66.2671V62.0994C95.0253 61.7238 94.7955 61.3442 94.4206 61.3846Z" fill="var(--fill-0, #133A32)"/>
<path id="Vector_9" d="M94.219 32.5944H7.57945V33.4021H94.219V32.5944Z" fill="var(--fill-0, #133A32)"/>
<path id="Vector_10" d="M66.7636 12.1194H60.7888C61.1637 12.1194 61.2202 12.6323 61.2202 13.0079V13.6177H67.9651V13.4279C67.9651 12.705 67.4853 12.1194 66.7636 12.1194Z" fill="var(--fill-0, #695635)"/>
<path id="Vector_11" d="M63.0949 6.90981V12.7292" stroke="var(--stroke-0, #4F4630)" stroke-width="3" stroke-miterlimit="10" stroke-linecap="round"/>
<path id="Vector_12" d="M40.1066 12.3819H34.8251C34.1035 12.3819 33.8616 13.2421 33.8616 13.965V14.1548H40.6065V13.3592C40.6065 12.9796 40.4815 12.3819 40.1066 12.3819Z" fill="var(--fill-0, #725D32)"/>
<path id="Vector_13" d="M38.6713 6.90981V12.7292" stroke="var(--stroke-0, #4F4630)" stroke-width="3" stroke-miterlimit="10" stroke-linecap="round"/>
<path id="Vector_14" d="M63.8609 5.29442C58.7447 3.45288 54.9308 2.82692 50.75 2.82692C46.5692 2.82692 42.3199 3.59827 38.0061 5.20154C35.95 6.01327 35.9983 8.91289 38.2641 9.135C38.5786 9.16731 38.9858 9.09058 39.2519 8.96942C42.8118 7.36615 46.5975 6.90981 50.6775 6.90981C54.7575 6.90981 58.0956 7.60442 62.6715 9.1875C62.9941 9.30865 63.4537 9.36115 63.7762 9.25212C65.792 8.54135 65.5945 5.93654 63.8609 5.29442Z" fill="var(--fill-0, #154B38)"/>
<path id="Vector_15" d="M38.0141 5.52865C42.328 3.92538 46.5773 3.15404 50.7581 3.15404C54.9389 3.15404 58.7931 3.80827 63.627 5.565C64.4696 5.88404 64.7962 6.74827 64.6914 7.56808C64.51 7.01885 64.139 6.52212 63.5222 6.27577C58.7931 4.39385 54.9389 3.80827 50.7581 3.80827C46.9281 3.80827 42.9851 4.45038 38.9898 5.90423C37.9416 6.30404 37.3933 6.90981 37.1675 7.56808C36.9458 6.76846 37.2038 5.84769 38.0141 5.52865Z" fill="var(--fill-0, #214D43)"/>
<path id="Vector_16" d="M7.58348 26.2985L10.0347 25.9269V32.2229L7.58348 32.2592V26.2985Z" fill="var(--fill-0, #558B73)"/>
<path id="Vector_17" d="M94.2996 25.9269L92.1064 25.7048V31.7463L94.2633 31.8877L94.2996 25.9269Z" fill="var(--fill-0, #366854)"/>
<path id="Vector_18" d="M54.5075 13.3471H47.2103C46.6297 13.3471 46.5975 13.3956 46.5975 13.9812V72.6196C46.5975 73.2012 46.9402 73.5081 47.5207 73.5081H54.2213C54.8018 73.5081 55.1042 73.2012 55.1042 72.6196V13.9812C55.1042 13.3956 55.0881 13.3471 54.5075 13.3471Z" fill="var(--fill-0, #154B38)"/>
<path id="Vector_19" d="M55.5557 46.2404H46.3999C45.8194 46.2404 45.5976 46.7331 45.5976 47.3146V48.9179C45.5976 49.4994 45.8194 49.9356 46.3999 49.9356H55.5557C56.1363 49.9356 56.5677 49.4994 56.5677 48.9179V47.5287C56.5677 46.9471 56.1363 46.2404 55.5557 46.2404Z" fill="var(--fill-0, #0B3931)"/>
<path id="Vector_20" d="M46.8071 13.1735V52.1042C46.8071 54.8908 50.2179 58.5658 51.1048 58.5658C52.1329 58.5658 55.1405 54.9271 55.1405 52.4031V13.4562L54.31 13.1735H46.8071Z" fill="var(--fill-0, #325D4C)"/>
<path id="Vector_21" d="M47.7344 13.1735V51.341C47.7344 53.9579 49.9598 56.4496 51.0081 56.4496C52.0563 56.4496 54.318 53.6913 54.318 51.341V13.1735H47.7344Z" fill="var(--fill-0, #386251)"/>
<path id="Vector_22" d="M47.049 13.4562V15.7177H55.076V13.5975L54.701 13.4562H47.049Z" fill="var(--fill-0, #285446)"/>
<path id="Vector_23" d="M50.6775 28.1885C51.2943 28.1885 51.379 27.5867 51.379 27.3767C51.379 27.0658 51.0121 26.7588 50.6775 26.7588C50.2662 26.7588 50.0082 27.0658 50.0082 27.3767C50.0082 27.7119 50.2461 28.1885 50.6775 28.1885Z" fill="var(--fill-0, #0B3931)"/>
<path id="Vector_24" d="M50.6372 33.1638C51.254 33.1638 51.3387 32.5621 51.3387 32.3521C51.3387 32.0412 50.9718 31.7302 50.6372 31.7302C50.2219 31.7302 49.9679 32.0412 49.9679 32.3521C49.9679 32.6873 50.2058 33.1638 50.6372 33.1638Z" fill="var(--fill-0, #0B3931)"/>
<path id="Vector_25" d="M50.6372 44.7462C51.254 44.7462 51.3387 44.1444 51.3387 43.9304C51.3387 43.6235 50.9718 43.3125 50.6372 43.3125C50.2219 43.3125 49.9679 43.6235 49.9679 43.9304C49.9679 44.2696 50.2058 44.7462 50.6372 44.7462Z" fill="var(--fill-0, #0B3931)"/>
<path id="Vector_26" d="M46.5652 44.0596H46.8273V37.6465C46.8273 37.2669 46.9966 36.8712 47.4602 36.8712H54.6809C55.2251 36.8712 55.3824 37.2871 55.3824 37.7394V43.7002H55.6444C56.4387 43.7002 56.6644 43.2277 56.6644 42.6421V37.691C56.6644 36.5238 56.0274 35.7848 55.0195 35.7848H47.0289C46.025 35.7848 45.3074 36.2412 45.3074 37.691V42.9087C45.3074 43.4902 45.7065 44.0596 46.5652 44.0596Z" fill="var(--fill-0, #B09451)"/>
<path id="Vector_27" d="M50.5162 35.8292V39.5406" stroke="var(--stroke-0, #F0D78B)" stroke-width="3" stroke-miterlimit="10" stroke-linecap="round"/>
<path id="Vector_28" d="M27.7174 28.3258H22.7585C21.2991 28.3258 20.7145 29.2546 20.7145 30.131C20.7145 31.2335 21.5732 32.0937 22.8432 32.2713V34.4642L16.9046 34.4844C16.1144 34.4844 15.5056 35.2033 15.5056 35.9988V40.6794C15.5056 41.471 16.1144 41.9637 16.6949 41.9637H27.7174C28.5923 41.9637 29.0236 41.3094 29.0236 40.5704V35.8737C29.0236 35.1387 28.5923 34.4642 27.7174 34.4642H27.3183V32.2713C28.8301 32.0937 29.2333 31.0679 29.2333 30.2037C29.2333 29.1617 28.7092 28.3258 27.7174 28.3258Z" fill="var(--fill-0, #295445)"/>
<path id="Vector_29" d="M16.9247 34.7712H27.5279C28.2496 34.7712 28.5842 35.3285 28.5842 35.9867V40.5381C28.5842 41.2771 28.0036 41.6527 27.3707 41.6527H16.9772C16.3966 41.6527 15.7475 41.2771 15.7475 40.4815V35.8656C15.7475 35.284 16.1789 34.7712 16.9247 34.7712Z" fill="var(--fill-0, #D3B065)"/>
<path id="Vector_30" d="M17.219 35.5627H17.5537C17.9044 35.5627 18.1907 35.8494 18.1907 36.2048C18.1907 36.5602 17.9044 36.8469 17.5537 36.8469H17.219C16.8643 36.8469 16.5821 36.5602 16.5821 36.2048C16.5821 35.8494 16.8643 35.5627 17.219 35.5627Z" fill="var(--fill-0, #957647)"/>
<path id="Vector_31" d="M17.1949 39.7587H17.3037C17.6262 39.7587 17.8883 40.0212 17.8883 40.3483C17.8883 40.6714 17.6262 40.9338 17.3037 40.9338H17.1949C16.8723 40.9338 16.6103 40.6714 16.6103 40.3483C16.6103 40.0212 16.8723 39.7587 17.1949 39.7587Z" fill="var(--fill-0, #957647)"/>
<path id="Vector_32" d="M18.9164 36.956H20.3758C21.0007 36.956 21.2829 37.384 21.2829 37.8363V38.7531C21.2829 39.274 20.8193 39.6738 20.267 39.6738H19.0373C18.4568 39.6738 18.1141 39.2054 18.1141 38.7531V37.7838C18.1141 37.3315 18.4285 36.956 18.9164 36.956Z" fill="var(--fill-0, #957647)"/>
<path id="Vector_33" d="M22.565 28.1319H26.9191C28.2617 28.1319 28.7535 28.9477 28.7535 29.8483C28.7535 31.0315 27.8141 31.7463 26.6329 31.8877H22.9077C21.5772 31.8877 21.0128 31.0315 21.0128 30.0138C21.0128 29.0931 21.5329 28.1319 22.565 28.1319Z" fill="var(--fill-0, #C9A156)"/>
<path id="Vector_34" d="M22.3392 29.4162H22.4924C22.8835 29.4162 23.0931 29.7271 23.0931 30.03C23.0931 30.4137 22.7948 30.66 22.4924 30.66H22.3392C22.0006 30.66 21.7264 30.345 21.7264 30.03C21.7264 29.6867 21.9764 29.4162 22.3392 29.4162Z" fill="var(--fill-0, #80653D)"/>
<path id="Vector_35" d="M27.4191 29.4162H27.5723C27.9351 29.4162 28.1851 29.6867 28.1851 30.03C28.1851 30.345 27.9109 30.66 27.5723 30.66H27.4191C27.1167 30.66 26.8183 30.4137 26.8183 30.03C26.8183 29.7271 27.1167 29.4162 27.4191 29.4162Z" fill="var(--fill-0, #80653D)"/>
<path id="Vector_36" d="M22.6738 32.0937H26.653L26.2902 39.5406C26.2418 40.3523 25.4476 40.5704 24.7259 40.5704C23.9115 40.5704 23.1576 40.1544 23.1576 39.3427L22.6738 32.0937Z" fill="var(--fill-0, #957647)"/>
<path id="Vector_37" d="M74.6656 28.2369H79.0198C80.3623 28.2369 80.8542 29.0567 80.8542 29.9533C80.8542 31.1406 79.9148 31.8554 78.7335 31.9967H75.0083C73.6779 31.9967 73.1134 31.1406 73.1134 30.1229C73.1134 29.2021 73.6335 28.2369 74.6656 28.2369Z" fill="var(--fill-0, #C9A156)"/>
<path id="Vector_38" d="M74.464 29.4162H74.6172C75.0083 29.4162 75.2179 29.7271 75.2179 30.03C75.2179 30.4137 74.9196 30.66 74.6172 30.66H74.464C74.1254 30.66 73.8512 30.345 73.8512 30.03C73.8512 29.6867 74.1012 29.4162 74.464 29.4162Z" fill="var(--fill-0, #80653D)"/>
<path id="Vector_39" d="M79.5439 29.4162H79.6971C80.0599 29.4162 80.3099 29.6867 80.3099 30.03C80.3099 30.345 80.0357 30.66 79.6971 30.66H79.5439C79.2415 30.66 78.9432 30.4137 78.9432 30.03C78.9432 29.7271 79.2415 29.4162 79.5439 29.4162Z" fill="var(--fill-0, #80653D)"/>
<path id="Vector_40" d="M74.7866 32.0937H78.7658L78.4029 39.27C78.3545 40.0777 77.8345 40.421 76.8387 40.421C75.8388 40.421 75.2704 40.114 75.2704 39.3023L74.7866 32.0937Z" fill="var(--fill-0, #957647)"/>
<path id="Vector_41" d="M74.4237 34.5733H85.0269C85.7485 34.5733 86.0832 35.1306 86.0832 35.7888V40.5381C86.0832 41.1196 85.5026 41.4548 85.0269 41.4548H74.6334C73.8714 41.4548 73.0126 40.9338 73.0126 40.1383V35.8171C73.0126 35.1588 73.5327 34.5733 74.4237 34.5733Z" fill="var(--fill-0, #D3B065)" stroke="var(--stroke-0, #957647)" stroke-width="0.75" stroke-miterlimit="10"/>
<path id="Vector_42" d="M84.4221 35.3688H84.531C84.8535 35.3688 85.1156 35.6313 85.1156 35.9544V36.011C85.1156 36.334 84.8535 36.5965 84.531 36.5965H84.4221C84.0996 36.5965 83.8375 36.334 83.8375 36.011V35.9544C83.8375 35.6313 84.0996 35.3688 84.4221 35.3688Z" fill="var(--fill-0, #957647)"/>
<path id="Vector_43" d="M84.4221 40.0171H84.5068C84.8172 40.0171 85.0712 40.2715 85.0712 40.5865C85.0712 40.8975 84.8172 41.1519 84.5068 41.1519H84.4221C84.1117 41.1519 83.8577 40.8975 83.8577 40.5865C83.8577 40.2715 84.1117 40.0171 84.4221 40.0171Z" fill="var(--fill-0, #957647)"/>
<path id="Vector_44" d="M81.5194 36.9196H82.9788C83.6037 36.9196 83.8859 37.3477 83.8859 37.8V38.7167C83.8859 39.2377 83.4223 39.6375 82.87 39.6375H81.6403C81.0598 39.6375 80.7171 39.169 80.7171 38.7167V37.7475C80.7171 37.2952 81.0315 36.9196 81.5194 36.9196Z" fill="var(--fill-0, #957647)"/>
<path id="Vector_45" d="M34.8332 72.6519L25.8911 44.0071C25.621 43.0702 24.7824 43.0621 24.1575 43.3327L2.98743 49.9477C2.70522 50.0285 2.56411 50.3273 2.65684 50.606L8.55913 70.7862L12.0989 80.8298L33.6116 74.2673C34.5591 73.9644 35.0751 73.4394 34.8332 72.6519Z" fill="var(--fill-0, #214D5C)"/>
<path id="Vector_46" d="M24.7945 43.4942C25.4113 43.5104 25.7338 43.9667 25.9999 44.8229L34.6518 71.7796C34.9259 72.6802 34.5873 73.601 33.7527 73.924L33.7003 73.7787C34.3897 73.3263 34.6357 72.6398 34.301 71.5535L25.6734 44.6169C25.3831 43.6356 25.0001 43.5548 24.7945 43.4942Z" fill="var(--fill-0, #F7F7F7)"/>
<path id="Vector_47" d="M8.34142 55.3673L7.22466 52.9321L7.9302 52.5929C8.48253 52.3223 8.96229 52.4031 9.20016 52.9483C9.46624 53.55 9.1034 53.974 8.51075 54.2406L8.22854 54.3739L8.66395 55.4077L8.34142 55.3673ZM8.39383 54.0831C8.84538 53.8771 9.13565 53.5783 8.91391 53.0654C8.73249 52.6494 8.37368 52.6696 8.0068 52.8473L7.65202 53.021L8.13178 54.2083L8.39383 54.0831Z" fill="var(--fill-0, #F0D78B)"/>
<path id="Vector_48" d="M11.5667 54.7615L11.0507 53.9013L10.1032 54.2648L10.0831 55.2865L9.74846 55.3592L9.8049 52.5404L10.204 52.3788L11.8772 54.7615H11.5667ZM10.1677 52.7302L10.1032 53.9942L10.9136 53.6712L10.1677 52.7302Z" fill="var(--fill-0, #F0D78B)"/>
<path id="Vector_49" d="M12.0102 53.8731C12.2239 54.0831 12.5343 54.2244 12.8649 54.1073C13.1753 53.9942 13.2721 53.7156 13.1673 53.4612C12.9455 52.8715 11.9376 53.449 11.603 52.5283C11.4377 52.0679 11.7522 51.6802 12.1392 51.5348C12.4093 51.4298 12.6674 51.4742 12.877 51.6317L12.8165 51.9023C12.6109 51.7488 12.4134 51.6923 12.2037 51.7771C11.9417 51.8821 11.8207 52.1365 11.9215 52.4071C12.1432 53.025 13.1632 52.4233 13.4938 53.3158C13.6591 53.7762 13.4092 54.2285 12.9375 54.4021C12.5706 54.5435 12.2118 54.4183 11.9699 54.2365L12.0102 53.8731Z" fill="var(--fill-0, #F0D78B)"/>
<path id="Vector_50" d="M13.8406 53.1865C14.0542 53.3965 14.3647 53.5379 14.6953 53.4208C15.0057 53.3077 15.1025 53.029 14.9976 52.7746C14.7759 52.185 13.768 52.7625 13.4334 51.8417C13.2681 51.3813 13.5825 50.9937 13.9696 50.8483C14.2397 50.7392 14.4977 50.7877 14.7074 50.9452L14.6469 51.2158C14.4413 51.0623 14.2437 51.0058 14.0341 51.0906C13.772 51.1956 13.6511 51.45 13.7519 51.7206C13.9736 52.3385 14.9936 51.7367 15.3242 52.6292C15.4895 53.0896 15.2395 53.5419 14.7678 53.7156C14.4009 53.8569 14.0421 53.7317 13.8002 53.55L13.8406 53.1865Z" fill="var(--fill-0, #F0D78B)"/>
<path id="Vector_51" d="M16.0942 53.1865L15.3927 50.606L16.1144 50.3677C16.6828 50.1698 17.1263 50.3192 17.2957 50.9129C17.4811 51.5752 17.0659 51.971 16.453 52.1567L16.1628 52.2537L16.4369 53.3642L16.0942 53.1865ZM16.32 51.8942C16.7877 51.7448 17.1102 51.4702 16.953 50.9129C16.824 50.4565 16.453 50.4202 16.0499 50.5413L15.6588 50.6746L16.0418 52.0033L16.32 51.8942Z" fill="var(--fill-0, #F0D78B)"/>
<path id="Vector_52" d="M17.5093 51.4904C17.2392 50.5696 17.6061 49.7256 18.4285 49.4752C19.1945 49.2248 19.9081 49.7337 20.1541 50.606C20.4202 51.5954 19.9606 52.3708 19.1945 52.5888C18.4648 52.811 17.7875 52.4313 17.5093 51.4904ZM19.8194 50.7271C19.5896 49.9154 19.0333 49.5358 18.4568 49.7296C17.8238 49.9638 17.5617 50.6504 17.8036 51.4904C18.0496 52.3627 18.6503 52.609 19.1945 52.4112C19.7993 52.181 20.0734 51.5954 19.8194 50.7271Z" fill="var(--fill-0, #F0D78B)"/>
<path id="Vector_53" d="M22.1376 51.4904L21.2224 50.5979L20.6701 50.7433L21.0209 51.9427L20.7145 51.9225L19.8799 49.0713L20.5693 48.8735C21.1096 48.7119 21.5248 48.8412 21.6821 49.3823C21.8151 49.8346 21.6417 50.194 21.3313 50.4162L22.4319 51.3854L22.1376 51.4904ZM21.037 50.3677C21.416 50.2465 21.5893 49.8669 21.4643 49.4671C21.3313 49.0148 20.9967 48.9623 20.5855 49.0956L20.2468 49.2127L20.6258 50.4969L21.037 50.3677Z" fill="var(--fill-0, #F0D78B)"/>
<path id="Vector_54" d="M22.2223 51.0462L21.6417 48.6069L20.9685 48.7846L20.8999 48.5221L22.7021 48.0012L22.8109 48.2354L21.9522 48.5019L22.5327 51.0462H22.2223Z" fill="var(--fill-0, #F0D78B)"/>
<path id="Vector_55" d="M19.892 72.6115L20.3919 74.2188C20.4645 74.4652 20.7588 74.5904 21.0813 74.4773L23.8833 73.5081C24.222 73.3869 24.2542 73.1042 24.1655 72.8619L23.714 71.5615C23.6253 71.291 23.3108 71.2183 23.0246 71.3071L20.3274 72.1835C19.9646 72.2925 19.7912 72.3288 19.892 72.6115ZM21.6821 73.0356C21.5772 72.6963 21.7627 72.4298 22.0731 72.3531C22.315 72.2885 22.5932 72.4096 22.7021 72.6842L23.5084 72.4136L23.6455 72.8135L22.7867 73.1244C22.6698 73.4192 22.4239 73.5485 22.1376 73.4798C21.9199 73.4233 21.7627 73.2375 21.6821 73.0356Z" fill="var(--fill-0, #F0D78B)"/>
<path id="Vector_56" d="M18.1705 56.5788C14.8202 56.4335 12.627 59.4542 12.6633 62.6083C12.6996 65.5402 14.9251 68.3631 18.0939 68.3348C21.5047 68.2985 24.1817 65.5644 24.2341 62.2085C24.2905 59.0342 21.545 56.7283 18.1705 56.5788Z" stroke="var(--stroke-0, #F0D78B)" stroke-width="1.01" stroke-miterlimit="10"/>
<path id="Vector_57" d="M16.9409 56.8212C16.0459 58.9373 15.8967 60.5931 16.0136 62.584C16.1628 64.9344 17.723 67.5554 20.1339 67.8542C20.8112 66.6346 21.3515 63.315 20.9564 61.2715C20.6056 59.4138 19.4405 57.3542 18.4487 56.5465L16.9409 56.8212Z" stroke="var(--stroke-0, #F0D78B)" stroke-width="1.01" stroke-miterlimit="10"/>
<path id="Vector_58" d="M13.5543 62.8788L16.578 62.3862L20.2387 61.6835L23.8994 60.6254" stroke="var(--stroke-0, #F0D78B)" stroke-width="1.01" stroke-miterlimit="10"/>
<path id="Vector_59" d="M13.6994 63.7269L15.8886 64.4902L18.5696 65.4877L20.4685 66.2146L22.9722 65.7664" stroke="var(--stroke-0, #F0D78B)" stroke-width="1.01" stroke-miterlimit="10"/>
<path id="Vector_60" d="M14.0099 59.5673L16.0942 59.8379L19.0373 60.1327L21.2829 59.8015L23.3108 58.6183" stroke="var(--stroke-0, #F0D78B)" stroke-width="1.01" stroke-miterlimit="10"/>
</g>
<defs>
<clipPath id="clip0_0_100">
<rect width="102" height="84" fill="white"/>
</clipPath>
</defs>
</svg>
