<svg preserveAspectRatio="none" width="100%" height="100%" overflow="visible" style="display: block;" viewBox="0 0 40 40" fill="none" xmlns="http://www.w3.org/2000/svg">
<g id="create_a_hand_drawn_icon_style_that_depicts_a_trav_019d5427-cb37-7d33-aa06-1a986649631e 1">
<path id="Vector" d="M3.24973 11.3419L3.36173 10.5239L3.84173 10.0239L4.48173 9.49594L6.14573 8.34594L9.19773 6.41194L13.6457 4.01394L19.3757 0.883939H20.1937L23.2457 2.28794L26.8957 4.16194L33.9717 8.53194L36.4577 9.96594L36.6937 10.6659L36.8357 13.1519L36.8057 19.1999L36.9497 21.6879L36.7797 27.2119L36.5437 29.4439L35.0217 30.6639L32.9617 31.9419L28.3617 34.6139L22.7637 38.0019L20.2757 39.1999L19.5477 39.0559L16.7357 37.5639L13.8637 36.1579L11.6037 34.5499L7.81173 32.4339L4.61773 30.3819L3.44373 29.6239L3.22173 28.7779L3.16373 26.4379L3.22173 23.0199L3.07773 20.0919L3.16373 17.6639L3.13573 13.9579L3.24973 11.3419Z" fill="var(--fill-0, #010202)"/>
<path id="Vector_2" d="M36.1202 10.582L35.7822 10.024L35.1042 9.628L33.8282 8.782L25.3622 3.658L23.2442 2.484L20.6422 1.396L19.7382 0.999997L18.6802 1.452L16.8322 2.538L13.5582 4.498L9.8762 6.84L6.5742 8.984L4.1142 10.61L3.5282 10.752L3.3602 11.868L3.4162 14.568L3.4722 16.222L3.3322 18.736L3.5002 20.968L3.4722 22.896L3.5842 25.498L3.5562 27.81L3.7262 29.224L4.5322 30.154L5.7382 30.494L7.2602 31.734L9.3202 32.852L11.6282 34.138L13.2062 35.038L13.4882 35.49L14.4922 36.248L15.9562 36.948L17.3922 37.824L19.4762 38.782L20.1482 38.724L21.4102 37.994L23.0482 37.15L26.4622 35.068L28.7222 33.632L31.4502 32.212L33.9302 30.682L35.7782 29.354L36.3922 28.768L36.5322 26.896L36.5882 22.354L36.3342 19.454L36.5042 14.23L36.4202 11.586L36.1202 10.582Z" fill="var(--fill-0, #67CF9D)"/>
<path id="Vector_3" d="M35.6399 11.438L35.4079 10.646L34.8999 10.138L33.3499 9.08404L30.1039 7.00204L25.4459 4.42204L21.2079 2.02404L20.0899 1.45204L19.1979 1.50804L17.8659 2.13604L14.9299 3.93004L10.2159 6.70804L6.36787 9.27404L4.33787 10.722L3.94987 11.108L3.80787 12.252L3.92187 14.74L3.81787 17.518L3.70387 19.634L3.83787 23.132L3.94987 25.592L3.80787 28.52L4.11987 29.606L4.93787 30.154L6.33987 30.784L8.32787 31.986L11.4339 33.858L14.4859 35.546L16.8019 36.892L19.3479 38.326L20.1379 38.298L21.7739 37.212L24.1659 35.75L26.9499 34.21L29.0099 32.882L31.9079 31.06L35.2659 29.022L35.7179 28.408L35.9199 26.204L35.8339 21.688L35.5799 18.96L35.8039 15.632L35.6399 11.438Z" fill="var(--fill-0, #010202)"/>
<path id="Vector_4" d="M35.24 11.4961L35.016 11.0441L34.564 10.5241L32.332 8.9841L26.16 5.2801L20.642 2.1221L20.028 1.8961L19.268 2.0081L17.534 2.9661L13.02 5.5961L7.86802 8.8721L4.74202 11.0221L4.40402 11.4741L4.46002 14.5201L4.29002 18.7081L4.43202 22.9541L4.57402 25.5921L4.46002 28.6061L4.88402 29.5021L6.16002 30.2601L8.40402 31.4541L12.114 33.6321L16.182 35.7501L19.232 37.3221L19.96 37.3501L22.044 36.0721L25.404 34.1621L29.752 31.5121L34.678 28.9241L35.346 28.2521L35.488 26.2041L35.43 21.5181L35.206 18.6241L35.374 14.8921L35.24 11.4961Z" fill="var(--fill-0, #B0ECC2)"/>
<path id="Vector_5" d="M35.0802 11.638L34.8562 11.066L34.0962 10.438L32.1082 9.11197L27.3382 6.41197L20.4902 2.64997L19.8182 2.50797L18.8422 2.84597L11.3602 7.25197L7.11218 9.95197L5.05218 11.278L4.77018 11.56L4.82618 14.048L4.68418 19.216L4.85418 23.492L5.02418 24.904L4.99618 28.35L5.30818 28.802L7.00018 29.946L10.4442 31.846L15.2142 34.578L19.4582 37.038L19.9662 37.094L22.6002 35.406L26.9042 33.006L31.6742 30.202L34.7502 28.452L35.1382 28.002L35.2502 25.35L35.1662 20.398L34.8842 15.398L34.9402 11.954L35.0802 11.638Z" fill="var(--fill-0, #FEFFFE)" stroke="var(--stroke-0, #010202)" stroke-width="0.51324" stroke-miterlimit="10"/>
<path id="Vector_6" d="M20.0199 24.84L20.0939 25.342L20.6359 25.584H22.8659L24.8259 25.514L26.9999 25.598L31.3339 25.472L31.9619 25.134L32.2059 24.434L32.0219 24.788L31.1019 24.816H29.6079L28.2539 25.226L25.4839 25.114L24.1939 25.198L22.1099 25.458L20.5799 25.4L20.0199 24.84Z" fill="var(--fill-0, #010202)"/>
<path id="Vector_7" d="M5.27208 24.94L7.38408 24.884L10.4221 24.786L13.5321 24.856L14.9481 25.138L16.6401 25.054L18.7821 24.926L19.2341 24.756L19.4881 24.982L19.6301 25.534L19.9981 25.776L21.3221 25.804L23.0641 25.636L25.4561 25.748L27.8761 25.818L30.9621 25.664L32.1941 25.024L32.9061 24.828H34.7421V25.024L34.6301 25.43L34.4261 28.572L33.8721 29.106L30.8781 30.964L27.3021 33.196L23.2761 35.428L20.3901 37.206L19.7461 37.074L17.2961 35.554L12.2861 32.946L7.42608 30.226L5.25208 28.658L5.05008 27.762L5.27208 24.94Z" fill="var(--fill-0, #B0ECC2)"/>
<path id="Vector_8" d="M3.58586 10.808L3.88386 10.752L4.02386 10.25L4.47586 10.024" stroke="var(--stroke-0, #FEFFFE)" stroke-width="0.25662" stroke-miterlimit="10"/>
<path id="Vector_9" d="M4.94221 9.72213L5.20221 9.49613" stroke="var(--stroke-0, #FEFFFE)" stroke-width="0.25662" stroke-miterlimit="10"/>
<path id="Vector_10" d="M7.78377 7.88202L8.43377 7.51602L8.78177 7.29202L9.19777 7.11402" stroke="var(--stroke-0, #FEFFFE)" stroke-width="0.25662" stroke-miterlimit="10"/>
<path id="Vector_11" d="M10.364 6.52606L10.648 6.33006" stroke="var(--stroke-0, #FEFFFE)" stroke-width="0.25662" stroke-miterlimit="10"/>
<path id="Vector_12" d="M21.82 1.78389L22.546 2.28789" stroke="var(--stroke-0, #FEFFFE)" stroke-width="0.25662" stroke-miterlimit="10"/>
<path id="Vector_13" d="M22.9199 2.53796L23.4799 2.76196" stroke="var(--stroke-0, #FEFFFE)" stroke-width="0.25662" stroke-miterlimit="10"/>
<path id="Vector_14" d="M31.9998 8.02389L32.7278 8.44789" stroke="var(--stroke-0, #FEFFFE)" stroke-width="0.25662" stroke-miterlimit="10"/>
<path id="Vector_15" d="M35.8597 19.048L36.2857 19.272" stroke="var(--stroke-0, #67CF9D)" stroke-width="0.25662" stroke-miterlimit="10"/>
<path id="Vector_16" d="M36.1596 20.1999L36.4916 20.4259" stroke="var(--stroke-0, #67CF9D)" stroke-width="0.25662" stroke-miterlimit="10"/>
<path id="Vector_17" d="M36.5603 22.44L36.5043 22.826" stroke="var(--stroke-0, #67CF9D)" stroke-width="0.25662" stroke-miterlimit="10"/>
<path id="Vector_18" d="M36.42 26.54L36.616 26.922L36.504 27.254" stroke="var(--stroke-0, #67CF9D)" stroke-width="0.25662" stroke-miterlimit="10"/>
<path id="Vector_19" d="M36.2598 28.66L36.4018 28.948L36.0138 29.236" stroke="var(--stroke-0, #67CF9D)" stroke-width="0.25662" stroke-miterlimit="10"/>
<path id="Vector_20" d="M35.0002 30.0801L34.6642 30.3801" stroke="var(--stroke-0, #67CF9D)" stroke-width="0.25662" stroke-miterlimit="10"/>
<path id="Vector_21" d="M34.3395 30.3799L34.0575 30.6619" stroke="var(--stroke-0, #67CF9D)" stroke-width="0.25662" stroke-miterlimit="10"/>
<path id="Vector_22" d="M30.7996 32.58L30.5176 32.776" stroke="var(--stroke-0, #67CF9D)" stroke-width="0.25662" stroke-miterlimit="10"/>
<path id="Vector_23" d="M28.3003 33.8401L28.0163 33.9901" stroke="var(--stroke-0, #67CF9D)" stroke-width="0.25662" stroke-miterlimit="10"/>
<path id="Vector_24" d="M26.8398 34.6201L26.5558 34.7321" stroke="var(--stroke-0, #67CF9D)" stroke-width="0.25662" stroke-miterlimit="10"/>
<path id="Vector_25" d="M23.2399 37.32L22.9579 37.446" stroke="var(--stroke-0, #67CF9D)" stroke-width="0.25662" stroke-miterlimit="10"/>
<path id="Vector_26" d="M20.7401 38.54L20.3541 38.716" stroke="var(--stroke-0, #67CF9D)" stroke-width="0.25662" stroke-miterlimit="10"/>
<path id="Vector_27" d="M19.5061 38.9L19.8381 39.012" stroke="var(--stroke-0, #67CF9D)" stroke-width="0.25662" stroke-miterlimit="10"/>
<path id="Vector_28" d="M15.8721 36.4201L16.1561 36.5901" stroke="var(--stroke-0, #67CF9D)" stroke-width="0.25662" stroke-miterlimit="10"/>
<path id="Vector_29" d="M15.5402 35.9599L15.8722 36.1299" stroke="var(--stroke-0, #67CF9D)" stroke-width="0.25662" stroke-miterlimit="10"/>
<path id="Vector_30" d="M14.8221 35.68L15.0761 35.85" stroke="var(--stroke-0, #67CF9D)" stroke-width="0.25662" stroke-miterlimit="10"/>
<path id="Vector_31" d="M13.4181 35.0599L13.7661 35.3999L14.1521 35.4559" stroke="var(--stroke-0, #67CF9D)" stroke-width="0.25662" stroke-miterlimit="10"/>
<path id="Vector_32" d="M6.34363 31.38L6.60363 31.524" stroke="var(--stroke-0, #67CF9D)" stroke-width="0.25662" stroke-miterlimit="10"/>
<path id="Vector_33" d="M4.82192 30.0399L5.04392 30.1519" stroke="var(--stroke-0, #67CF9D)" stroke-width="0.25662" stroke-miterlimit="10"/>
<path id="Vector_34" d="M3.25002 16.364L3.39002 16.45" stroke="var(--stroke-0, #67CF9D)" stroke-width="0.25662" stroke-miterlimit="10"/>
<path id="Vector_35" d="M3.41773 12.602L3.64173 12.714V12.996" stroke="var(--stroke-0, #67CF9D)" stroke-width="0.25662" stroke-miterlimit="10"/>
<path id="Vector_36" d="M3.38964 13.2158L3.55764 13.3278" stroke="var(--stroke-0, #67CF9D)" stroke-width="0.25662" stroke-miterlimit="10"/>
<path id="Vector_37" d="M34.36 12.166L34.564 12.082" stroke="var(--stroke-0, #67CF9D)" stroke-width="0.25662" stroke-miterlimit="10"/>
<path id="Vector_38" d="M31.0803 11.97L31.3123 12.082" stroke="var(--stroke-0, #DEFAE4)" stroke-width="0.25662" stroke-miterlimit="10"/>
<path id="Vector_39" d="M31.3995 13.0099L31.4575 13.1239" stroke="var(--stroke-0, #DEFAE4)" stroke-width="0.25662" stroke-miterlimit="10"/>
<path id="Vector_40" d="M32.6198 14.582L32.5357 14.694" stroke="var(--stroke-0, #DEFAE4)" stroke-width="0.25662" stroke-miterlimit="10"/>
<path id="Vector_41" d="M19.2621 2.73404L19.8101 2.59404L20.0921 2.76204L19.7321 3.22804L19.1461 3.21404L18.9221 3.18604L19.2621 2.73404Z" fill="var(--fill-0, #B0ECC2)"/>
<path id="Vector_42" d="M9.11149 16.4499C9.11149 12.1239 12.3435 7.73992 17.9555 7.73992C21.8495 7.73992 25.3935 10.5519 25.9915 14.7679L25.9075 14.8919L25.4055 14.8639L25.2515 14.4259C24.5955 11.6019 22.9715 9.61392 20.4375 8.58792C19.5875 8.22792 19.0015 8.05192 17.8555 8.05192C13.4175 8.05192 9.42349 11.6379 9.32549 16.1659C9.24149 20.0839 11.9315 24.4119 17.2615 24.8039L19.2895 24.7339L19.3415 24.9879C18.9015 25.0859 18.4215 25.1219 17.4935 25.1219C13.0075 25.1219 9.11149 21.1619 9.11149 16.4499Z" fill="var(--fill-0, #010202)"/>
<g id="Vector_43">
<path d="M9.46596 15.4259C9.31196 14.0059 9.80596 13.1599 10.144 12.6439C10.334 11.7499 11.424 10.6659 12.286 10.0239L12.618 10.2499L12.916 10.2219L13.056 9.86791L13.354 9.92391L13.27 10.0659L12.986 10.1519L13.042 10.2919L13.562 10.1239L13.662 9.83991L13.364 9.89591L13.208 9.64191L13.532 9.45191L13.786 9.68591L14.026 9.49591L14.124 9.22991L14.462 9.24391L14.52 9.41391L14.984 9.32791L15.098 9.48191L15.562 9.34191L15.45 9.05991L15.972 8.87191L16.572 8.64591L17.494 8.41991L18.848 8.32191L19.464 8.48991L19.218 8.78191L19.146 9.34191L18.696 9.77991L18.54 10.2219L17.634 10.6239L17.142 11.2639L16.874 11.1219L16.734 10.7219L16.944 9.95191L16.626 9.34191L16.436 9.20191L16.874 8.99991L17.586 8.88591L17.058 8.74391L16.33 8.94191L15.838 9.31591L15.972 9.56991L15.584 9.49991L15.302 9.30191L14.766 9.37191L14.626 9.22991L14.21 9.45191L14.224 9.20191L14.626 9.09791L14.836 9.26591L15.246 9.12591L15.344 8.92791L15.944 8.70191L15.576 8.64591L15.062 8.91391L14.962 8.74391L14.408 8.98391L14.124 9.18191L14.012 9.04191L13.562 9.34191L13.532 9.53991L13.25 9.42791L13.042 9.58391L13.154 9.41391L13.294 9.24391L13.012 9.32791L12.694 9.68591L12.582 9.62791C13.828 8.57391 15.548 7.98791 17.606 7.98791C19.824 7.98791 21.75 9.02791 23.132 10.4239L23.046 10.5939L22.764 10.5379L22.222 9.92391L21.722 9.83991L20.874 10.6099L20.746 11.1619L21.212 11.6999L21.022 11.9399L20.74 11.8559L20.302 11.3079L20.092 11.4819L20.192 12.0679L19.908 11.8419L19.548 12.1239L19.81 12.3799L20.012 12.1239L20.386 12.5479L20.328 12.7739L19.884 12.6159L19.682 12.8979L19.766 13.2219L20.106 13.1659L20.346 13.3919L20.064 13.6179L19.612 13.6459L19.528 14.0199L19.724 14.3719L20.232 14.3299L20.774 13.8919L21.426 13.3639L21.994 13.6039L22.218 13.9219L22.104 14.0899L21.55 13.5319L21.706 13.9419L21.594 14.0539L20.994 14.0259L20.434 14.3639L19.838 14.3079L19.126 15.3259L18.958 16.3059L19.346 17.2779L19.376 17.6019L19.546 17.0999L19.934 16.8599L21.864 16.8319L23.852 16.7459L24.008 15.7039L24.382 15.4419L25.562 15.3259H26.896L27.45 15.6459L27.646 16.0199L27.674 16.8599L29.422 16.8019L31.41 17.0139L31.942 17.4319L32.144 18.3279V19.4539L32.004 22.6579L32.088 24.2959L31.842 25.1839L31.342 25.4079L28.71 25.4939L26.022 25.4079L23.246 25.4939L20.418 25.5219L19.81 25.3499L19.45 24.4419L19.562 21.1899L19.492 18.2719L19.562 17.2639L19.126 16.7459L18.922 16.2499L19.092 15.4259L19.682 14.5199L20.204 14.2659L21.14 14.0899L21.662 14.1319L21.774 14.6519L22.19 14.7919L22.592 14.4119L23.008 14.5039L23.672 14.7079L23.926 14.5199L23.898 14.0479L23.246 13.9919L22.916 14.1179L22.692 13.7799L23.022 13.2019L23.544 13.0899L24.036 13.4079L24.178 13.3499L23.854 13.0119" fill="var(--fill-0, #67CF9D)"/>
<path d="M9.46596 15.4259C9.31196 14.0059 9.80596 13.1599 10.144 12.6439C10.334 11.7499 11.424 10.6659 12.286 10.0239L12.618 10.2499L12.916 10.2219L13.056 9.86791L13.354 9.92391L13.27 10.0659L12.986 10.1519L13.042 10.2919L13.562 10.1239L13.662 9.83991L13.364 9.89591L13.208 9.64191L13.532 9.45191L13.786 9.68591L14.026 9.49591L14.124 9.22991L14.462 9.24391L14.52 9.41391L14.984 9.32791L15.098 9.48191L15.562 9.34191L15.45 9.05991L15.972 8.87191L16.572 8.64591L17.494 8.41991L18.848 8.32191L19.464 8.48991L19.218 8.78191L19.146 9.34191L18.696 9.77991L18.54 10.2219L17.634 10.6239L17.142 11.2639L16.874 11.1219L16.734 10.7219L16.944 9.95191L16.626 9.34191L16.436 9.20191L16.874 8.99991L17.586 8.88591L17.058 8.74391L16.33 8.94191L15.838 9.31591L15.972 9.56991L15.584 9.49991L15.302 9.30191L14.766 9.37191L14.626 9.22991L14.21 9.45191L14.224 9.20191L14.626 9.09791L14.836 9.26591L15.246 9.12591L15.344 8.92791L15.944 8.70191L15.576 8.64591L15.062 8.91391L14.962 8.74391L14.408 8.98391L14.124 9.18191L14.012 9.04191L13.562 9.34191L13.532 9.53991L13.25 9.42791L13.042 9.58391L13.154 9.41391L13.294 9.24391L13.012 9.32791L12.694 9.68591L12.582 9.62791C13.828 8.57391 15.548 7.98791 17.606 7.98791C19.824 7.98791 21.75 9.02791 23.132 10.4239L23.046 10.5939L22.764 10.5379L22.222 9.92391L21.722 9.83991L20.874 10.6099L20.746 11.1619L21.212 11.6999L21.022 11.9399L20.74 11.8559L20.302 11.3079L20.092 11.4819L20.192 12.0679L19.908 11.8419L19.548 12.1239L19.81 12.3799L20.012 12.1239L20.386 12.5479L20.328 12.7739L19.884 12.6159L19.682 12.8979L19.766 13.2219L20.106 13.1659L20.346 13.3919L20.064 13.6179L19.612 13.6459L19.528 14.0199L19.724 14.3719L20.232 14.3299L20.774 13.8919L21.426 13.3639L21.994 13.6039L22.218 13.9219L22.104 14.0899L21.55 13.5319L21.706 13.9419L21.594 14.0539L20.994 14.0259L20.434 14.3639L19.838 14.3079L19.126 15.3259L18.958 16.3059L19.346 17.2779L19.376 17.6019L19.546 17.0999L19.934 16.8599L21.864 16.8319L23.852 16.7459L24.008 15.7039L24.382 15.4419L25.562 15.3259H26.896L27.45 15.6459L27.646 16.0199L27.674 16.8599L29.422 16.8019L31.41 17.0139L31.942 17.4319L32.144 18.3279V19.4539L32.004 22.6579L32.088 24.2959L31.842 25.1839L31.342 25.4079L28.71 25.4939L26.022 25.4079L23.246 25.4939L20.418 25.5219L19.81 25.3499L19.45 24.4419L19.562 21.1899L19.492 18.2719L19.562 17.2639L19.126 16.7459L18.922 16.2499L19.092 15.4259L19.682 14.5199L20.204 14.2659L21.14 14.0899L21.662 14.1319L21.774 14.6519L22.19 14.7919L22.592 14.4119L23.008 14.5039L23.672 14.7079L23.926 14.5199L23.898 14.0479L23.246 13.9919L22.916 14.1179L22.692 13.7799L23.022 13.2019L23.544 13.0899L24.036 13.4079L24.178 13.3499L23.854 13.0119" stroke="var(--stroke-0, #010202)" stroke-width="0.34216" stroke-miterlimit="10"/>
</g>
<path id="Vector_44" d="M18.6119 10.582L18.7819 10.666L19.1679 10.624L19.3239 10.382L19.1539 10.292L18.7039 10.41L18.6119 10.582Z" fill="var(--fill-0, #67CF9D)" stroke="var(--stroke-0, #010202)" stroke-width="0.34216" stroke-miterlimit="10"/>
<path id="Vector_45" d="M22.0201 10.61L21.8241 10.878L21.9101 11.238L22.1921 11.42L22.6421 11.216L22.3601 11.582L21.8821 11.94L21.5341 12.026L21.3321 11.94L21.5201 11.582L21.4221 11.022" fill="var(--fill-0, #67CF9D)"/>
<path id="Vector_46" d="M22.0201 10.61L21.8241 10.878L21.9101 11.238L22.1921 11.42L22.6421 11.216L22.3601 11.582L21.8821 11.94L21.5341 12.026L21.3321 11.94L21.5201 11.582L21.4221 11.022" stroke="var(--stroke-0, #010202)" stroke-width="0.34216" stroke-miterlimit="10"/>
<path id="Vector_47" d="M13.8718 9.98202L14.0118 10.124L14.3838 10.038L14.4278 9.82602L14.2098 9.70002L13.8718 9.81202V9.98202Z" fill="var(--fill-0, #67CF9D)" stroke="var(--stroke-0, #010202)" stroke-width="0.34216" stroke-miterlimit="10"/>
<path id="Vector_48" d="M14.5479 10.052L14.7939 9.83999L15.2099 9.86799L15.7639 10.292L15.7219 10.652L15.4179 10.822L15.1799 10.552L15.0619 10.222L14.7519 10.278L14.5479 10.052Z" fill="var(--fill-0, #67CF9D)" stroke="var(--stroke-0, #010202)" stroke-width="0.34216" stroke-miterlimit="10"/>
<path id="Vector_49" d="M13.098 11.4099L13.354 11.0219L13.914 10.7659L14.252 10.9219L14.428 11.1479L14.682 10.9219L15.012 10.9639L15.386 11.2379L15.542 11.9259L15.766 12.1799L15.752 12.7319L15.512 12.7879L15.23 12.5199L15.054 12.7879L14.772 12.8459L14.794 13.0719L15.154 13.1299L14.534 13.2559L13.604 14.1739L13.14 14.8919L13.182 15.3559L12.93 15.5679L12.582 15.1439L11.592 15.2279L11.232 15.8699L11.318 16.3059L11.622 16.4619L12.072 16.1239L12.39 16.1939L12.418 16.6319L12.75 16.9499L13.202 16.7239L13.604 16.8019L14.012 16.6039" fill="var(--fill-0, #67CF9D)"/>
<g id="Vector_50">
<path d="M13.0977 11.4101L13.3537 11.0221L13.9137 10.7661L14.2517 10.9221L14.4277 11.1481L14.6817 10.9221L15.0117 10.9641L15.3857 11.2381L15.5417 11.9261L15.7657 12.1801L15.7517 12.7321L15.5117 12.7881L15.2297 12.5201L15.0537 12.7881L14.7717 12.8461L14.7937 13.0721L15.1537 13.1301L14.5337 13.2561L13.6037 14.1741L13.1397 14.8921L13.1817 15.3561L12.9297 15.5681L12.5817 15.1441L11.5917 15.2281L11.2317 15.8701L11.3177 16.3061L11.6217 16.4621L12.0717 16.3221L12.3897 16.4481L12.4177 16.7601L12.8337 17.2641L12.5817 17.4321L12.0877 17.2081L11.6857 16.7601L10.6197 16.3221L10.2317 15.7621L9.98571 14.6941L9.77571 15.4981" fill="var(--fill-0, #67CF9D)"/>
<path d="M13.0977 11.4101L13.3537 11.0221L13.9137 10.7661L14.2517 10.9221L14.4277 11.1481L14.6817 10.9221L15.0117 10.9641L15.3857 11.2381L15.5417 11.9261L15.7657 12.1801L15.7517 12.7321L15.5117 12.7881L15.2297 12.5201L15.0537 12.7881L14.7717 12.8461L14.7937 13.0721L15.1537 13.1301L14.5337 13.2561L13.6037 14.1741L13.1397 14.8921L13.1817 15.3561L12.9297 15.5681L12.5817 15.1441L11.5917 15.2281L11.2317 15.8701L11.3177 16.3061L11.6217 16.4621L12.0717 16.3221L12.3897 16.4481L12.4177 16.7601L12.8337 17.2641L12.5817 17.4321L12.0877 17.2081L11.6857 16.7601L10.6197 16.3221L10.2317 15.7621L9.98571 14.6941L9.77571 15.4981" stroke="var(--stroke-0, #010202)" stroke-width="0.34216" stroke-miterlimit="10"/>
</g>
<path id="Vector_51" d="M12.9717 18.16L12.7077 18.944L13.3217 20.12L13.9217 20.622L14.1817 21.322L14.3517 22.622L15.0017 23.854L15.7297 24.122L15.4317 23.506V22.906L15.7297 22.666L15.6877 22.228L16.0537 22.088L16.2857 21.42L16.8877 20.968L17.0277 19.842L17.3257 19.404L17.0937 19.018L16.4077 18.792L15.9437 18.602L15.6457 18.05L15.0457 17.782L14.7137 17.402L14.0417 17.432L13.5897 17.602L13.2937 17.49L12.9717 18.16Z" fill="var(--fill-0, #67CF9D)" stroke="var(--stroke-0, #010202)" stroke-width="0.34216" stroke-miterlimit="10"/>
<path id="Vector_52" d="M19.7681 17.25L20.0501 17.292L20.5301 17.208L21.0641 17.102L20.8461 17.726L20.3461 18.16L19.8241 18.188L19.7681 17.25Z" fill="var(--fill-0, #67CF9D)" stroke="var(--stroke-0, #010202)" stroke-width="0.34216" stroke-miterlimit="10"/>
<path id="Vector_53" d="M30.6396 17.2079L31.0556 17.2499L31.5336 17.3899L31.9076 17.7419L32.0056 18.3699L31.4396 18.3279L30.9536 17.8899L30.6396 17.2079Z" fill="var(--fill-0, #67CF9D)" stroke="var(--stroke-0, #010202)" stroke-width="0.34216" stroke-miterlimit="10"/>
<path id="Vector_54" d="M19.796 23.9601L20.418 24.2141L20.946 24.7861L21.086 25.4161L20.192 25.3441L19.852 24.9261L19.796 23.9601Z" fill="var(--fill-0, #67CF9D)" stroke="var(--stroke-0, #010202)" stroke-width="0.34216" stroke-miterlimit="10"/>
<path id="Vector_55" d="M31.8801 23.92L31.3521 24.06L30.7921 24.438L30.5221 25.138L31.5421 25.082L31.8801 24.716V23.92Z" fill="var(--fill-0, #67CF9D)" stroke="var(--stroke-0, #010202)" stroke-width="0.34216" stroke-miterlimit="10"/>
<path id="Vector_56" d="M21.8997 17.1639L22.0117 20.4399L22.0477 25.4359" stroke="var(--stroke-0, #010202)" stroke-width="0.34216" stroke-miterlimit="10"/>
<path id="Vector_57" d="M22.9803 17.122L22.9243 20.482L23.0523 25.35" stroke="var(--stroke-0, #010202)" stroke-width="0.34216" stroke-miterlimit="10"/>
<path id="Vector_58" d="M28.58 17.0639L28.75 20.4819L28.65 25.3219" stroke="var(--stroke-0, #010202)" stroke-width="0.34216" stroke-miterlimit="10"/>
<path id="Vector_59" d="M29.7198 17.0519L29.7898 20.4119L29.6498 25.2779" stroke="var(--stroke-0, #010202)" stroke-width="0.34216" stroke-miterlimit="10"/>
<path id="Vector_60" d="M24.4199 16.8019L24.4479 16.2019L24.7319 16.0059L26.8779 15.9479L27.1819 16.1459L27.2239 16.8599" stroke="var(--stroke-0, #010202)" stroke-width="0.34216" stroke-miterlimit="10"/>
<path id="Vector_61" d="M24.9996 17.5461L27.5136 17.4901" stroke="var(--stroke-0, #010202)" stroke-width="0.08554" stroke-miterlimit="10"/>
<path id="Vector_62" d="M20.1997 19.2719V21.0919" stroke="var(--stroke-0, #010202)" stroke-width="0.17108" stroke-miterlimit="10"/>
<path id="Vector_63" d="M20.1997 21.5001V21.9521" stroke="var(--stroke-0, #010202)" stroke-width="0.17108" stroke-miterlimit="10"/>
<path id="Vector_64" d="M23.98 24.88L27.16 24.852" stroke="var(--stroke-0, #010202)" stroke-width="0.17108" stroke-miterlimit="10"/>
<path id="Vector_65" d="M31.4597 18.974V19.412" stroke="var(--stroke-0, #010202)" stroke-width="0.17108" stroke-miterlimit="10"/>
<path id="Vector_66" d="M31.5396 21.3998L31.4876 23.6178" stroke="var(--stroke-0, #010202)" stroke-width="0.25662" stroke-miterlimit="10"/>
<path id="Vector_67" d="M21.2195 32.3999L22.8675 32.3019L22.8255 31.8559L21.6996 31.9359L21.6156 30.9639L22.4316 30.8939L22.4035 30.4879L21.5716 30.5599L21.5016 29.7759L22.5555 29.6639L22.5115 29.2619L20.9755 29.4379L21.2195 32.3999Z" fill="var(--fill-0, black)"/>
<path id="Vector_68" d="M24.0599 32.22L24.6459 32.108L24.3279 30.78L24.8419 28.84L24.3279 28.898L23.9759 30.478L23.1539 29.178L22.6599 29.248L23.8059 30.938L24.0599 32.22Z" fill="var(--fill-0, black)"/>
<path id="Vector_69" d="M26.82 30.62C27.102 31.288 27.788 31.288 28.176 31.12C28.656 30.908 29.022 30.428 28.704 29.658L28.136 28.418C27.788 27.608 27.116 27.694 26.778 27.848C26.328 28.046 25.996 28.462 26.278 29.22L26.82 30.62ZM27.18 30.28L26.6 28.84C26.458 28.448 26.676 28.236 26.924 28.178C27.222 28.108 27.462 28.348 27.588 28.686L28.136 29.998C28.338 30.536 28.002 30.748 27.818 30.762C27.562 30.78 27.316 30.646 27.18 30.28Z" fill="var(--fill-0, black)"/>
<path id="Vector_70" d="M29.9802 30.1799L30.4302 29.9019L29.1982 27.8639L31.2282 29.3379L31.6222 29.1239L29.9662 26.4219L29.5142 26.7039L30.6802 28.6039L28.7882 27.1699L28.4342 27.4399L29.9802 30.1799Z" fill="var(--fill-0, black)"/>
<path id="Vector_71" d="M8.50963 28.04L8.34163 28.412C8.08763 29.042 8.52363 29.478 8.95563 29.61C9.46163 29.772 9.92563 29.52 10.1796 29.042L11.1896 26.782L10.7116 26.71L9.67163 28.722C9.44763 29.186 9.13963 29.172 8.95563 29.072C8.73163 28.946 8.63363 28.736 8.78963 28.312L8.50963 28.04Z" fill="var(--fill-0, black)"/>
<path id="Vector_72" d="M10.5479 29.5999C10.2499 30.3559 10.7839 30.7919 11.1859 30.9199C11.6799 31.0879 12.2719 30.9499 12.5699 30.1799L13.0839 28.9099C13.4019 28.0999 12.8339 27.7059 12.4739 27.5779C12.0099 27.4099 11.4759 27.4799 11.1279 28.2059L10.5479 29.5999ZM11.0619 29.6999L11.6479 28.3299C11.8239 27.8939 12.1359 27.8739 12.3539 27.9999C12.6519 28.1619 12.6659 28.5019 12.5099 28.8659L11.9439 30.1619C11.7119 30.6999 11.3099 30.6019 11.1559 30.4759C10.9519 30.2999 10.9099 30.0459 11.0619 29.6999Z" fill="var(--fill-0, black)"/>
<path id="Vector_73" d="M13.2221 30.6201C13.0261 31.3621 13.6321 31.7221 14.0121 31.7801C14.5481 31.8641 15.0461 31.6101 15.2021 30.9801L15.6521 28.8001L15.1461 28.6601L14.6101 30.8921C14.4841 31.4241 14.1101 31.4101 13.9341 31.3261C13.6661 31.1841 13.6041 30.9681 13.7021 30.5501L14.2881 28.4501L13.7941 28.3081L13.2221 30.6201Z" fill="var(--fill-0, black)"/>
<path id="Vector_74" d="M15.604 32.22L16.17 32.304L16.416 31.078L16.868 31.134L17.092 32.492L17.626 32.534L17.344 30.98C17.642 30.852 17.866 30.548 17.894 30.096C17.922 29.54 17.626 29.178 17.072 29.122L16.224 29.01L15.604 32.22ZM16.502 30.618L16.72 29.526L17.122 29.582C17.434 29.638 17.49 29.934 17.434 30.188C17.348 30.576 17.122 30.702 16.882 30.674L16.502 30.618Z" fill="var(--fill-0, black)"/>
<path id="Vector_75" d="M18.3019 32.6199L18.8359 32.6059L18.9479 30.4319L19.7459 32.6339L20.2799 32.6199L20.3079 29.3939L19.8159 29.3739L19.7599 31.5459L18.8919 29.3599L18.4559 29.3319L18.3019 32.6199Z" fill="var(--fill-0, black)"/>
<path id="Vector_76" d="M23.9198 16.7879L24.1238 15.5679L24.6298 15.3419L26.7278 15.2839L27.4278 15.5399L27.6938 15.9119L27.7218 16.8599" stroke="var(--stroke-0, #010202)" stroke-width="0.68432" stroke-miterlimit="10"/>
</g>
</svg>
