<?xml version="1.0" encoding="UTF-8"?><svg id="Layer_2" xmlns="http://www.w3.org/2000/svg" viewBox="0 0 422 71.7149"><g id="Components"><g id="_1ba72354-b487-4c75-8dcb-6380142f719c_5"><path d="M74.7543,43.838h8.3869c1.5087,5.9136,5.9136,8.0252,11.7658,8.0252,6.1549,0,10.9215-2.2327,10.9215-7.2406,0-3.7406-2.4741-5.4301-6.7579-5.732l-9.2925-.8451c-8.085-.7233-13.6361-5.4301-13.6361-13.0929,0-8.7493,7.3012-14.1794,17.7997-14.1794,9.0512,0,17.0756,4.2838,19.067,13.5756h-8.4474c-1.75-4.7666-5.9733-6.2752-10.8004-6.2752-6.2752,0-9.7147,2.7154-9.7147,6.6376,0,3.4992,2.6549,5.4301,6.7579,5.732l9.1715.8443c8.1455.7249,13.7572,4.9482,13.7572,12.7926,0,8.9293-7.3609,14.964-18.8257,14.964-10.4388,0-18.1621-4.2241-20.1527-15.2061Z" style="fill:#fff;"/><path d="M134.1629,32.6154c.9654-4.103,3.379-5.732,6.5166-5.732,3.2579,0,5.5512,1.5684,6.5166,5.732l4.6463,18.2227c.1203.2406.2414.4222.4827.4222s.4222-.1816.4827-.4222l6.1542-23.4719h7.7839l-7.6628,25.9452c-1.3278,4.5252-3.8011,5.6117-6.7579,5.6117-2.8963,0-5.3703-1.3876-6.3963-5.6117l-4.8876-18.343c-.0597-.3019-.2406-.4222-.4827-.4222-.2406,0-.4222.1203-.4827.4222l-4.7666,18.343c-1.026,4.3444-3.379,5.6117-6.2752,5.6117-3.3184,0-5.732-1.2673-6.8782-5.6117l-7.3012-25.9452h7.9042l5.853,23.4719c.0605.3011.2414.4222.4827.4222.1808,0,.3616-.1211.4222-.4222l4.6463-18.2227Z" style="fill:#fff;"/><path d="M167.4447,42.9332c0-9.3523,6.9993-16.1708,16.5324-16.1708,9.2925,0,16.1708,6.6982,16.1708,15.6881v15.9899h-6.9993v-5.0684c-2.353,3.8011-6.1542,5.6722-10.2572,5.6722-8.7493,0-15.4467-6.8185-15.4467-16.111ZM183.7963,34.1241c-5.0079,0-8.6888,3.7406-8.6888,8.8091s3.6809,8.8098,8.6888,8.8098c5.0684,0,8.6888-3.7414,8.6888-8.8098s-3.6203-8.8091-8.6888-8.8091Z" style="fill:#fff;"/><path d="M212.4334,54.6393v17.0756h-7.5425v-28.7817c0-9.2918,7.0598-16.1708,16.4121-16.1708s16.3516,6.8185,16.3516,16.1708c0,9.2925-6.8185,16.111-15.5072,16.111-3.8011,0-7.6628-1.6297-9.7139-4.4049ZM221.303,51.743c4.8868,0,8.6888-3.8011,8.6888-8.8098s-3.8019-8.8091-8.6888-8.8091c-4.9482,0-8.7493,3.8011-8.7493,8.8091s3.8011,8.8098,8.7493,8.8098Z" style="fill:#fff;"/><path d="M241.8637,43.838h8.3869c1.5087,5.9136,5.9128,8.0252,11.7658,8.0252,6.1549,0,10.9215-2.2327,10.9215-7.2406,0-3.7406-2.4741-5.4301-6.7579-5.732l-9.2918-.8451c-8.0858-.7233-13.6369-5.4301-13.6369-13.0929,0-8.7493,7.3012-14.1794,17.7997-14.1794,9.0512,0,17.0764,4.2838,19.067,13.5756h-8.4474c-1.7492-4.7666-5.9733-6.2752-10.8004-6.2752-6.2752,0-9.7147,2.7154-9.7147,6.6376,0,3.4992,2.6549,5.4301,6.7579,5.732l9.1715.8443c8.1463.7249,13.7572,4.9482,13.7572,12.7926,0,8.9293-7.3609,14.964-18.8257,14.964-10.438,0-18.1614-4.2241-20.1527-15.2061Z" style="fill:#fff;"/><path d="M291.8202,54.6393v17.0756h-7.5425v-28.7817c0-9.2918,7.0598-16.1708,16.4121-16.1708s16.3516,6.8185,16.3516,16.1708c0,9.2925-6.8177,16.111-15.5064,16.111-3.8019,0-7.6636-1.6297-9.7147-4.4049ZM300.6898,51.743c4.8876,0,8.6888-3.8011,8.6888-8.8098s-3.8011-8.8091-8.6888-8.8091c-4.9474,0-8.7493,3.8011-8.7493,8.8091s3.8019,8.8098,8.7493,8.8098Z" style="fill:#fff;"/><path d="M320.0556,42.9332c0-9.3523,6.9993-16.1708,16.5324-16.1708,9.2925,0,16.1708,6.6982,16.1708,15.6881v15.9899h-6.9993v-5.0684c-2.353,3.8011-6.1542,5.6722-10.2572,5.6722-8.7493,0-15.4467-6.8185-15.4467-16.111ZM336.4071,34.1241c-5.0079,0-8.6888,3.7406-8.6888,8.8091s3.6809,8.8098,8.6888,8.8098c5.0684,0,8.6888-3.7414,8.6888-8.8098s-3.6203-8.8091-8.6888-8.8091Z" style="fill:#fff;"/><path d="M372.2841,59.0442c-9.2312,0-15.9892-6.8185-15.9892-16.111,0-9.3523,6.7579-16.1708,15.9892-16.1708,7.905,0,14.0591,5.0684,15.387,12.4302h-7.8444c-1.0857-3.0173-4.0425-5.0684-7.6023-5.0684-4.7673,0-8.2666,3.7406-8.2666,8.8091s3.4992,8.8098,8.2666,8.8098c3.4992,0,6.5166-2.0519,7.6023-5.0684h7.8444c-1.3884,7.3609-7.482,12.3696-15.387,12.3696Z" style="fill:#fff;"/><path d="M406.1917,59.0442c-9.3531,0-16.0505-6.6982-16.0505-16.111,0-9.5331,6.879-16.1708,16.4121-16.1708,9.1715,0,15.4467,6.2752,15.4467,14.7832,0,1.2673-.1211,2.5944-.4222,3.9827h-22.3862c-.8443,0-1.2665.4222-1.2665,1.1462,0,2.8963,3.6801,5.7925,8.5677,5.7925,3.1981,0,6.5771-.9654,7.905-3.6809h7.4215c-2.2933,7.1801-8.3869,10.258-15.6275,10.258ZM397.7435,39.7358h15.9294c.6038,0,.9654-.3624.9654-.9654,0-2.776-3.1368-5.6117-7.9639-5.6117-4.7068,0-8.1463,2.4733-8.9309,6.5771Z" style="fill:#fff;"/><path d="M53.2075,46.517l-9.7406,3.6019c-1.9544.7248-3.503,2.2621-4.2277,4.2168l-3.6019,9.7405c-2.2952,6.2265-11.102,6.2265-13.4082,0l-3.6019-9.7405c-.7247-1.9547-2.2622-3.492-4.2279-4.2168l-9.7293-3.6019c-6.2266-2.3061-6.2266-11.1131,0-13.4192l9.7293-3.6019c.4834-.1757.9445-.4063,1.3727-.6808,4.0084,1.8338,8.4668,2.8551,13.1666,2.8551s9.1476-1.0213,13.1556-2.8551c.4284.2745.8896.5051,1.3727.6808l9.7406,3.6019c6.2263,2.3061,6.2263,11.1131,0,13.4192Z" style="fill:#fff;"/><path d="M54.5362,18.6463c-3.1955,4.3706-7.4674,7.8955-12.442,10.1687-1.2957-.8346-2.3059-2.0645-2.855-3.536l-3.6019-9.7406c-2.2952-6.2263-11.102-6.2263-13.4082,0l-3.6019,9.7406c-.5491,1.4715-1.5483,2.7014-2.8553,3.536-4.9633-2.2732-9.2462-5.7982-12.4307-10.1687C-2.3143,10.9044,3.3742,0,12.9609,0h31.9446c9.5867,0,15.2752,10.9044,9.6307,18.6463Z" style="fill:#fff;"/></g></g></svg>