<svg width="260" height="42" viewBox="0 0 260 42" fill="none" xmlns="http://www.w3.org/2000/svg">
<g clip-path="url(#clip0_6847_31646)">
<path d="M-0.141602 25.3243H4.69234C5.56191 28.7405 8.10076 29.9603 11.4738 29.9603C15.0213 29.9603 17.7686 28.6705 17.7686 25.7776C17.7686 23.6167 16.3426 22.6407 13.8736 22.4663L8.51765 21.9781C3.8577 21.5603 0.658223 18.8412 0.658223 14.4146C0.658223 9.36031 4.86641 6.22346 10.9174 6.22346C16.1342 6.22346 20.7593 8.69812 21.907 14.0658H17.0382C16.0296 11.3122 13.5954 10.4407 10.8132 10.4407C7.19638 10.4407 5.21396 12.0094 5.21396 14.2752C5.21396 16.2966 6.74416 17.412 9.109 17.5864L14.3952 18.0741C19.09 18.4929 22.3244 20.9326 22.3244 25.4642C22.3244 30.6224 18.0818 34.1086 11.4738 34.1086C5.45724 34.1086 1.00572 31.6684 -0.141602 25.3243Z" fill="black"/>
<path d="M34.0997 18.8412C34.6561 16.471 36.0472 15.53 37.8556 15.53C39.7334 15.53 41.0552 16.436 41.6116 18.8412L44.2896 29.3681C44.3589 29.5071 44.4287 29.612 44.5678 29.612C44.7069 29.612 44.8111 29.5071 44.846 29.3681L48.3931 15.8089H52.8795L48.4629 30.7969C47.6976 33.411 46.272 34.0387 44.5678 34.0387C42.8985 34.0387 41.4726 33.2371 40.8812 30.7969L38.0642 20.2005C38.0297 20.0261 37.9255 19.9566 37.7859 19.9566C37.6473 19.9566 37.5426 20.0261 37.5077 20.2005L34.7604 30.7969C34.169 33.3066 32.8129 34.0387 31.1436 34.0387C29.231 34.0387 27.8398 33.3066 27.1792 30.7969L22.971 15.8089H27.5267L30.9002 29.3681C30.9351 29.5421 31.0394 29.612 31.1784 29.612C31.2827 29.612 31.3869 29.5421 31.4218 29.3681L34.0997 18.8412Z" fill="black"/>
<path d="M53.2822 24.8016C53.2822 19.399 57.3164 15.4601 62.811 15.4601C68.1669 15.4601 72.1313 19.3295 72.1313 24.5228V33.7598H68.0972V30.8319C66.741 33.0277 64.5501 34.1086 62.1852 34.1086C57.1424 34.1086 53.2822 30.1697 53.2822 24.8016ZM62.7068 19.7128C59.8204 19.7128 57.6988 21.8737 57.6988 24.8016C57.6988 27.7296 59.8204 29.8909 62.7068 29.8909C65.628 29.8909 67.7147 27.7295 67.7147 24.8016C67.7147 21.8737 65.6281 19.7128 62.7068 19.7128Z" fill="black"/>
<path d="M79.2124 31.564V41.4282H74.8651V24.8016C74.8651 19.4339 78.9342 15.4601 84.3245 15.4601C89.7149 15.4601 93.7491 19.399 93.7491 24.8016C93.7491 30.1697 89.8191 34.1086 84.8112 34.1086C82.6204 34.1086 80.3946 33.1672 79.2124 31.564ZM84.3245 29.8909C87.1411 29.8909 89.3325 27.6951 89.3325 24.8016C89.3325 21.9082 87.1412 19.7128 84.3245 19.7128C81.4725 19.7128 79.2817 21.9086 79.2817 24.8016C79.2817 27.6946 81.4725 29.8909 84.3245 29.8909Z" fill="black"/>
<path d="M96.175 25.3243H101.009C101.879 28.7405 104.417 29.9603 107.79 29.9603C111.338 29.9603 114.085 28.6705 114.085 25.7776C114.085 23.6167 112.659 22.6407 110.19 22.4663L104.835 21.9781C100.174 21.5603 96.9748 18.8412 96.9748 14.4146C96.9748 9.36031 101.183 6.22346 107.234 6.22346C112.451 6.22346 117.076 8.69812 118.224 14.0658H113.355C112.347 11.3122 109.912 10.4407 107.13 10.4407C103.513 10.4407 101.531 12.0094 101.531 14.2752C101.531 16.2966 103.061 17.412 105.426 17.5864L110.712 18.0741C115.407 18.4929 118.641 20.9326 118.641 25.4642C118.641 30.6224 114.398 34.1086 107.79 34.1086C101.774 34.1086 97.3228 31.6684 96.175 25.3243Z" fill="black"/>
<path d="M124.968 31.564V41.4282H120.621V24.8016C120.621 19.4339 124.69 15.4601 130.081 15.4601C135.471 15.4601 139.505 19.399 139.505 24.8016C139.505 30.1697 135.576 34.1086 130.568 34.1086C128.376 34.1086 126.151 33.1672 124.968 31.564ZM130.081 29.8909C132.898 29.8909 135.089 27.6951 135.089 24.8016C135.089 21.9082 132.898 19.7128 130.081 19.7128C127.229 19.7128 125.038 21.9086 125.038 24.8016C125.038 27.6946 127.229 29.8909 130.081 29.8909Z" fill="black"/>
<path d="M141.242 24.8016C141.242 19.399 145.277 15.4601 150.771 15.4601C156.127 15.4601 160.092 19.3295 160.092 24.5228V33.7598H156.057V30.8319C154.701 33.0277 152.51 34.1086 150.145 34.1086C145.103 34.1086 141.242 30.1697 141.242 24.8016ZM150.667 19.7128C147.781 19.7128 145.659 21.8737 145.659 24.8016C145.659 27.7296 147.781 29.8909 150.667 29.8909C153.588 29.8909 155.675 27.7295 155.675 24.8016C155.675 21.8737 153.588 19.7128 150.667 19.7128Z" fill="black"/>
<path d="M171.345 34.1086C166.025 34.1086 162.13 30.1697 162.13 24.8016C162.13 19.399 166.025 15.4601 171.345 15.4601C175.902 15.4601 179.449 18.388 180.214 22.6408H175.693C175.067 20.8977 173.363 19.7129 171.311 19.7129C168.563 19.7129 166.546 21.8737 166.546 24.8017C166.546 27.7297 168.563 29.8909 171.311 29.8909C173.328 29.8909 175.067 28.7056 175.693 26.963H180.214C179.414 31.2153 175.902 34.1086 171.345 34.1086Z" fill="black"/>
<path d="M190.889 34.1086C185.498 34.1086 181.638 30.2392 181.638 24.8016C181.638 19.2946 185.602 15.4601 191.097 15.4601C196.383 15.4601 200 19.0851 200 24C200 24.7321 199.93 25.4988 199.757 26.3008H186.854C186.367 26.3008 186.124 26.5447 186.124 26.9629C186.124 28.636 188.245 30.3091 191.062 30.3091C192.905 30.3091 194.853 29.7514 195.618 28.1827H199.896C198.574 32.3305 195.062 34.1086 190.889 34.1086ZM186.019 22.9546H195.201C195.549 22.9546 195.757 22.7452 195.757 22.3969C195.757 20.7932 193.949 19.1551 191.167 19.1551C188.454 19.1551 186.472 20.5839 186.019 22.9546Z" fill="black"/>
</g>
<path d="M212.448 36.24C209.136 36.24 206.576 33.728 206.576 30.24C206.576 26.848 209.008 24.272 212.352 24.272C215.312 24.272 217.312 26.08 218.016 28.464H215.968C215.536 26.992 214.272 25.856 212.304 25.856C210.032 25.856 208.4 27.568 208.4 30.272C208.4 32.816 209.952 34.736 212.512 34.736C214.64 34.736 215.984 33.424 216.304 31.456H212.336V30.048H218.16C218.224 33.728 215.968 36.24 212.448 36.24ZM225.166 32.512V27.52H226.782V36H225.278V34.656C224.83 35.536 223.838 36.16 222.686 36.16C220.974 36.16 219.79 35.152 219.79 32.976V27.52H221.406V32.656C221.406 34.128 222.142 34.736 223.198 34.736C224.286 34.736 225.166 33.84 225.166 32.512ZM230.994 25.552C230.994 26.16 230.514 26.624 229.826 26.624C229.138 26.624 228.642 26.16 228.642 25.552C228.642 24.928 229.138 24.48 229.826 24.48C230.514 24.48 230.994 24.928 230.994 25.552ZM230.642 36H229.026V27.52H230.642V36ZM232.278 31.76C232.278 29.184 233.75 27.36 236.038 27.36C237.174 27.36 238.166 27.936 238.758 28.976V24.512H240.374V36H238.87V34.48C238.262 35.552 237.238 36.16 236.038 36.16C233.75 36.16 232.278 34.304 232.278 31.76ZM233.958 31.76C233.958 33.648 234.95 34.72 236.358 34.72C237.734 34.72 238.758 33.6 238.758 31.728C238.758 29.824 237.702 28.784 236.358 28.784C234.95 28.784 233.958 29.84 233.958 31.76ZM246.108 36.16C243.66 36.16 242.012 34.384 242.012 31.712C242.012 29.2 243.724 27.36 246.06 27.36C248.588 27.36 250.268 29.408 249.98 32.16H243.66C243.788 33.888 244.652 34.896 246.076 34.896C247.276 34.896 248.108 34.24 248.38 33.136H249.98C249.564 35.024 248.108 36.16 246.108 36.16ZM246.028 28.576C244.732 28.576 243.852 29.504 243.676 31.088H248.268C248.188 29.52 247.34 28.576 246.028 28.576ZM258.418 33.472C258.418 35.136 257.122 36.16 254.866 36.16C252.626 36.16 251.298 35.056 251.138 33.232H252.69C252.754 34.288 253.602 34.944 254.898 34.944C256.034 34.944 256.786 34.544 256.786 33.744C256.786 33.04 256.354 32.736 255.298 32.528L253.922 32.272C252.354 31.968 251.474 31.168 251.474 29.888C251.474 28.4 252.77 27.36 254.738 27.36C256.77 27.36 258.146 28.448 258.29 30.192H256.738C256.642 29.168 255.89 28.576 254.754 28.576C253.73 28.576 253.042 29.008 253.042 29.744C253.042 30.432 253.474 30.752 254.498 30.944L255.938 31.216C257.618 31.52 258.418 32.256 258.418 33.472Z" fill="#4B5565"/>
<defs>
<clipPath id="clip0_6847_31646">
<rect width="200" height="41.5929" fill="white"/>
</clipPath>
</defs>
</svg>
