<svg width="351" height="72" viewBox="0 0 351 72" fill="none" xmlns="http://www.w3.org/2000/svg">
<g clip-path="url(#clip0_6844_23480)">
<path d="M3.75427 43.838H12.1412C13.6499 49.7516 18.0548 51.8632 23.907 51.8632C30.0619 51.8632 34.8285 49.6305 34.8285 44.6226C34.8285 40.882 32.3544 39.1925 28.0706 38.8906L18.7781 38.0455C10.6931 37.3222 5.14197 32.6154 5.14197 24.9526C5.14197 16.2033 12.4432 10.7732 22.9417 10.7732C31.9929 10.7732 40.0173 15.057 42.0087 24.3488H33.5613C31.8113 19.5822 27.588 18.0736 22.7609 18.0736C16.4857 18.0736 13.0462 20.789 13.0462 24.7112C13.0462 28.2104 15.7011 30.1413 19.8041 30.4432L28.9756 31.2875C37.1211 32.0124 42.7328 36.2357 42.7328 44.0801C42.7328 53.0094 35.3719 59.0441 23.9071 59.0441C13.4683 59.0441 5.74487 54.82 3.75427 43.838Z" fill="black"/>
<path d="M63.1629 32.6154C64.1283 28.5124 66.5419 26.8834 69.6795 26.8834C72.9374 26.8834 75.2307 28.4518 76.1961 32.6154L80.8424 50.8381C80.9627 51.0787 81.0838 51.2603 81.3251 51.2603C81.5664 51.2603 81.7473 51.0787 81.8078 50.8381L87.962 27.3662H95.7459L88.0831 53.3114C86.7553 57.8366 84.282 58.9231 81.3252 58.9231C78.4289 58.9231 75.9549 57.5355 74.9289 53.3114L70.0413 34.9684C69.9816 34.6665 69.8007 34.5462 69.5586 34.5462C69.318 34.5462 69.1364 34.6665 69.0759 34.9684L64.3093 53.3114C63.2833 57.6558 60.9303 58.9231 58.0341 58.9231C54.7157 58.9231 52.3021 57.6558 51.1559 53.3114L43.8547 27.3662H51.7589L57.6119 50.8381C57.6724 51.1392 57.8533 51.2603 58.0946 51.2603C58.2754 51.2603 58.4562 51.1392 58.5168 50.8381L63.1629 32.6154Z" fill="black"/>
<path d="M96.4447 42.9333C96.4447 33.581 103.444 26.7625 112.977 26.7625C122.27 26.7625 129.148 33.4607 129.148 42.4506V58.4405H122.149V53.3721C119.796 57.1732 115.994 59.0443 111.891 59.0443C103.142 59.0443 96.4447 52.2258 96.4447 42.9333ZM112.796 34.1242C107.788 34.1242 104.107 37.8648 104.107 42.9333C104.107 48.0018 107.788 51.7431 112.796 51.7431C117.865 51.7431 121.485 48.0017 121.485 42.9333C121.485 37.8649 117.865 34.1242 112.796 34.1242Z" fill="black"/>
<path d="M141.433 54.6394V71.715H133.891V42.9333C133.891 33.6415 140.951 26.7625 150.303 26.7625C159.655 26.7625 166.655 33.581 166.655 42.9333C166.655 52.2258 159.836 59.0443 151.147 59.0443C147.346 59.0443 143.484 57.4146 141.433 54.6394ZM150.303 51.7431C155.19 51.7431 158.992 47.942 158.992 42.9333C158.992 37.9246 155.19 34.1242 150.303 34.1242C145.355 34.1242 141.554 37.9253 141.554 42.9333C141.554 47.9413 145.355 51.7431 150.303 51.7431Z" fill="black"/>
<path d="M170.864 43.838H179.251C180.759 49.7516 185.163 51.8632 191.016 51.8632C197.171 51.8632 201.938 49.6305 201.938 44.6226C201.938 40.882 199.464 39.1925 195.18 38.8906L185.888 38.0455C177.802 37.3222 172.251 32.6154 172.251 24.9526C172.251 16.2033 179.553 10.7732 190.051 10.7732C199.102 10.7732 207.127 15.057 209.118 24.3488H200.671C198.921 19.5822 194.697 18.0736 189.87 18.0736C183.595 18.0736 180.156 20.789 180.156 24.7112C180.156 28.2104 182.81 30.1413 186.913 30.4432L196.085 31.2875C204.231 32.0124 209.842 36.2357 209.842 44.0801C209.842 53.0094 202.481 59.0441 191.016 59.0441C180.578 59.0441 172.855 54.82 170.864 43.838Z" fill="black"/>
<path d="M220.82 54.6394V71.715H213.278V42.9333C213.278 33.6415 220.337 26.7625 229.69 26.7625C239.042 26.7625 246.041 33.581 246.041 42.9333C246.041 52.2258 239.224 59.0443 230.535 59.0443C226.733 59.0443 222.871 57.4146 220.82 54.6394ZM229.69 51.7431C234.577 51.7431 238.379 47.942 238.379 42.9333C238.379 37.9246 234.577 34.1242 229.69 34.1242C224.742 34.1242 220.94 37.9253 220.94 42.9333C220.94 47.9413 224.742 51.7431 229.69 51.7431Z" fill="black"/>
<path d="M249.056 42.9333C249.056 33.581 256.055 26.7625 265.588 26.7625C274.881 26.7625 281.759 33.4607 281.759 42.4506V58.4405H274.759V53.3721C272.406 57.1732 268.605 59.0443 264.502 59.0443C255.753 59.0443 249.056 52.2258 249.056 42.9333ZM265.407 34.1242C260.399 34.1242 256.718 37.8648 256.718 42.9333C256.718 48.0018 260.399 51.7431 265.407 51.7431C270.476 51.7431 274.096 48.0017 274.096 42.9333C274.096 37.8649 270.476 34.1242 265.407 34.1242Z" fill="black"/>
<path d="M301.284 59.0443C292.053 59.0443 285.295 52.2258 285.295 42.9333C285.295 33.581 292.053 26.7625 301.284 26.7625C309.189 26.7625 315.343 31.8309 316.671 39.1927H308.827C307.741 36.1754 304.784 34.1243 301.224 34.1243C296.457 34.1243 292.958 37.8649 292.958 42.9334C292.958 48.0019 296.457 51.7432 301.224 51.7432C304.724 51.7432 307.741 49.6913 308.827 46.6748H316.671C315.283 54.0357 309.189 59.0443 301.284 59.0443Z" fill="black"/>
<path d="M335.192 59.0443C325.839 59.0443 319.141 52.3461 319.141 42.9333C319.141 33.4002 326.02 26.7625 335.553 26.7625C344.725 26.7625 351 33.0377 351 41.5457C351 42.813 350.879 44.1401 350.578 45.5284H328.192C327.347 45.5284 326.925 45.9506 326.925 46.6746C326.925 49.5709 330.605 52.4671 335.493 52.4671C338.691 52.4671 342.07 51.5017 343.398 48.7861H350.819C348.526 55.9662 342.432 59.0443 335.192 59.0443ZM326.744 39.7359H342.673C343.277 39.7359 343.638 39.3735 343.638 38.7705C343.638 35.9945 340.502 33.1588 335.674 33.1588C330.968 33.1588 327.528 35.6321 326.744 39.7359Z" fill="black"/>
</g>
<defs>
<clipPath id="clip0_6844_23480">
<rect width="351" height="72" fill="white"/>
</clipPath>
</defs>
</svg>
