<svg width="233" height="40" viewBox="0 0 233 40" fill="none" xmlns="http://www.w3.org/2000/svg">
<g clip-path="url(#clip0_862_80544)">
<path d="M41.2744 24.2054H45.9051C46.7381 27.4705 49.1702 28.6364 52.4014 28.6364C55.7997 28.6364 58.4315 27.4036 58.4315 24.6386C58.4315 22.5733 57.0655 21.6404 54.7002 21.4738L49.5695 21.0071C45.1056 20.6078 42.0406 18.009 42.0406 13.7781C42.0406 8.94735 46.0718 5.94922 51.8684 5.94922C56.8659 5.94922 61.2964 8.31445 62.3959 13.4448H57.7318C56.7656 10.813 54.4338 9.98001 51.7686 9.98001C48.3038 9.98001 46.4048 11.4793 46.4048 13.6448C46.4048 15.5769 47.8706 16.643 50.136 16.8097L55.1999 17.2758C59.6973 17.6761 62.7957 20.0079 62.7957 24.339C62.7957 29.2692 58.7315 32.6012 52.4014 32.6012C46.6378 32.6012 42.3735 30.2689 41.2744 24.2054Z" fill="#001607"/>
<path d="M74.0757 18.0086C74.6088 15.7432 75.9414 14.8438 77.6738 14.8438C79.4726 14.8438 80.7388 15.7097 81.2718 18.0086L83.8372 28.0699C83.9036 28.2028 83.9704 28.303 84.1037 28.303C84.2369 28.303 84.3368 28.2028 84.3702 28.0699L87.7681 15.1103H92.0659L87.835 29.4355C87.1019 31.934 85.7363 32.5339 84.1037 32.5339C82.5046 32.5339 81.1386 31.7678 80.5721 29.4355L77.8735 19.3077C77.8406 19.1411 77.7407 19.0746 77.607 19.0746C77.4742 19.0746 77.3739 19.1411 77.3405 19.3077L74.7087 29.4355C74.1422 31.8342 72.843 32.5339 71.244 32.5339C69.4118 32.5339 68.0791 31.8342 67.4463 29.4355L63.415 15.1103H67.7792L71.0108 28.0699C71.0442 28.2362 71.1441 28.303 71.2774 28.303C71.3772 28.303 71.477 28.2362 71.5105 28.0699L74.0757 18.0086Z" fill="#001607"/>
<path d="M92.4517 23.7038C92.4517 18.5401 96.3162 14.7754 101.58 14.7754C106.71 14.7754 110.508 18.4737 110.508 23.4373V32.2659H106.644V29.4674C105.344 31.5661 103.246 32.5992 100.98 32.5992C96.1495 32.5992 92.4517 28.8345 92.4517 23.7038ZM101.48 18.84C98.7149 18.84 96.6825 20.9053 96.6825 23.7038C96.6825 26.5023 98.7149 28.568 101.48 28.568C104.278 28.568 106.277 26.5022 106.277 23.7038C106.277 20.9054 104.278 18.84 101.48 18.84Z" fill="#001607"/>
<path d="M117.292 30.1671V39.5951H113.127V23.7038C113.127 18.5735 117.025 14.7754 122.189 14.7754C127.353 14.7754 131.217 18.5401 131.217 23.7038C131.217 28.8345 127.452 32.5992 122.655 32.5992C120.556 32.5992 118.424 31.6994 117.292 30.1671ZM122.189 28.568C124.887 28.568 126.986 26.4693 126.986 23.7038C126.986 20.9384 124.887 18.84 122.189 18.84C119.457 18.84 117.358 20.9387 117.358 23.7038C117.358 26.4689 119.457 28.568 122.189 28.568Z" fill="#001607"/>
<path d="M133.541 24.2054H138.172C139.005 27.4705 141.436 28.6364 144.668 28.6364C148.066 28.6364 150.698 27.4036 150.698 24.6386C150.698 22.5733 149.332 21.6404 146.967 21.4738L141.837 21.0071C137.372 20.6078 134.307 18.009 134.307 13.7781C134.307 8.94735 138.338 5.94922 144.135 5.94922C149.132 5.94922 153.563 8.31445 154.662 13.4448H149.998C149.033 10.813 146.7 9.98001 144.035 9.98001C140.57 9.98001 138.671 11.4793 138.671 13.6448C138.671 15.5769 140.137 16.643 142.403 16.8097L147.466 17.2758C151.964 17.6761 155.062 20.0079 155.062 24.339C155.062 29.2692 150.998 32.6012 144.668 32.6012C138.905 32.6012 134.64 30.2689 133.541 24.2054Z" fill="#001607"/>
<path d="M161.123 30.1671V39.5951H156.959V23.7038C156.959 18.5735 160.857 14.7754 166.021 14.7754C171.184 14.7754 175.049 18.5401 175.049 23.7038C175.049 28.8345 171.285 32.5992 166.487 32.5992C164.388 32.5992 162.256 31.6994 161.123 30.1671ZM166.021 28.568C168.719 28.568 170.818 26.4693 170.818 23.7038C170.818 20.9384 168.719 18.84 166.021 18.84C163.289 18.84 161.19 20.9387 161.19 23.7038C161.19 26.4689 163.289 28.568 166.021 28.568Z" fill="#001607"/>
<path d="M176.713 23.7038C176.713 18.5401 180.578 14.7754 185.841 14.7754C190.972 14.7754 194.77 18.4737 194.77 23.4373V32.2659H190.905V29.4674C189.606 31.5661 187.507 32.5992 185.242 32.5992C180.411 32.5992 176.713 28.8345 176.713 23.7038ZM185.741 18.84C182.976 18.84 180.944 20.9053 180.944 23.7038C180.944 26.5023 182.976 28.568 185.741 28.568C188.54 28.568 190.539 26.5022 190.539 23.7038C190.539 20.9054 188.54 18.84 185.741 18.84Z" fill="#001607"/>
<path d="M205.55 32.5992C200.453 32.5992 196.722 28.8345 196.722 23.7038C196.722 18.5401 200.453 14.7754 205.55 14.7754C209.915 14.7754 213.313 17.5738 214.046 21.6385H209.715C209.115 19.9726 207.483 18.8401 205.517 18.8401C202.885 18.8401 200.953 20.9054 200.953 23.7039C200.953 26.5024 202.885 28.5681 205.517 28.5681C207.449 28.5681 209.115 27.4351 209.715 25.7696H214.046C213.279 29.8338 209.915 32.5992 205.55 32.5992Z" fill="#001607"/>
<path d="M224.272 32.5992C219.108 32.5992 215.41 28.9009 215.41 23.7038C215.41 18.4403 219.208 14.7754 224.471 14.7754C229.535 14.7754 233 18.2401 233 22.9377C233 23.6374 232.933 24.3701 232.767 25.1367H220.407C219.941 25.1367 219.707 25.3698 219.707 25.7695C219.707 27.3687 221.739 28.9677 224.438 28.9677C226.204 28.9677 228.069 28.4347 228.803 26.9354H232.9C231.634 30.8998 228.269 32.5992 224.272 32.5992ZM219.607 21.9384H228.402C228.736 21.9384 228.935 21.7383 228.935 21.4054C228.935 19.8727 227.203 18.307 224.538 18.307C221.939 18.307 220.04 19.6726 219.607 21.9384Z" fill="#001607"/>
<path d="M29.3776 25.684L23.9995 27.6727C22.9204 28.0729 22.0653 28.9217 21.6652 30.0009L19.6765 35.379C18.4092 38.8168 13.5467 38.8168 12.2734 35.379L10.2847 30.0009C9.88453 28.9217 9.03562 28.0729 7.9503 27.6727L2.57843 25.684C-0.859477 24.4107 -0.859477 19.548 2.57843 18.2748L7.9503 16.286C8.2172 16.189 8.47179 16.0617 8.70821 15.9102C10.9214 16.9227 13.383 17.4866 15.9779 17.4866C18.5728 17.4866 21.0286 16.9227 23.2416 15.9102C23.4781 16.0617 23.7327 16.189 23.9995 16.286L29.3776 18.2748C32.8153 19.548 32.8153 24.4107 29.3776 25.684Z" fill="#099250"/>
<path d="M30.1113 10.2952C28.347 12.7084 25.9883 14.6546 23.2417 15.9097C22.5263 15.4489 21.9685 14.7698 21.6654 13.9574L19.6766 8.57926C18.4094 5.14152 13.5468 5.14152 12.2735 8.57926L10.2848 13.9574C9.98162 14.7698 9.42992 15.4489 8.70829 15.9097C5.96789 14.6546 3.60316 12.7083 1.84489 10.2952C-1.2777 6.02068 1.86311 0 7.15624 0H24.7939C30.087 0 33.2278 6.02068 30.1113 10.2952Z" fill="#099250"/>
</g>
<defs>
<clipPath id="clip0_862_80544">
<rect width="233" height="39.5961" fill="white"/>
</clipPath>
</defs>
</svg>
