<svg width="56" height="39" viewBox="0 0 56 39" fill="none" xmlns="http://www.w3.org/2000/svg">
<path d="M20.3123 2.01744L20.009 1.75684L19.6357 2.04379L16.5207 5.3526L16.5148 3.19749L14.8348 2.93102L11.8132 3.19749L11.6907 4.53858L12.2273 4.80504V10.0786L6.7994 16.2512L7.55774 17.4576L10.2032 17.3668L10.2148 26.9096L8.94315 27.2054L8.42982 28.3152C8.42982 28.3152 6.89274 27.8671 6.63024 29.0091C6.36482 30.1511 6.79649 30.6225 6.79649 30.6225C6.79649 30.6225 5.2769 30.2858 4.87732 30.9827C4.48065 31.6825 5.01732 32.7337 5.01732 32.7337C5.01732 32.7337 3.88274 32.6342 3.69315 33.4101C3.50357 34.1861 3.98482 34.8859 3.98482 34.8859L5.31482 34.3735L10.2032 34.8156L29.5494 35.1612L35.2923 34.8156L38.3811 35.1612L47.4898 35.4511L49.6832 34.7307L53.7519 34.5872L52.7602 34.3003L53.2007 33.3399L52.2732 32.5639L51.2757 32.1188L51.369 31.1437L50.5261 30.0779L49.444 29.3546L49.024 27.6388L48.0527 27.3694L46.6761 28.2449L46.7111 17.6303L48.9394 17.4869L49.5898 16.4561L38.6757 3.59279L37.6869 2.83732L20.3123 2.01744Z" fill="#FEFFFE" stroke="black" stroke-width="1.23958" stroke-miterlimit="10" stroke-linecap="round" stroke-linejoin="round"/>
<path d="M30.1916 16.6231L29.897 34.8626L36.5761 34.6488L37.8799 34.2359L39.9886 34.6722L46.802 34.8626L49.287 34.3443L48.9836 33.0823L46.7291 30.9564L46.5891 17.6158L45.3086 16.4387L32.2886 16.3186L30.1916 16.6231Z" fill="#FEFFFE"/>
<path d="M30.3079 16.6525L30.0454 34.7309H30.6958L30.8621 29.6944L31.5854 30.7661L31.6437 28.7574L32.2125 29.7179L33.105 30.5173L35.7387 30.447L37.8358 29.551L41.3533 29.1527L44.2292 29.551L46.3262 31.0765L46.6558 28.1894V17.9174L45.3521 16.752L32.5304 16.4153L30.3079 16.6525Z" fill="#A9EFC9"/>
<path d="M33.458 30.8043C34.1434 31.0385 35.768 30.9361 36.3951 30.5027L33.458 30.8043Z" fill="#A9EFC9"/>
<path d="M46.8749 31.1847L47.432 30.4819L47.7528 29.3194L48.2166 29.0325L49.0216 29.3429L49.9812 29.3663L50.5849 30.1891L50.5149 31.1495L51.4074 31.4511L51.5941 32.7278L52.5945 32.9855L53.0203 33.7497L52.2999 34.4495H51.1653L50.3953 34.1567L49.4795 34.5989L48.5987 34.3354L48.8903 33.4218L48.0037 32.4584L47.1578 32.3881L46.5308 31.6532L46.8749 31.1847Z" fill="#A9EFC9" stroke="black" stroke-width="0.74375" stroke-miterlimit="10" stroke-linecap="round" stroke-linejoin="round"/>
<path d="M47.2539 27.7911C47.636 27.2406 48.3097 27.1586 48.8785 27.5569C49.4443 27.9551 49.6368 28.854 49.3247 29.507" stroke="black" stroke-width="0.74375" stroke-miterlimit="10" stroke-linecap="round" stroke-linejoin="round"/>
<path d="M48.158 28.7573L47.2422 32.1891" stroke="black" stroke-width="0.371875" stroke-miterlimit="10" stroke-linecap="round" stroke-linejoin="round"/>
<path d="M48.9164 29.5159L48.231 32.1863" stroke="black" stroke-width="0.371875" stroke-miterlimit="10" stroke-linecap="round" stroke-linejoin="round"/>
<path d="M49.6454 30.6577L49.0767 32.7631" stroke="black" stroke-width="0.371875" stroke-miterlimit="10" stroke-linecap="round" stroke-linejoin="round"/>
<path d="M50.2291 32.6196L49.2607 34.3414" stroke="black" stroke-width="0.371875" stroke-miterlimit="10" stroke-linecap="round" stroke-linejoin="round"/>
<path d="M51.658 33.2053L50.6343 34.3502" stroke="black" stroke-width="0.371875" stroke-miterlimit="10" stroke-linecap="round" stroke-linejoin="round"/>
<path d="M37.4829 32.5611C37.7746 31.2786 38.6321 30.4792 39.5654 30.5729C40.1575 30.6373 40.4696 30.9184 40.6125 31.0853C40.7671 30.5261 41.5108 30.2303 42.0883 30.611C42.3654 30.7925 42.4733 30.9653 42.5462 31.1585C42.7562 30.6578 43.3483 30.242 44.1708 30.0868C45.3083 29.8672 46.1104 30.5026 46.1921 31.6212C46.8017 31.343 47.525 31.6797 47.525 32.5026" stroke="black" stroke-width="0.74375" stroke-miterlimit="10" stroke-linecap="round" stroke-linejoin="round"/>
<path d="M36.5786 32.6782C36.8703 32.2566 37.544 32.0018 37.9524 32.5465" stroke="black" stroke-width="0.74375" stroke-miterlimit="10" stroke-linecap="round" stroke-linejoin="round"/>
<path d="M35.9081 33.4394C35.7652 33.0529 36.1239 32.315 36.6402 32.4233" stroke="black" stroke-width="0.74375" stroke-miterlimit="10" stroke-linecap="round" stroke-linejoin="round"/>
<path d="M35.9373 34.6108C35.5202 34.274 35.5086 33.4688 35.9373 33.1877C36.2407 32.9857 36.8794 32.9857 37.1711 33.3282" stroke="black" stroke-width="0.74375" stroke-miterlimit="10" stroke-linecap="round" stroke-linejoin="round"/>
<path d="M38.4453 34.6693L39.8774 33.0793" stroke="black" stroke-width="0.371875" stroke-miterlimit="10" stroke-linecap="round" stroke-linejoin="round"/>
<path d="M39.437 34.6693L40.9158 33.0676" stroke="black" stroke-width="0.371875" stroke-miterlimit="10" stroke-linecap="round" stroke-linejoin="round"/>
<path d="M40.604 34.5522L41.8932 33.0471" stroke="black" stroke-width="0.371875" stroke-miterlimit="10" stroke-linecap="round" stroke-linejoin="round"/>
<path d="M41.8872 34.4352L43.5847 32.2947" stroke="black" stroke-width="0.371875" stroke-miterlimit="10" stroke-linecap="round" stroke-linejoin="round"/>
<path d="M43.2871 34.1714L44.4334 32.804" stroke="black" stroke-width="0.371875" stroke-miterlimit="10" stroke-linecap="round" stroke-linejoin="round"/>
<path d="M44.8623 34.1716L45.9823 33.6152" stroke="black" stroke-width="0.371875" stroke-miterlimit="10" stroke-linecap="round" stroke-linejoin="round"/>
<path d="M5.95117 34.4644L10.3466 34.7279L29.9378 35.0383L35.4183 34.7279" stroke="black" stroke-width="0.74375" stroke-miterlimit="10" stroke-linecap="round" stroke-linejoin="round"/>
<path d="M2.31396 34.6694L3.39605 34.7163" stroke="black" stroke-width="0.495833" stroke-miterlimit="10" stroke-linecap="round" stroke-linejoin="round"/>
<path d="M50.1411 34.5229H53.6849" stroke="black" stroke-width="0.74375" stroke-miterlimit="10" stroke-linecap="round" stroke-linejoin="round"/>
<path d="M7.14404 16.2249L20.0795 1.98242L32.2099 16.4855L31.9153 17.4577L20.0095 4.04384L7.67779 17.3991L7.14404 16.2249Z" fill="#FEFFFE" stroke="black" stroke-width="1.23958" stroke-miterlimit="10" stroke-linecap="round" stroke-linejoin="round"/>
<path d="M20.2104 2.11401L37.7221 2.97782L49.59 16.4854L48.8929 17.4868H46.2067L46.0463 28.0691L45.8858 26.5201L45.6846 17.7152L31.7838 17.4868L20.0792 4.00853L7.85252 17.2643L7.08252 16.3185L20.2104 2.11401Z" fill="#FEFFFE" stroke="black" stroke-width="1.23958" stroke-miterlimit="10" stroke-linecap="round" stroke-linejoin="round"/>
<path d="M21.042 2.18455L37.4774 2.98979L38.6762 3.68961L49.3278 16.225L32.5628 16.2133L20.6074 2.1377L21.042 2.18455Z" fill="#A9EFC9" stroke="black" stroke-width="0.495833" stroke-miterlimit="10" stroke-linecap="round" stroke-linejoin="round"/>
<path d="M21.7505 2.42452L27.2776 5.70991L26.6797 5.50786L22.6459 2.35132L26.353 6.09642L27.0734 6.96608L23.5559 2.97794L31.6876 10.8664L30.5501 10.2749L28.0534 6.74061L31.3959 9.70976L34.5167 7.051L31.8947 4.8666L35.6134 8.22519L32.8192 4.39224L34.8784 5.73333L33.9072 3.78318L35.3276 4.48301L36.2201 3.71291L39.3263 6.47708L38.0692 5.60156L40.5659 8.44187L43.4972 11.1006L40.318 7.64541L44.5617 12.84L43.9347 12.6262L47.6505 15.7271L45.3842 13.5866L48.193 16.3186L46.5567 16.2015L44.0951 13.3846L40.0555 8.66734L36.6401 3.98523L38.8626 6.76404L36.9784 3.98523L36.3397 4.02036L37.7338 5.8651L36.0859 4.00865L29.3834 3.72462L31.3609 3.99694L27.3213 2.95452L30.8359 3.98523L29.3834 3.59285L32.5042 6.62056H30.4917L28.5113 3.58114" fill="#FEFFFE"/>
<path d="M34.2456 13.1124L35.7594 13.1358L37.5414 14.3246L36.0948 12.6497L39.8369 15.7506L41.0531 13.8825L38.9969 11.5136L43.0889 15.7858L44.1477 15.5252L40.9802 11.3115L39.6006 9.94703L36.6344 6.65579L35.6077 4.84326" fill="#FEFFFE"/>
<path d="M32.3789 8.84595L36.5702 12.2543" stroke="black" stroke-width="0.371875" stroke-miterlimit="10" stroke-linecap="round" stroke-linejoin="round"/>
<path d="M36.6372 10.6321L39.4722 14.0814" stroke="black" stroke-width="0.371875" stroke-miterlimit="10" stroke-linecap="round" stroke-linejoin="round"/>
<path d="M32.7578 13.8237L35.2895 15.4635" stroke="black" stroke-width="0.371875" stroke-miterlimit="10" stroke-linecap="round" stroke-linejoin="round"/>
<path d="M35.8203 13.5398L37.5178 15.7008" stroke="black" stroke-width="0.371875" stroke-miterlimit="10" stroke-linecap="round" stroke-linejoin="round"/>
<path d="M41.0703 14.3245L41.9307 15.2029" stroke="black" stroke-width="0.371875" stroke-miterlimit="10" stroke-linecap="round" stroke-linejoin="round"/>
<path d="M12.4055 4.70268L12.2772 9.947L16.2526 5.56649V3.15662L14.9838 2.93115L11.863 3.15662L11.6909 3.37037V4.45379L11.863 4.62069L12.4055 4.70268Z" fill="#FEFFFE" stroke="black" stroke-width="0.74375" stroke-miterlimit="10" stroke-linecap="round" stroke-linejoin="round"/>
<path d="M12.0468 3.63975L14.9605 3.37036V4.27809L12.0234 4.39814L12.0468 3.63975Z" fill="#FEFFFE" stroke="black" stroke-width="0.495833" stroke-miterlimit="10" stroke-linecap="round" stroke-linejoin="round"/>
<path d="M15.2319 3.10986L15.3865 4.27819L16.3724 4.50659L16.5153 3.19771L15.2319 3.10986Z" fill="#FEFFFE" stroke="black" stroke-width="0.495833" stroke-miterlimit="10" stroke-linecap="round" stroke-linejoin="round"/>
<path d="M12.7471 5.39948L14.4212 5.05688L14.3483 7.54874L12.8171 9.25292L12.7471 5.39948Z" fill="#A9EFC9"/>
<path d="M14.8232 4.70263L15.2549 4.69092V5.82997L14.8232 6.23991V4.70263Z" fill="#A9EFC9" stroke="black" stroke-width="0.495833" stroke-miterlimit="10" stroke-linecap="round" stroke-linejoin="round"/>
<path d="M15.4941 4.69092H15.92V5.54301L15.4941 5.90024V4.69092Z" fill="#A9EFC9" stroke="black" stroke-width="0.495833" stroke-miterlimit="10" stroke-linecap="round" stroke-linejoin="round"/>
<path d="M20.1146 5.01007L20.3655 4.66748L31.9155 16.6934L31.653 17.0184L20.4238 7.06271L11.4842 17.0184L10.9476 16.995L10.6851 24.6228L11.0321 29.6241L10.9476 34.2184L11.1605 34.2945L11.2071 31.9256L11.5017 34.3794L11.7934 34.356L11.8517 32.8363L12.2192 34.2359L12.8434 32.5054L13.1059 34.2184L13.4646 34.1334L13.4996 31.8905L13.7359 32.564L14.0655 26.8863L20.138 7.38187L28.9463 16.6524L29.2526 17.197L29.1096 21.642L29.4684 26.9566L29.4188 34.7923L30.0809 34.5082L30.3171 27.2991L30.7196 28.7222L30.8946 17.279L30.5505 16.6934L20.1146 5.01007Z" fill="#6BE0A3"/>
<path d="M10.2732 17.1035L10.2148 34.4674" stroke="black" stroke-width="0.371875" stroke-miterlimit="10" stroke-linecap="round" stroke-linejoin="round"/>
<path d="M30.4248 16.9951V21.4166" stroke="black" stroke-width="0.371875" stroke-miterlimit="10" stroke-linecap="round" stroke-linejoin="round"/>
<path d="M31.1829 17.2205L31.1362 20.134" stroke="black" stroke-width="0.371875" stroke-miterlimit="10" stroke-linecap="round" stroke-linejoin="round"/>
<path d="M31.7663 17.4578L31.708 19.9145" stroke="black" stroke-width="0.371875" stroke-miterlimit="10" stroke-linecap="round" stroke-linejoin="round"/>
<path d="M32.4954 17.6011L32.4487 18.9773" stroke="black" stroke-width="0.371875" stroke-miterlimit="10" stroke-linecap="round" stroke-linejoin="round"/>
<path d="M33.4285 17.5896L33.3818 18.7755" stroke="black" stroke-width="0.371875" stroke-miterlimit="10" stroke-linecap="round" stroke-linejoin="round"/>
<path d="M34.4788 17.6597L34.4321 18.4825" stroke="black" stroke-width="0.371875" stroke-miterlimit="10" stroke-linecap="round" stroke-linejoin="round"/>
<path d="M38.3001 18.1077L38.2534 19.8909" stroke="black" stroke-width="0.371875" stroke-miterlimit="10" stroke-linecap="round" stroke-linejoin="round"/>
<path d="M39.1458 17.9993L39.0991 19.8909" stroke="black" stroke-width="0.371875" stroke-miterlimit="10" stroke-linecap="round" stroke-linejoin="round"/>
<path d="M40.0501 18.0461L40.0034 19.5951" stroke="black" stroke-width="0.371875" stroke-miterlimit="10" stroke-linecap="round" stroke-linejoin="round"/>
<path d="M40.8958 18.0461L40.8491 19.273" stroke="black" stroke-width="0.371875" stroke-miterlimit="10" stroke-linecap="round" stroke-linejoin="round"/>
<path d="M41.9456 18.0725L41.8989 19.2731" stroke="black" stroke-width="0.371875" stroke-miterlimit="10" stroke-linecap="round" stroke-linejoin="round"/>
<path d="M42.8206 18.0461L42.7739 19.5717" stroke="black" stroke-width="0.371875" stroke-miterlimit="10" stroke-linecap="round" stroke-linejoin="round"/>
<path d="M43.6663 18.0461L43.6196 19.8909" stroke="black" stroke-width="0.371875" stroke-miterlimit="10" stroke-linecap="round" stroke-linejoin="round"/>
<path d="M44.3958 18.0461L44.3491 19.8909" stroke="black" stroke-width="0.371875" stroke-miterlimit="10" stroke-linecap="round" stroke-linejoin="round"/>
<path d="M45.0955 18.0461L45.0488 20.3682" stroke="black" stroke-width="0.371875" stroke-miterlimit="10" stroke-linecap="round" stroke-linejoin="round"/>
<path d="M45.9705 17.9993L45.9209 24.3065" stroke="black" stroke-width="0.371875" stroke-miterlimit="10" stroke-linecap="round" stroke-linejoin="round"/>
<path d="M31.3286 29.3108L31.0078 34.3472" stroke="black" stroke-width="0.371875" stroke-miterlimit="10" stroke-linecap="round" stroke-linejoin="round"/>
<path d="M32.291 30.9504L31.9702 34.3852" stroke="black" stroke-width="0.371875" stroke-miterlimit="10" stroke-linecap="round" stroke-linejoin="round"/>
<path d="M33.3412 32.2683L33.0933 34.4322" stroke="black" stroke-width="0.371875" stroke-miterlimit="10" stroke-linecap="round" stroke-linejoin="round"/>
<path d="M34.479 32.4438L34.2544 34.2593" stroke="black" stroke-width="0.371875" stroke-miterlimit="10" stroke-linecap="round" stroke-linejoin="round"/>
<path d="M35.9667 32.3855L35.6226 33.9843" stroke="black" stroke-width="0.371875" stroke-miterlimit="10" stroke-linecap="round" stroke-linejoin="round"/>
<path d="M9.66377 26.9565C9.17086 26.9565 8.61669 27.3694 8.68961 28.4001" stroke="black" stroke-width="0.74375" stroke-miterlimit="10" stroke-linecap="round" stroke-linejoin="round"/>
<path d="M8.48869 28.1775C7.65453 27.8847 6.66577 28.3269 6.53452 29.2463C6.42661 29.9959 6.63077 30.4469 6.71536 30.6606C6.49661 30.9827 6.10286 30.7543 5.46411 30.7543C4.64452 30.7543 4.32077 31.8904 4.86327 32.4175C5.13452 32.684 5.33869 32.7396 5.33869 32.7396C4.99453 32.6576 3.65869 32.7777 3.65869 33.9899C3.65869 34.4145 4.00286 34.7922 4.21577 34.8391" fill="#FEFFFE"/>
<path d="M8.48869 28.1775C7.65453 27.8847 6.66577 28.3269 6.53452 29.2463C6.42661 29.9959 6.63077 30.4469 6.71536 30.6606C6.49661 30.9827 6.10286 30.7543 5.46411 30.7543C4.64452 30.7543 4.32077 31.8904 4.86327 32.4175C5.13452 32.684 5.33869 32.7396 5.33869 32.7396C4.99453 32.6576 3.65869 32.7777 3.65869 33.9899C3.65869 34.4145 4.00286 34.7922 4.21577 34.8391" stroke="black" stroke-width="0.74375" stroke-miterlimit="10" stroke-linecap="round" stroke-linejoin="round"/>
<path d="M9.39839 29.4866L9.31381 31.6768L8.77131 30.4031L9.25548 32.4528L8.29881 30.772L9.02798 33.0999L7.99839 31.3635L8.93173 33.7119L7.75631 31.955L8.61673 34.0193L7.48214 32.4235L8.05673 34.1511L7.24006 32.8422L7.48214 34.1511L6.77339 33.2961L6.97756 34.1511L5.99756 33.3927L6.37964 34.3005" stroke="black" stroke-width="0.371875" stroke-miterlimit="10" stroke-linecap="round" stroke-linejoin="round"/>
<path d="M25.2591 20.6348C25.2591 20.3684 24.9296 20.0345 24.4687 20.0082C22.5729 19.8999 19.0554 20.0082 15.5525 20.2717C15.1354 20.3069 14.9575 20.342 14.9575 20.6231V21.4342C14.9575 21.7241 15.2491 21.9788 15.6721 21.9554L15.3629 28.412L15.5291 33.302L14.7854 33.3371C14.4791 33.3518 14.2896 33.5187 14.2896 33.7734V34.6724L24.775 34.8276L24.845 33.9023C24.8683 33.589 24.6321 33.3254 24.2354 33.3166L24.2587 21.9935C24.6321 21.9554 24.8333 21.7007 24.8333 21.4459L25.2591 20.6348Z" fill="#FEFFFE" stroke="black" stroke-width="0.495833" stroke-miterlimit="10" stroke-linecap="round" stroke-linejoin="round"/>
<path d="M15.2319 20.7432L24.294 20.2952V21.159L23.9528 21.4108L15.3253 21.6421L15.2319 20.7432Z" fill="#A9EFC9" stroke="black" stroke-width="0.495833" stroke-miterlimit="10" stroke-linecap="round" stroke-linejoin="round"/>
<path d="M16.2671 21.6187L16.3108 33.3166H16.9175L17.1071 21.9788L22.5233 21.7475L22.6313 33.3752L23.4742 33.3166L23.4246 21.6187H22.5583L17.1071 21.847L16.9408 33.3166L16.2671 33.34V21.6187Z" fill="#A9EFC9" stroke="black" stroke-width="0.495833" stroke-miterlimit="10" stroke-linecap="round" stroke-linejoin="round"/>
<path d="M14.4326 33.6445L24.4805 33.8495V34.6694L14.4326 34.4351V33.6445Z" fill="#FEFFFE" stroke="black" stroke-width="0.495833" stroke-miterlimit="10" stroke-linecap="round" stroke-linejoin="round"/>
<path d="M22.6196 33.6738V34.5552" stroke="black" stroke-width="0.495833" stroke-miterlimit="10" stroke-linecap="round" stroke-linejoin="round"/>
<path d="M32.4955 21.3492C32.4955 21.0856 32.7201 20.9421 32.9855 20.9421H36.678C37.0951 20.9421 37.2555 21.1208 37.2555 21.4956V27.7091C37.6696 27.674 37.9176 27.8496 37.9176 28.1981V28.6139C37.9176 28.9126 37.7396 29.0678 37.343 29.0795L32.8571 29.2112C32.4984 29.2229 32.2476 29.0209 32.2476 28.7339V28.2332C32.2476 28.0312 32.3555 27.8379 32.4955 27.7794V21.3492Z" fill="#FEFFFE" stroke="black" stroke-width="0.495833" stroke-miterlimit="10" stroke-linecap="round" stroke-linejoin="round"/>
<path d="M32.5249 21.2905L36.9524 21.1587V27.7207L32.5249 27.8495V21.2905Z" fill="#FEFFFE" stroke="black" stroke-width="0.495833" stroke-miterlimit="10" stroke-linecap="round" stroke-linejoin="round"/>
<path d="M34.3916 21.2671L34.272 27.709" stroke="black" stroke-width="0.495833" stroke-miterlimit="10" stroke-linecap="round" stroke-linejoin="round"/>
<path d="M32.5249 24.5146L36.6957 24.3418" stroke="black" stroke-width="0.495833" stroke-miterlimit="10" stroke-linecap="round" stroke-linejoin="round"/>
<path d="M32.3789 28.0312L37.5618 27.9111V28.6139L32.3789 28.8159V28.0312Z" fill="#A9EFC9" stroke="black" stroke-width="0.495833" stroke-miterlimit="10" stroke-linecap="round" stroke-linejoin="round"/>
<path d="M39.8749 21.4458C39.8749 21.1588 40.0411 20.9421 40.3707 20.9421H43.9086C44.2236 20.9421 44.3665 21.109 44.3665 21.4106L44.2236 27.6974C44.6086 27.674 44.8332 27.8965 44.8332 28.1981V28.4353C44.8332 28.7808 44.5707 28.8657 44.2003 28.8891L40.359 29.0443C39.9915 29.056 39.624 28.8189 39.624 28.4938L39.7086 21.4458H39.8749Z" fill="#FEFFFE" stroke="black" stroke-width="0.495833" stroke-miterlimit="10" stroke-linecap="round" stroke-linejoin="round"/>
<path d="M40.0498 21.2905L44.0019 21.1587V27.6387L40.0498 27.791V21.2905Z" fill="#FEFFFE" stroke="black" stroke-width="0.495833" stroke-miterlimit="10" stroke-linecap="round" stroke-linejoin="round"/>
<path d="M42.0913 21.2671L41.9746 27.709" stroke="black" stroke-width="0.495833" stroke-miterlimit="10" stroke-linecap="round" stroke-linejoin="round"/>
<path d="M40.1372 24.5146L43.856 24.3418" stroke="black" stroke-width="0.495833" stroke-miterlimit="10" stroke-linecap="round" stroke-linejoin="round"/>
<path d="M39.8745 28.0927L44.582 27.8965V28.4353L39.8745 28.6373V28.0927Z" fill="#A9EFC9" stroke="black" stroke-width="0.495833" stroke-miterlimit="10" stroke-linecap="round" stroke-linejoin="round"/>
<path d="M17.6963 22.5937L22.1675 22.5703L22.2638 32.7778L17.7109 32.447L17.6963 22.5937Z" fill="#FEFFFE"/>
<path d="M25.9096 16.9951L25.8251 21.3493L25.0317 20.8837C25.0317 20.8837 25.0434 21.8734 24.7984 22.2306C24.5505 22.5937 24.5971 24.1544 24.6438 24.9421C24.6905 25.7298 24.7634 28.9127 24.6555 29.6945C24.5505 30.4705 24.6438 32.4177 24.7021 32.5641C24.7634 32.7076 24.6205 33.261 24.6205 33.261L24.1888 33.2229L24.2588 21.7592L24.5971 21.5572L24.7021 20.503L24.3055 19.9613L23.4363 19.9145L23.3896 19.6656C23.3896 19.6656 24.3405 19.7124 24.7634 19.8208C25.1863 19.9262 25.6005 19.9145 25.7055 20.2249C25.8134 20.5382 25.9096 16.9951 25.9096 16.9951Z" fill="#A9EFC9"/>
<path d="M26.3766 30.1599L26.3066 32.6196" stroke="#A9EFC9" stroke-width="0.371875" stroke-miterlimit="10" stroke-linecap="round" stroke-linejoin="round"/>
<path d="M25.1396 32.8538L25.2096 34.7248" stroke="black" stroke-width="0.247917" stroke-miterlimit="10" stroke-linecap="round" stroke-linejoin="round"/>
<path d="M26.0879 33.2639L26.1812 34.5494" stroke="black" stroke-width="0.247917" stroke-miterlimit="10" stroke-linecap="round" stroke-linejoin="round"/>
<path d="M26.957 33.6445L27.1116 34.561" stroke="black" stroke-width="0.247917" stroke-miterlimit="10" stroke-linecap="round" stroke-linejoin="round"/>
<path d="M28.2866 32.6782V34.725" stroke="black" stroke-width="0.371875" stroke-miterlimit="10" stroke-linecap="round" stroke-linejoin="round"/>
<path d="M29.019 33.2053L29.089 34.725" stroke="black" stroke-width="0.247917" stroke-miterlimit="10" stroke-linecap="round" stroke-linejoin="round"/>
<path d="M20.2922 10.5122C18.4168 10.4273 17.2239 12.0524 17.0839 13.5634C16.9176 15.3466 18.2505 16.5823 19.948 16.6057C21.7505 16.6291 22.993 14.9894 22.9347 13.4784C22.8764 11.8416 21.8089 10.5854 20.2922 10.5122Z" fill="#A9EFC9"/>
<path d="M20.1611 10.4272C18.3469 10.3452 17.2619 12.0523 17.119 13.49C16.9527 15.1913 18.239 16.4504 19.8315 16.4035C21.6807 16.342 22.7161 14.8809 22.7161 13.4197C22.7161 11.8678 21.6194 10.4887 20.1611 10.4272Z" fill="#FEFFFE" stroke="black" stroke-width="0.74375" stroke-miterlimit="10" stroke-linecap="round" stroke-linejoin="round"/>
<path d="M17.9766 13.3584L22.5003 13.3232" stroke="black" stroke-width="0.74375" stroke-miterlimit="10" stroke-linecap="round" stroke-linejoin="round"/>
<path d="M20.1141 10.6321L20.0791 16.0931" stroke="black" stroke-width="0.74375" stroke-miterlimit="10" stroke-linecap="round" stroke-linejoin="round"/>
<path d="M31.9702 16.4738L32.2852 16.3186L49.2981 16.4855" stroke="black" stroke-width="0.495833" stroke-miterlimit="10" stroke-linecap="round" stroke-linejoin="round"/>
<path d="M32.5249 17.0185L33.2541 16.4856" stroke="black" stroke-width="0.371875" stroke-miterlimit="10" stroke-linecap="round" stroke-linejoin="round"/>
<path d="M33.8667 16.9951L34.5959 16.4622" stroke="black" stroke-width="0.371875" stroke-miterlimit="10" stroke-linecap="round" stroke-linejoin="round"/>
<path d="M35.2661 16.9951L36.0507 16.4387" stroke="black" stroke-width="0.371875" stroke-miterlimit="10" stroke-linecap="round" stroke-linejoin="round"/>
<path d="M36.7827 16.9951L37.6285 16.4387" stroke="black" stroke-width="0.371875" stroke-miterlimit="10" stroke-linecap="round" stroke-linejoin="round"/>
<path d="M38.2998 16.9599L39.1456 16.4036" stroke="black" stroke-width="0.371875" stroke-miterlimit="10" stroke-linecap="round" stroke-linejoin="round"/>
<path d="M40.0205 16.8164L40.6826 16.3801" stroke="black" stroke-width="0.371875" stroke-miterlimit="10" stroke-linecap="round" stroke-linejoin="round"/>
<path d="M41.5371 16.875L42.345 16.3801" stroke="black" stroke-width="0.371875" stroke-miterlimit="10" stroke-linecap="round" stroke-linejoin="round"/>
<path d="M43.083 16.875L43.8647 16.3186" stroke="black" stroke-width="0.371875" stroke-miterlimit="10" stroke-linecap="round" stroke-linejoin="round"/>
<path d="M44.6289 16.8164L45.4018 16.3186" stroke="black" stroke-width="0.371875" stroke-miterlimit="10" stroke-linecap="round" stroke-linejoin="round"/>
<path d="M46.2036 16.875L46.8045 16.3655" stroke="black" stroke-width="0.371875" stroke-miterlimit="10" stroke-linecap="round" stroke-linejoin="round"/>
<path d="M47.6914 16.875L48.3068 16.342" stroke="black" stroke-width="0.371875" stroke-miterlimit="10" stroke-linecap="round" stroke-linejoin="round"/>
<path d="M21.4559 27.2524C20.8901 27.2056 20.7355 27.6507 20.7472 27.9347C20.7705 28.412 21.1847 28.6023 21.5376 28.5438C21.9693 28.4706 22.1472 28.0577 22.1239 27.7356C22.0889 27.393 21.8089 27.2788 21.4559 27.2524Z" fill="black"/>
<path d="M13.9031 0.585693C12.1414 2.14922 11.0007 2.18983 9.15406 2.33806C8.74145 3.99703 8.55739 7.98301 10.8267 10.4501C11.9574 11.701 13.3408 12.2715 13.9031 12.5091C14.882 12.0644 16.3363 11.1872 17.3456 9.68868C18.8524 7.73934 18.8342 4.64477 18.5268 2.33806C16.8419 2.23044 15.5475 1.7289 13.9031 0.585693Z" fill="#A9EFC9" stroke="black" stroke-width="0.859602" stroke-miterlimit="10" stroke-linecap="round" stroke-linejoin="round"/>
<path d="M9.71629 2.79904C11.5629 2.61629 12.5722 2.24673 13.8707 1.35938C15.0398 2.29749 16.1158 2.67518 17.6894 2.83153C17.9644 4.59202 17.5902 7.60739 16.0834 9.77197C15.3229 10.769 14.4087 11.303 13.806 11.571C13.1122 11.2522 11.7227 10.5415 10.8267 9.09376C9.59089 7.2155 9.57471 4.98392 9.71629 2.79904Z" fill="#FEFFFE" stroke="black" stroke-width="0.343841" stroke-miterlimit="10" stroke-linecap="round" stroke-linejoin="round"/>
<path d="M10.2866 3.52981C11.6377 3.38158 12.6045 3.05466 13.7392 2.37036C14.7828 2.89831 15.7719 3.14603 17.0481 3.23741C17.1634 4.59991 16.8095 6.93911 15.871 8.45391C15.244 9.41842 14.3257 10.2855 13.7796 10.5332C13.096 10.2022 12.0604 9.48746 11.3404 8.08638C10.5617 6.58783 10.2866 5.17862 10.2866 3.52981Z" fill="#A9EFC9"/>
<path d="M11.4637 6.49446L12.0259 5.92388C12.1898 5.7594 12.386 5.87515 12.5012 5.96652L13.3973 6.8356L15.8304 4.15527C16.0125 3.94409 16.2147 3.95221 16.3543 4.06998L16.7183 4.43954C16.8336 4.55528 16.7588 4.73194 16.6192 4.8883L13.6986 8.53517C13.5429 8.74432 13.3163 8.76869 13.1202 8.56157L11.4798 6.79296C11.3403 6.65285 11.3403 6.62645 11.4637 6.49446Z" fill="#A9EFC9" stroke="black" stroke-width="0.515761" stroke-miterlimit="10" stroke-linecap="round" stroke-linejoin="round"/>
<path d="M11.7227 6.55537L13.3569 8.22449L16.3281 4.48218" stroke="black" stroke-width="0.257881" stroke-miterlimit="10" stroke-linecap="round" stroke-linejoin="round"/>
</svg>
